<svg id="Capa_1" enable-background="new 0 0 512.041 512.041" height="512" viewBox="0 0 512.041 512.041" width="512" xmlns="http://www.w3.org/2000/svg"><g id="XMLID_1039_"><g id="XMLID_26_"><path id="XMLID_7_" d="m70.467 451.644c-4.102 1.349-8.471 2.027-12.971 1.897-17.956-.52-32.429-14.993-32.949-32.949-.13-4.5.548-8.869 1.897-12.971 4.762-14.48 4.659-30.177-1.427-44.152-30.343-69.675-14.401-157.015 46.22-217.636s147.96-76.563 217.636-46.22c13.976 6.086 29.672 6.19 44.152 1.427 4.102-1.349 8.471-2.027 12.971-1.897 17.956.52 32.429 14.993 32.949 32.949.13 4.5-.548 8.869-1.897 12.971-4.762 14.48-4.659 30.177 1.427 44.152 30.343 69.675 14.401 157.015-46.22 217.636s-147.96 76.563-217.636 46.22c-13.975-6.086-29.671-6.189-44.152-1.427z" fill="#ffda8f"/><path id="XMLID_1705_" d="m426.112 163.153c-28.557-8.583-48.482-31.572-53.04-57.459 18.075-19.085 47.372-27.28 75.929-18.697s48.482 31.572 53.04 57.459c-18.075 19.084-47.372 27.28-75.929 18.697z" fill="#f5fade"/><g fill="#fff3da"><circle id="XMLID_1038_" cx="98.872" cy="225.176" r="15.542"/><circle id="XMLID_1040_" cx="92.316" cy="291.877" r="15.542"/><circle id="XMLID_1041_" cx="136.788" cy="166.552" r="15.542"/></g></g><g id="XMLID_587_"><path id="XMLID_411_" d="m502.041 446.377c-74.2 74.2-194.501 74.2-268.701 0s-74.2-194.501 0-268.701z" fill="#fff"/><g id="XMLID_950_" fill="#ffda8f"><path id="XMLID_997_" d="m358.779 303.115-86.191-86.191c-6.22-6.22-16.428-5.59-21.939 1.267-24.349 30.295-35.204 67.85-32.568 104.62.658 9.174 9.593 15.433 18.477 13.053z"/><path id="XMLID_998_" d="m352.05 329.765-108.886 29.176c-9.01 2.414-13.551 12.508-9.339 20.831 6.991 13.816 16.255 26.776 27.8 38.321 12.243 12.243 26.077 21.923 40.835 29.047 8.332 4.022 18.269-.485 20.664-9.422z"/><path id="XMLID_999_" d="m378.7 323.036-32.23 120.282c-2.434 9.085 4.167 18.031 13.56 18.509 35.775 1.819 72.078-9.105 101.519-32.777 6.846-5.505 7.454-15.71 1.242-21.922z"/></g><path id="XMLID_360_" d="m509.112 439.305-115.168-115.168c14.609-46.795 12.418-95.93-6.301-138.915-4.6-10.562-5.204-22.86-1.761-34.862 10.116 10.187 22.918 18.032 37.352 22.37 8.441 2.537 17.079 3.768 25.608 3.768 22.909 0 45.034-8.879 60.459-25.166 2.177-2.299 3.137-5.493 2.588-8.611-5.339-30.317-28.895-55.949-60.011-65.301-14.501-4.36-29.582-4.859-43.697-1.89 11.331-19.689 18.968-41.47 22.246-64.08.792-5.466-2.996-10.539-8.462-11.331-5.464-.795-10.538 2.996-11.331 8.462-4.73 32.629-19.666 63.32-42.307 87.255-6.423-4.033-13.958-6.455-22.041-6.689-5.556-.166-11.067.644-16.385 2.393-12.684 4.171-25.836 3.781-37.036-1.096-36.558-15.919-77.435-19.942-118.203-11.631-41.534 8.466-79.743 29.195-110.497 59.948-30.753 30.753-51.482 68.962-59.948 110.497-8.311 40.772-4.288 81.646 11.632 118.203 4.877 11.201 5.267 24.354 1.097 37.034-1.749 5.316-2.555 10.829-2.395 16.386.673 23.246 19.409 41.983 42.657 42.656 5.552.166 11.067-.645 16.383-2.393 12.683-4.172 25.833-3.782 37.036 1.096 24.157 10.52 50.391 15.817 77.066 15.817 19.04 0 38.304-2.704 57.2-8.129 34.958 27.299 77.74 42.098 122.797 42.098 53.423 0 103.646-20.804 141.422-58.579 3.906-3.904 3.906-10.236 0-14.142zm-62.989-342.731c22.174 6.665 39.321 23.857 44.945 44.584-16.118 14.191-39.901 19.081-62.078 12.419h.001c-17.784-5.345-32.327-17.465-40.293-32.744l36.151 10.865c.96.289 1.929.426 2.882.426 4.299 0 8.271-2.795 9.573-7.124 1.589-5.289-1.41-10.866-6.699-12.455l-36.15-10.865c15.07-8.356 33.885-10.448 51.668-5.106zm-327.511 347.329c-15.709-6.84-33.918-7.466-51.271-1.758-3.108 1.022-6.314 1.489-9.557 1.401-12.667-.367-22.876-10.577-23.242-23.242-.094-3.233.378-6.449 1.401-9.559 5.706-17.353 5.081-35.561-1.76-51.269-29.476-67.688-11.744-150.703 44.125-206.572 55.868-55.869 138.882-73.601 206.572-44.123 15.71 6.84 33.918 7.463 51.271 1.758 3.108-1.023 6.321-1.488 9.557-1.401 12.666.367 22.875 10.576 23.242 23.242.094 3.233-.378 6.448-1.4 9.558-5.708 17.353-5.083 35.561 1.759 51.27 15.439 35.454 18.304 75.672 8.43 114.722l-137.327-137.325c-3.905-3.904-10.237-3.905-14.143 0-37.775 37.775-58.579 88-58.579 141.421 0 53.422 21.244 104.076 59.019 141.851.145.145-.146-.145 0 0-36.965 7.935-74.778 4.536-108.097-9.974zm249.078 48.124c-48.079 0-93.281-18.724-127.278-52.721-33.998-33.998-52.722-79.199-52.722-127.279 0-44.731 16.207-86.972 45.842-120.016l254.175 254.175c-33.044 29.634-75.285 45.841-120.017 45.841z" fill="#ffa96b"/></g></g></svg>