<svg id="Capa_1" enable-background="new 0 0 511.931 511.931" height="512" viewBox="0 0 511.931 511.931" width="512" xmlns="http://www.w3.org/2000/svg"><g id="XMLID_18_"><ellipse id="XMLID_1503_" cx="127.242" cy="105.185" fill="#e7f9e9" rx="117.242" ry="35.901"/><ellipse id="XMLID_1502_" cx="112.582" cy="287.126" fill="#e7f9e9" rx="117.242" ry="35.901" transform="matrix(.707 -.707 .707 .707 -170.054 163.705)"/><ellipse id="XMLID_1443_" cx="415.947" cy="277.398" fill="#b8ecbc" rx="81.014" ry="94.811" transform="matrix(.808 -.589 .589 .808 -83.582 298.196)"/><ellipse id="XMLID_1441_" cx="271.734" cy="394.83" fill="#b8ecbc" rx="81.014" ry="94.811"/><g id="XMLID_1395_"><path id="XMLID_1397_" d="m327.296 22.289c-55.21 69.145-122.518 125.578-200.054 167.729l24.308 43.273c82.58-44.894 154.261-104.991 213.053-178.623z" fill="#e8d0c1"/></g><g id="XMLID_1399_" fill="#89df8f"><path id="XMLID_1403_" d="m489.502 223.794c-16.317-22.39-39.197-38.031-64.426-44.043-25.805-6.15-50.971-1.552-70.859 12.943-1.143.833-2.254 1.696-3.342 2.58-21.274-16.969-45.081-29.822-71.014-38.321 33.601-28.865 64.524-60.937 92.556-96.044 3.347-4.191 2.791-10.276-1.26-13.792l-37.307-32.38c-2.057-1.785-4.744-2.655-7.464-2.406-2.713.248-5.206 1.591-6.905 3.719-22.529 28.216-47.11 54.274-73.599 78.081-35.382-22.811-76.288-34.848-118.64-34.848-44.042 0-86.523 13.01-122.852 37.623-2.745 1.86-4.39 4.961-4.39 8.278s1.645 6.418 4.391 8.279c36.328 24.613 78.81 37.623 122.852 37.623 18.986 0 37.68-2.424 55.718-7.146-19.384 13.465-39.558 25.911-60.495 37.293-2.351 1.278-4.092 3.445-4.833 6.017-.74 2.571-.42 5.333.891 7.666l12.301 21.899c-18.576 10.055-35.597 22.752-50.699 37.854-31.143 31.143-51.981 70.38-60.266 113.472-.626 3.257.403 6.613 2.749 8.959 1.894 1.893 4.444 2.929 7.071 2.929.628 0 1.26-.059 1.888-.18 43.091-8.284 82.329-29.123 113.472-60.265 29.184-29.185 49.397-65.646 58.609-105.641 17.195-11.137 33.854-22.98 49.955-35.515 13.178 21.661 20.102 46.347 20.102 72.01 0 13.538-1.933 26.857-5.749 39.679-48.44 2.29-87.236 48.379-87.236 104.714 0 57.793 40.828 104.812 91.014 104.812s91.015-47.018 91.015-104.812c0-20.54-5.161-39.715-14.062-55.906 15.673 18.156 35.998 30.846 58.134 36.121 7.468 1.78 14.882 2.659 22.131 2.659 17.797 0 34.595-5.302 48.728-15.603 40.554-29.557 45.858-91.602 11.821-138.308zm-460.579-118.61c29.878-16.99 63.56-25.901 98.319-25.901s68.441 8.912 98.318 25.901c-29.877 16.99-63.559 25.902-98.318 25.902s-68.442-8.911-98.319-25.902zm299.627-68.565 22.2 19.269c-54.71 66.644-120.355 121.705-195.346 163.848l-14.515-25.84c71.967-40.53 135.024-93.376 187.661-157.277zm-197.654 268.822c-24.577 24.577-54.699 42.094-87.836 51.207 9.113-33.138 26.63-63.26 51.207-87.837 13.805-13.806 29.368-25.4 46.352-34.558l2.212 3.937c1.833 3.263 5.228 5.104 8.728 5.104 1.614 0 3.251-.392 4.768-1.216 7.445-4.047 14.798-8.223 22.067-12.512-9.797 28.433-25.956 54.333-47.498 75.875zm140.837 174.201c-39.157 0-71.014-38.046-71.014-84.812s31.856-84.811 71.014-84.811 71.015 38.046 71.015 84.811-31.857 84.812-71.015 84.812zm16.537-187.884c3.605-13.416 5.435-27.268 5.435-41.32 0-26.026-6.224-51.178-18.144-73.822 22.347 7.565 42.938 18.688 61.451 33.198-21.73 29.438-22.988 72.877-2.007 109.752-12.623-14.077-28.762-23.993-46.735-27.808zm177.628 54.181c-15.086 10.995-34.419 14.424-54.443 9.651-20.598-4.908-39.384-17.823-52.897-36.367-27.544-37.793-24.206-87.304 7.438-110.366 10.647-7.759 23.407-11.749 37.035-11.749 5.682 0 11.518.694 17.409 2.098 20.598 4.908 39.384 17.823 52.897 36.367 27.544 37.794 24.207 87.304-7.439 110.366z"/><path id="XMLID_1401_" d="m271.734 431.012c-6.699 0-12.13 5.431-12.13 12.13s5.431 12.13 12.13 12.13 12.13-5.431 12.13-12.13-5.431-12.13-12.13-12.13z"/><path id="XMLID_1400_" d="m445.91 305.236c-6.475-1.719-13.117 2.137-14.836 8.612s2.137 13.118 8.612 14.836c6.475 1.719 13.118-2.137 14.837-8.612 1.718-6.475-2.138-13.118-8.613-14.836z"/></g><g fill="#e7f9e9"><circle id="XMLID_320_" cx="271.734" cy="443.142" r="12.13"/><circle id="XMLID_1281_" cx="442.798" cy="316.96" r="12.13"/></g></g></svg>