<svg id="Capa_1" enable-background="new 0 0 512.019 512.019" height="512" viewBox="0 0 512.019 512.019" width="512" xmlns="http://www.w3.org/2000/svg"><g id="XMLID_1269_"><path id="XMLID_585_" d="m356.462 113.206c-19.443-10.021-31.617-30.107-31.617-51.98v-51.21c-20.416 0-37.916 12.469-45.313 30.205-2.887-13.256-11.701-24.297-23.523-30.22-11.822 5.923-20.636 16.964-23.523 30.22-7.396-17.736-24.896-30.204-45.313-30.204v51.209c0 21.873-12.174 41.959-31.617 51.98-67.403 34.74-113.277 103.35-113.277 182.313 0 114.047 95.69 206.5 213.73 206.5s213.73-92.453 213.73-206.5c.001-78.964-45.873-147.574-113.277-182.313z" fill="#fff3da"/><g id="XMLID_70_" fill="#ff9eb1"><path id="XMLID_76_" d="m278.136 353.422v77.808c0 13.755 13.147 23.807 26.372 20.025 26.601-7.608 50.482-21.308 69.874-39.4 9.605-8.961 8.474-24.518-2.251-32.104l-61.207-43.297c-13.766-9.739-32.788.105-32.788 16.968z"/><path id="XMLID_580_" d="m389.461 343.013c12.091 8.553 28.941 2.065 32.279-12.364 2.618-11.316 4-23.071 4-35.13 0-73.473-51.196-135.708-121.227-155.735-13.227-3.782-26.376 6.267-26.376 20.024v93.7c0 6.746 3.274 13.073 8.781 16.968z"/></g><g id="XMLID_1019_" fill="#ff9eb1"><path id="XMLID_1021_" d="m233.882 353.422v77.808c0 13.755-13.147 23.807-26.372 20.025-26.601-7.608-50.482-21.308-69.874-39.4-9.605-8.961-8.474-24.518 2.25-32.104l61.207-43.297c13.768-9.739 32.789.105 32.789 16.968z"/><path id="XMLID_1020_" d="m122.558 343.013c-12.091 8.553-28.941 2.065-32.279-12.364-2.618-11.316-4-23.071-4-35.13 0-73.473 51.196-135.708 121.227-155.735 13.227-3.782 26.376 6.267 26.376 20.024v93.7c0 6.746-3.274 13.073-8.781 16.968z"/></g><g id="XMLID_878_" fill="#ff5d7d"><path id="XMLID_890_" d="m361.044 104.317c-16.16-8.329-26.199-24.841-26.199-43.092v-51.209c0-5.523-4.477-10-10-10-16.948 0-32.633 7.161-43.614 19.19-5.155-7.618-12.24-13.886-20.743-18.146-2.819-1.413-6.14-1.413-8.959 0-8.503 4.26-15.587 10.528-20.743 18.146-10.981-12.029-26.666-19.19-43.614-19.19-5.523 0-10 4.477-10 10v51.209c0 18.25-10.039 34.762-26.199 43.091-73.213 37.735-118.694 111-118.694 191.203 0 57.895 23.315 112.305 65.652 153.209 42.243 40.813 98.383 63.291 158.079 63.291s115.836-22.477 158.079-63.291c42.336-40.904 65.652-95.315 65.652-153.209-.001-80.203-45.483-153.467-118.697-191.202zm-105.035 387.702c-112.337 0-203.73-88.149-203.73-196.5 0-72.683 41.329-139.135 107.859-173.425 22.844-11.774 37.036-35.098 37.036-60.869v-39.92c11.592 3.05 21.311 11.322 26.083 22.764 1.681 4.03 5.784 6.502 10.131 6.11 4.349-.394 7.94-3.564 8.869-7.832 1.845-8.473 6.757-15.803 13.752-20.73 6.996 4.927 11.907 12.257 13.752 20.73.929 4.267 4.52 7.438 8.869 7.832 4.342.395 8.451-2.08 10.131-6.11 4.772-11.442 14.491-19.714 26.083-22.764v39.92c0 25.771 14.191 49.095 37.036 60.869 66.53 34.29 107.859 100.742 107.859 173.424.001 108.351-91.392 196.501-203.73 196.501z"/><ellipse id="XMLID_891_" cx="401.716" cy="300.102" rx="13.867" ry="15.167"/><path id="XMLID_892_" d="m343.401 374.597c-7.658 0-13.867 6.79-13.867 15.167 0 8.376 6.208 15.167 13.867 15.167 7.658 0 13.867-6.79 13.867-15.167s-6.208-15.167-13.867-15.167z"/><path id="XMLID_893_" d="m300.539 411.891c-5.352 5.477-4.834 14.664 1.157 20.518s15.187 6.159 20.539.682 4.834-14.664-1.157-20.518-15.187-6.159-20.539-.682z"/><path id="XMLID_894_" d="m408.322 252.708c0-8.376-6.208-15.167-13.867-15.167-7.658 0-13.867 6.79-13.867 15.167 0 8.376 6.208 15.167 13.867 15.167s13.867-6.791 13.867-15.167z"/><path id="XMLID_895_" d="m302.026 231.312c7.658 0 13.867-6.79 13.867-15.167 0-8.376-6.208-15.167-13.867-15.167s-13.867 6.79-13.867 15.167 6.209 15.167 13.867 15.167z"/><path id="XMLID_896_" d="m352.903 271.616c-8.045-2.331-16.295 1.742-18.426 9.098s2.663 15.209 10.709 17.54c8.045 2.331 16.295-1.742 18.426-9.098s-2.664-15.208-10.709-17.54z"/><ellipse id="XMLID_897_" cx="303.295" cy="373.627" rx="13.867" ry="15.167" transform="matrix(.278 -.961 .961 .278 -139.981 560.953)"/><ellipse id="XMLID_898_" cx="341.105" cy="183.269" rx="13.867" ry="15.167" transform="matrix(.278 -.961 .961 .278 70.144 459.892)"/><path id="XMLID_899_" d="m340.105 223.339c-6.739 3.638-8.977 12.562-4.998 19.933s12.668 10.397 19.407 6.76c6.739-3.638 8.977-12.562 4.998-19.933s-12.668-10.398-19.407-6.76z"/><ellipse id="XMLID_900_" cx="110.303" cy="300.102" rx="13.867" ry="15.167"/><path id="XMLID_920_" d="m168.617 374.597c-7.658 0-13.867 6.79-13.867 15.167 0 8.376 6.208 15.167 13.867 15.167 7.658 0 13.867-6.79 13.867-15.167s-6.208-15.167-13.867-15.167z"/><path id="XMLID_921_" d="m190.941 412.573c-5.991 5.854-6.509 15.04-1.157 20.518s14.548 5.172 20.539-.682 6.509-15.04 1.157-20.518c-5.353-5.477-14.548-5.172-20.539.682z"/><path id="XMLID_922_" d="m117.563 237.542c-7.658 0-13.867 6.79-13.867 15.167 0 8.376 6.208 15.167 13.867 15.167 7.658 0 13.867-6.79 13.867-15.167s-6.209-15.167-13.867-15.167z"/><path id="XMLID_923_" d="m209.993 200.979c-7.658 0-13.867 6.79-13.867 15.167 0 8.376 6.208 15.167 13.867 15.167s13.867-6.79 13.867-15.167c-.001-8.377-6.209-15.167-13.867-15.167z"/><path id="XMLID_924_" d="m166.834 298.254c8.045-2.331 12.84-10.184 10.709-17.54s-10.381-11.429-18.426-9.098-12.84 10.184-10.709 17.54 10.381 11.429 18.426 9.098z"/><ellipse id="XMLID_925_" cx="208.724" cy="373.627" rx="15.167" ry="13.867" transform="matrix(.961 -.278 .278 .961 -95.735 72.849)"/><ellipse id="XMLID_926_" cx="170.914" cy="183.269" rx="15.167" ry="13.867" transform="matrix(.961 -.278 .278 .961 -44.252 54.806)"/><path id="XMLID_927_" d="m157.505 250.032c6.739 3.638 15.428.612 19.407-6.76 3.979-7.371 1.741-16.295-4.998-19.933s-15.428-.612-19.407 6.76c-3.979 7.37-1.741 16.295 4.998 19.933z"/></g></g></svg>