<svg id="Capa_1" enable-background="new 0 0 512.001 512.001" height="512" viewBox="0 0 512.001 512.001" width="512" xmlns="http://www.w3.org/2000/svg"><g id="XMLID_2291_"><g id="XMLID_1636_" fill="#f5fade"><path id="XMLID_1645_" d="m443.19 49.381c4.322 30.306-9.414 62.966-37.92 82.802s-63.904 21.367-90.819 6.782c-4.322-30.306 9.414-62.966 37.92-82.802 28.505-19.836 63.903-21.367 90.819-6.782z"/><path id="XMLID_1640_" d="m363.566 11.934c12.339 28.016 7.924 63.171-14.172 89.963s-55.769 37.816-85.621 31.035c-12.339-28.016-7.924-63.171 14.172-89.963s55.768-37.816 85.621-31.035z"/></g><g id="XMLID_60_" fill="#f5fade"><path id="XMLID_79_" d="m161.644 56.163c28.506 19.836 42.243 52.496 37.92 82.802-26.915 14.585-62.313 13.054-90.819-6.782s-42.243-52.496-37.92-82.802c26.915-14.585 62.313-13.054 90.819 6.782z"/><path id="XMLID_68_" d="m236.07 42.969c22.097 26.792 26.512 61.946 14.172 89.963-29.852 6.782-63.525-4.243-85.621-31.035s-26.512-61.946-14.172-89.963c29.852-6.781 63.525 4.243 85.621 31.035z"/></g><g id="XMLID_1229_"><g id="XMLID_1543_"><circle id="XMLID_1546_" cx="256.837" cy="454.234" fill="#ff9eb1" r="47.768"/></g><g id="XMLID_1440_"><circle id="XMLID_1455_" cx="100.714" cy="248.375" fill="#ff9eb1" r="47.768"/></g><g id="XMLID_1534_"><circle id="XMLID_1536_" cx="374.629" cy="321.006" fill="#ff9eb1" r="47.768"/></g><g id="XMLID_1457_"><circle id="XMLID_1466_" cx="385.441" cy="248.375" fill="#ff9eb1" r="47.768"/></g><g id="XMLID_1527_"><circle id="XMLID_1529_" cx="138.218" cy="327.351" fill="#ff9eb1" r="47.768"/></g><g id="XMLID_1530_"><circle id="XMLID_1533_" cx="298.838" cy="327.351" fill="#ff9eb1" r="47.768"/></g><g id="XMLID_1402_"><circle id="XMLID_1404_" cx="170.232" cy="248.376" fill="#ff9eb1" r="47.768"/></g><g id="XMLID_1437_"><circle id="XMLID_1439_" cx="321.509" cy="252.804" fill="#ff9eb1" r="47.768"/></g><g id="XMLID_1603_"><g id="XMLID_1375_"><circle id="XMLID_1377_" cx="102.386" cy="175.769" fill="#ff9eb1" r="47.768"/></g><g id="XMLID_38_"><circle id="XMLID_1354_" cx="172.929" cy="175.769" fill="#ff9eb1" r="47.768"/></g><g id="XMLID_1378_"><circle id="XMLID_1384_" cx="411.287" cy="175.769" fill="#ff9eb1" r="47.768"/></g><g id="XMLID_1095_"><circle id="XMLID_1374_" cx="340.744" cy="175.769" fill="#ff9eb1" r="47.768"/></g><g id="XMLID_1851_"><circle id="XMLID_1853_" cx="256.837" cy="175.769" fill="#ff9eb1" r="47.768"/></g></g><g id="XMLID_1434_"><circle id="XMLID_1436_" cx="243.077" cy="243.561" fill="#ff9eb1" r="47.768"/></g><g id="XMLID_1540_"><circle id="XMLID_1542_" cx="298.838" cy="399.893" fill="#ff9eb1" r="47.768"/></g><g id="XMLID_1537_"><circle id="XMLID_1539_" cx="203.303" cy="399.893" fill="#ff9eb1" r="47.768"/></g><g id="XMLID_1494_"><circle id="XMLID_1496_" cx="224.28" cy="321.006" fill="#ff9eb1" r="47.768"/></g></g><path id="XMLID_881_" d="m469.055 175.769c0-24.779-15.685-45.958-37.646-54.146 17.232-20.814 25.392-47.627 21.68-73.654-.447-3.134-2.352-5.872-5.136-7.38-20.359-11.033-45.119-13.701-68.398-7.761-1.07-8.565-3.332-16.963-6.838-24.925-1.276-2.897-3.849-5.02-6.937-5.721-34.36-7.807-71.867 5.705-95.551 34.423-5.292 6.416-9.703 13.361-13.22 20.635-3.517-7.27-7.93-14.214-13.225-20.635-23.684-28.715-61.19-42.225-95.55-34.422-3.087.701-5.66 2.823-6.937 5.721-3.502 7.951-5.762 16.337-6.833 24.889-23.392-6.075-47.723-3.411-68.403 7.796-2.784 1.508-4.688 4.246-5.136 7.38-3.702 25.96 4.428 52.749 21.597 73.552-22.097 8.117-37.904 29.371-37.904 54.248 0 13.261 4.503 25.484 12.045 35.246-8.802 10.357-13.717 23.517-13.717 37.361 0 26.517 17.965 48.903 42.359 55.664-3.125 7.138-4.855 15.026-4.855 23.312 0 31.853 25.914 57.768 57.767 57.768 3.196 0 6.34-.266 9.415-.765-1.366 4.962-2.097 10.174-2.097 15.538 0 30.461 23.703 55.473 53.631 57.603 1.698 30.341 26.912 54.506 57.67 54.506 31.44 0 57.077-25.252 57.736-56.537 24.227-6.87 42.033-29.173 42.033-55.572 0-9.604-2.369-18.66-6.533-26.636 7.619 3.579 15.998 5.517 24.556 5.517 31.853 0 57.768-25.915 57.768-57.768 0-10.559-2.893-20.84-8.267-29.773 11.708-10.579 19.078-25.872 19.078-42.857 0-7.575-1.474-14.985-4.3-21.884 17.947-9.812 30.148-28.868 30.148-50.723zm-35.232-119.864c1.523 22.904-8.466 46.14-26.872 62.281-11.265.855-22.044 5.012-30.949 11.872-8.074-6.242-17.835-10.393-28.477-11.644 3.384-3.136 6.589-6.524 9.582-10.153 13.158-15.954 20.887-35.202 22.732-54.69 18.062-5.82 37.553-4.998 53.984 2.334zm-97.217 271.447c0 8.418-2.833 16.535-7.912 23.104-8.718-5.285-18.937-8.331-29.855-8.331-8.147 0-15.9 1.704-22.936 4.76 3.922-7.791 6.145-16.578 6.145-25.88 0-10.507-2.833-20.358-7.755-28.855 1.04-.672 2.057-1.372 3.047-2.106 10.851 12.879 26.918 20.528 44.17 20.528 3.642 0 7.201-.354 10.658-1.002 2.913 5.435 4.438 11.487 4.438 17.782zm-166.374-41.209c-20.825 0-37.768-16.942-37.768-37.768 0-8.99 3.174-17.537 8.857-24.29 9.089 5.966 19.947 9.451 31.608 9.451 4.632 0 9.187-.56 13.583-1.626-.779 3.795-1.203 7.691-1.203 11.651 0 10.243 2.707 20.168 7.745 28.882-5.322 3.434-10.045 7.715-13.978 12.656-2.88.691-5.843 1.044-8.844 1.044zm86.605-148.142c20.825 0 37.768 16.942 37.768 37.768s-16.942 37.768-37.768 37.768-37.768-16.942-37.768-37.768 16.942-37.768 37.768-37.768zm121.674 37.768c0 20.825-16.942 37.768-37.768 37.768-12.162 0-23.506-5.891-30.567-15.606 2.848-6.828 4.427-14.313 4.427-22.161 0-7.849-1.58-15.334-4.428-22.163 7.06-9.717 18.398-15.605 30.568-15.605 20.826-.001 37.768 16.942 37.768 37.767zm-97.666 67.792c0 13.83-7.691 26.539-19.588 33.105-10.027-8.376-22.922-13.427-36.978-13.427-4.309 0-8.504.489-12.547 1.388-4.168-6.192-6.423-13.497-6.423-21.066 0-10.11 4.028-19.64 11.022-26.654 10.434 10.275 24.739 16.63 40.505 16.63 7.508 0 14.679-1.455 21.266-4.073 1.792 4.452 2.743 9.223 2.743 14.097zm-77.347-89.957c-2.849 6.83-4.429 14.315-4.429 22.165 0 7.849 1.58 15.333 4.427 22.162-7.06 9.716-18.402 15.606-30.567 15.606-20.825 0-37.768-16.942-37.768-37.768s16.942-37.768 37.768-37.768c12.176 0 23.51 5.886 30.569 15.603zm-16.986 167.402c0-20.825 16.942-37.768 37.768-37.768s37.768 16.942 37.768 37.768-16.942 37.768-37.768 37.768-37.768-16.943-37.768-37.768zm172.765-68.202c0 20.825-16.942 37.768-37.768 37.768-12.052 0-23.213-5.717-30.284-15.209 6.121-9.266 9.62-20.278 9.62-31.802 0-8.615-1.911-17.037-5.558-24.728 1.209-1.08 2.367-2.215 3.481-3.392 10.783 11.389 25.918 18.095 41.976 18.095 4.257 0 8.403-.477 12.401-1.354 3.978 6.099 6.132 13.247 6.132 20.622zm-73.618-203.472c17.751-21.523 44.998-32.406 70.644-28.592 8.624 24.451 3.126 53.271-14.625 74.794-14.733 17.862-35.663 28.474-57.637 29.292-4.503-2.415-9.364-4.24-14.477-5.395-6.475-23.534-.517-49.958 16.095-70.099zm-127.948-28.592c25.642-3.816 52.893 7.068 70.644 28.592 12.249 14.852 18.701 33.082 18.663 51.061 0 .102-.002.204-.002.306-.039 6.303-.882 12.571-2.548 18.65-5.235 1.147-10.208 3-14.809 5.463-21.852-.914-42.69-11.536-57.323-29.278-17.751-21.523-23.249-50.344-14.625-74.794zm-77.519 35.165c16.422-7.327 35.928-8.152 53.982-2.335 1.845 19.487 9.575 38.736 22.733 54.69 2.98 3.614 6.174 6.988 9.547 10.114-10.759 1.206-20.628 5.379-28.779 11.68-8.808-6.781-19.461-10.92-30.582-11.839-18.418-16.135-28.419-39.41-26.901-62.31zm22.194 82.096c7.945 0 15.455 2.406 21.764 6.881-5.681 8.941-8.988 19.531-8.988 30.886 0 11.353 3.305 21.941 8.984 30.881-6.312 4.476-13.824 6.887-21.76 6.887-20.825 0-37.768-16.942-37.768-37.768s16.943-37.767 37.768-37.767zm-39.439 110.375c0-8.8 3.044-17.175 8.503-23.859 8.951 5.701 19.56 9.02 30.937 9.02 4.223 0 8.365-.458 12.382-1.327-1.508 5.19-2.304 10.622-2.304 16.166 0 8.874 2.016 17.283 5.606 24.803-7.709 2.84-14.597 7.249-20.308 12.838-19.45-1.513-34.816-17.81-34.816-37.641zm37.503 78.976c0-18.201 12.717-33.474 30.155-37.001 9.954 9.402 23.232 15.307 37.867 15.748-1.272 4.759-1.961 9.753-1.961 14.907 0 8.498 1.859 16.564 5.169 23.837-6.47 12.426-19.204 20.276-33.463 20.276-20.824 0-37.767-16.942-37.767-37.767zm65.085 72.541c0-15.03 8.663-28.263 22.005-34.339 9.992 8.255 22.796 13.22 36.739 13.22 3.325 0 6.579-.298 9.752-.84 4.566 6.372 7.039 14.002 7.039 21.959 0 20.825-16.942 37.768-37.768 37.768s-37.767-16.943-37.767-37.768zm91.302 92.108c-20.419 0-37.093-16.29-37.737-36.555 13.17-3.75 24.438-12.054 31.971-23.108 9.632 14.135 25.369 23.78 43.385 25.139-1.652 19.312-17.887 34.524-37.619 34.524zm42.001-54.341c-20.825 0-37.768-16.942-37.768-37.768s16.942-37.768 37.768-37.768 37.768 16.942 37.768 37.768-16.943 37.768-37.768 37.768zm113.559-116.654c0 20.825-16.942 37.768-37.768 37.768-8.372 0-16.489-2.82-23.053-7.87 3.277-7.336 5.029-15.352 5.029-23.552 0-8.742-1.924-17.183-5.62-24.893 2.005-1.195 3.928-2.51 5.767-3.93 8.695 4.998 18.482 7.615 28.688 7.615 7.693 0 15.033-1.524 21.752-4.266 3.385 5.759 5.205 12.355 5.205 19.128zm10.811-72.63c0 20.825-16.942 37.768-37.768 37.768-5.167 0-10.169-1.024-14.8-3 5.469-8.824 8.636-19.216 8.636-30.338 0-10.026-2.607-19.778-7.459-28.375 1.439-.922 2.834-1.903 4.182-2.945 10.044 7.734 22.484 12.053 35.288 12.053 2.921 0 5.79-.222 8.596-.643 2.177 4.835 3.325 10.089 3.325 15.48zm-11.921-34.839c-7.947 0-15.457-2.405-21.764-6.88 5.682-8.941 8.988-19.532 8.988-30.887 0-11.345-3.301-21.928-8.973-30.864 6.32-4.444 13.924-6.904 21.749-6.904 20.825 0 37.768 16.942 37.768 37.768s-16.942 37.767-37.768 37.767z" fill="#ff5d7d"/></g></svg>