<svg id="Capa_1" enable-background="new 0 0 512.029 512.029" height="512" viewBox="0 0 512.029 512.029" width="512" xmlns="http://www.w3.org/2000/svg"><g id="XMLID_2277_"><path id="XMLID_24_" d="m175.755 88v-56c0-12.15 9.85-22 22-22 12.15 0 22 9.85 22 22v56l-22 15.432z" fill="#e8d0c1"/><path id="XMLID_1334_" d="m197.755 103.432 28.059-18.635 21.884 27.022 31.743-8.591 13.763 33.009 32.605 2.216 4.419 36.062 30.57 12.826-5.316 35.911 25.819 22.296-14.58 32.57 18.774 29.785-22.549 26.335 10.061 34.628-28.513 17.759.453 36.393-31.944 7.606-9.194 34.925-32.537-3.223-18.025 30.354-30.239-13.766-25.253 23.086-25.254-23.086-30.239 13.766-18.024-30.354-32.538 3.223-9.194-34.925-31.944-7.606.454-36.393-28.514-17.759 10.061-34.628-22.548-26.335 18.774-29.785-14.58-32.57 25.819-22.296-5.317-35.911 30.57-12.826 4.42-36.062 32.605-2.216 13.763-33.009 31.742 8.591 21.884-27.022z" fill="#b8ecbc"/><g id="XMLID_1498_"><path id="XMLID_1758_" d="m430.426 417.879 32.695-11.532-1.366-35.182 28.912-20.916-11.212-32.219 22.56-28.442-20.062-26.392 14.203-33.441-27.128-18.221 4.585-35.468-31.785-8.431-5.441-34.344-33.618 2.108-199.284 345.17 33.414-7.366 19.304 27.042 30.787-17.276 26.566 19.06 25.425-25.649 31.468 9.386 17.804-31.745 33.572-1.123z" fill="#f5fade"/><path id="XMLID_1757_" d="m425.314 363.326c42.374-73.394 24.967-162.774-38.879-199.636l-153.45 265.784c63.847 36.862 149.955 7.246 192.329-66.148z" fill="#fff"/><g id="XMLID_1493_" fill="#ffda8f"><path id="XMLID_1497_" d="m248.586 402.452c34.318 19.813 78.621 11.082 112.398-18.327 7.82-6.808 9.944-18.14 4.943-27.223-13.306-24.166-32.221-44.973-56.275-60.221z"/><path id="XMLID_1499_" d="m323.663 272.416c17.245 10.798 32.406 24.18 45.171 39.704 11.938 14.518 35.417 8.251 38.668-10.261 7.564-43.074-7.113-84.576-40.783-104.016z"/></g><path id="XMLID_520_" d="m509.976 283.537-16.55-21.773 11.935-28.1c1.875-4.414.353-9.537-3.629-12.21l-21.993-14.772 3.792-29.333c.643-4.978-2.503-9.661-7.354-10.948l-25.49-6.762-4.422-27.912c-.807-5.093-5.338-8.742-10.503-8.416l-33.617 2.107c-3.343.209-6.359 2.079-8.034 4.98l-27.993 48.486c-.457-.287-26.668-11.345-26.668-11.345l-3.714-30.303c-.583-4.76-4.464-8.436-9.248-8.761l-26.434-1.796-11.384-27.299c-1.931-4.633-6.996-7.114-11.842-5.805l-25.457 6.89-17.785-21.961c-1.056-1.303-2.38-2.27-3.831-2.891v-43.613c0-17.645-14.355-32-32-32s-32 14.355-32 32v43.612c-1.451.621-2.776 1.588-3.832 2.892l-17.785 21.961-25.457-6.89c-4.847-1.312-9.911 1.172-11.842 5.804l-11.382 27.299-26.434 1.796c-4.784.325-8.664 4.001-9.248 8.761l-3.714 30.302-25.219 10.583c-4.213 1.768-6.693 6.166-6.023 10.686l4.511 30.472-21.657 18.702c-3.343 2.886-4.396 7.624-2.592 11.654l12.392 27.683-15.918 25.254c-2.337 3.708-1.987 8.507.863 11.836l19.034 22.23-8.553 29.438c-1.25 4.302.514 8.91 4.316 11.278l23.73 14.78-.383 30.759c-.059 4.677 3.133 8.769 7.683 9.853l26.116 6.218 7.668 29.131c1.251 4.75 5.77 7.896 10.656 7.405l26.203-2.596 14.775 24.881c2.605 4.388 8.098 6.109 12.742 3.995l24.225-11.028 20.377 18.628c1.907 1.743 4.325 2.619 6.748 2.619 2.293 0 4.589-.786 6.457-2.364l28.938-24.472 14.914 20.891c2.964 4.154 8.581 5.408 13.032 2.911l25.236-14.16 21.394 15.349c1.754 1.258 3.795 1.875 5.826 1.875 2.591 0 5.166-1.004 7.104-2.96l21.208-21.394 25.725 7.673c4.483 1.335 9.292-.612 11.58-4.691l15.049-26.83 27.94-.935c4.478-.15 8.309-3.259 9.377-7.609l7.312-29.771 27.599-9.735c4.134-1.458 6.836-5.438 6.666-9.819l-1.158-29.83 24.573-17.778c3.578-2.589 5.035-7.218 3.583-11.389l-9.405-27.025 19.144-24.134c2.84-3.578 2.891-8.627.127-12.264zm-312.221-263.537c6.617 0 12 5.383 12 12v51.458l-12 7.969-12-7.969v-51.458c0-6.617 5.383-12 12-12zm-18.507 451.533c-2.958-2.704-7.243-3.381-10.891-1.72l-22.076 10.05-13.446-22.643c-1.983-3.339-5.718-5.225-9.584-4.845l-24.051 2.382-7.023-26.679c-.939-3.567-3.766-6.328-7.354-7.182l-24.162-5.753.354-28.394c.044-3.498-1.743-6.764-4.712-8.613l-22.083-13.755 7.947-27.354c.941-3.238.186-6.732-2.007-9.294l-17.754-20.735 14.843-23.548c1.784-2.83 2.035-6.365.668-9.418l-11.54-25.779 20.188-17.433c2.592-2.238 3.858-5.646 3.356-9.034l-4.18-28.229 23.41-9.822c3.309-1.388 5.621-4.443 6.057-8.005l3.415-27.862 24.362-1.656c3.782-.257 7.093-2.63 8.552-6.128l10.387-24.913 23.276 6.299c3.82 1.033 7.893-.283 10.384-3.359l16.158-19.953 20.482 13.602c3.352 2.225 7.711 2.226 11.064 0l20.481-13.602 16.158 19.952c2.491 3.076 6.562 4.393 10.384 3.359l23.276-6.299 10.388 24.913c1.458 3.499 4.77 5.872 8.552 6.128l24.362 1.656 3.415 27.862c.437 3.562 2.748 6.617 6.057 8.005l29.749 12.482-161.285 279.353c-1.906 3.301-1.743 7.375.354 10.527zm290.762-150.216 8.768 25.191-22.884 16.555c-2.711 1.961-4.261 5.147-4.131 8.49l1.08 27.815-25.743 9.08c-3.181 1.122-5.581 3.771-6.385 7.045l-6.794 27.663-26.002.87c-3.496.117-6.677 2.052-8.388 5.103l-13.892 24.767-23.8-7.099c-3.535-1.055-7.363-.077-9.96 2.543l-19.423 19.593-19.638-14.089c-1.734-1.245-3.778-1.875-5.83-1.875-1.681 0-3.367.423-4.893 1.279l-22.966 12.886-14.094-19.742c-2.328-3.262-6.381-4.818-10.292-3.956l-11.255 2.481 185.258-320.875 19.186-1.203 4.017 25.358c.619 3.91 3.487 7.086 7.313 8.101l23.307 6.183-3.461 26.769c-.485 3.759 1.195 7.47 4.343 9.583l20.271 13.615-10.974 25.836c-1.403 3.303-.929 7.104 1.243 9.96l15.362 20.21-17.735 22.358c-2.127 2.687-2.733 6.271-1.608 9.505z" fill="#89df8f"/></g></g></svg>