<svg id="Capa_1" enable-background="new 0 0 511.911 511.911" height="512" viewBox="0 0 511.911 511.911" width="512" xmlns="http://www.w3.org/2000/svg"><g id="XMLID_2262_"><ellipse id="XMLID_2134_" cx="195.36" cy="286.454" fill="#e0ef9b" rx="185.36" ry="192.328"/><g id="XMLID_1223_"><path id="XMLID_2205_" d="m177.133 449.122c72.388 72.388 191.957 70.181 267.066-4.927s77.315-194.678 4.927-267.066z" fill="#f5fade"/><path id="XMLID_2204_" d="m218.955 407.3c50.127 50.127 132.925 48.599 184.936-3.412s53.539-134.81 3.412-184.936z" fill="#ffbe90"/><path id="XMLID_539_" d="m456.197 170.058c-3.906-3.905-10.236-3.905-14.143 0l-59.254 59.253c-10.897-38.281-32.738-72.795-62.662-98.546-34.141-29.382-77.222-45.858-121.629-46.604-2.25-17.13-8.545-33.423-18.297-47.61 16.449-3.652 32.342-9.63 47.094-17.797 4.831-2.675 6.58-8.76 3.905-13.592-2.675-4.833-8.761-6.581-13.593-3.906-23.066 12.77-49.287 19.519-75.827 19.519-9.763 0-19.533-.902-29.04-2.682-5.425-1.021-10.653 2.56-11.669 7.989-1.017 5.429 2.561 10.653 7.989 11.669 10.718 2.006 21.727 3.023 32.72 3.023 5.32 0 10.628-.252 15.908-.729 11.018 12.75 18.163 28.291 20.697 44.85-99.807 8.936-178.396 95.914-178.396 201.559 0 111.564 87.638 202.328 195.359 202.328 5.657 0 11.354-.267 16.973-.768 28.886 15.947 61.214 23.893 93.8 23.893 52.066 0 104.789-20.292 145.139-60.641 78.886-78.888 81.097-205.037 4.926-281.208zm-436.197 116.396c0-100.536 78.666-182.328 175.359-182.328 81.777 0 152.932 59.283 170.975 141.653l-196.272 196.272c-3.905 3.905-3.905 10.237 0 14.143 4.308 4.307 8.781 8.353 13.391 12.159-91.161-6.388-163.453-85.525-163.453-181.899zm417.128 150.67c-68.622 68.621-176.728 73.058-245.646 11.792l257.437-257.437c61.268 68.919 56.83 177.024-11.791 245.645z" fill="#89df8f"/><g fill="#a7bdcd"><ellipse id="XMLID_1236_" cx="394.005" cy="269.305" rx="11.232" ry="14.976" transform="matrix(.707 -.707 .707 .707 -75.026 357.482)"/><g id="XMLID_1228_"><ellipse id="XMLID_2337_" cx="352.44" cy="310.871" rx="11.232" ry="14.976" transform="matrix(.707 -.707 .707 .707 -116.591 340.265)"/><ellipse id="XMLID_1235_" cx="310.875" cy="352.436" rx="11.232" ry="14.976" transform="matrix(.707 -.707 .707 .707 -158.157 323.048)"/><ellipse id="XMLID_1233_" cx="269.309" cy="394.001" rx="11.232" ry="14.976" transform="matrix(.707 -.707 .707 .707 -199.722 305.831)"/></g><g id="XMLID_1224_"><ellipse id="XMLID_1227_" cx="406.465" cy="320.947" rx="11.232" ry="14.976" transform="matrix(.707 -.707 .707 .707 -107.893 381.417)"/><ellipse id="XMLID_1226_" cx="364.9" cy="362.513" rx="11.232" ry="14.976" transform="matrix(.707 -.707 .707 .707 -149.459 364.201)"/><ellipse id="XMLID_1225_" cx="323.334" cy="404.078" rx="11.232" ry="14.976" transform="matrix(.707 -.707 .707 .707 -191.024 346.984)"/></g></g></g><path id="XMLID_1952_" d="m77.673 299.286c0-62.245 39.632-115.231 95.037-135.107 4.399-1.578 3.423-8.086-1.247-8.274-2.066-.083-4.147-.107-6.242-.068-56.476 1.028-102.491 47.02-103.53 103.496-.273 14.825 2.516 28.966 7.773 41.836 1.774 4.342 8.215 3.012 8.209-1.678 0-.068 0-.137 0-.205z" fill="#fff"/></g></svg>