<svg id="Capa_1" enable-background="new 0 0 511.889 511.889" height="512" viewBox="0 0 511.889 511.889" width="512" xmlns="http://www.w3.org/2000/svg"><g id="XMLID_23_"><path id="XMLID_2041_" d="m108.899 26.058c48.402-3.358 98.455 22.1 126.542 69.434s26.449 103.465.309 144.34c-48.402 3.358-98.455-22.1-126.542-69.434s-26.449-103.465-.309-144.34z" fill="#e7f9e9"/><path id="XMLID_2035_" d="m402.68 170.398c-28.088 47.334-78.14 72.793-126.542 69.434-26.141-40.875-27.779-97.005.309-144.34s78.14-72.793 126.542-69.434c26.141 40.875 27.779 97.006-.309 144.34z" fill="#e7f9e9"/><circle id="XMLID_1971_" cx="132.949" cy="269.127" fill="#b5b3ee" r="122.995"/><circle id="XMLID_1975_" cx="378.94" cy="269.127" fill="#b5b3ee" r="122.995"/><g id="XMLID_1927_"><circle id="XMLID_1961_" cx="255.944" cy="363.132" fill="#b5b3ee" r="122.995"/><g id="XMLID_591_" fill="#b278d3"><path id="XMLID_953_" d="m487.162 191.823c-15.644-21.902-37.044-38.187-61.737-47.338 13.974-42.261 8.957-87.902-14.011-123.815-1.706-2.667-4.574-4.369-7.732-4.588-26.031-1.806-52.411 4.03-76.314 16.875-24.434 13.129-45.016 32.99-59.52 57.433-4.733 7.976-8.698 16.28-11.903 24.79-3.206-8.51-7.17-16.814-11.903-24.79-14.504-24.443-35.086-44.304-59.52-57.433-23.904-12.844-50.298-18.679-76.314-16.875-3.158.219-6.026 1.921-7.732 4.588-22.977 35.928-27.986 81.551-14.008 123.814-24.694 9.15-46.095 25.436-61.74 47.339-42.624 59.673-28.754 142.9 30.919 185.525 21.647 15.463 46.792 23.923 73.119 24.707 16.683 54.402 67.383 94.073 127.18 94.073 59.796 0 110.496-39.67 127.179-94.072 26.324-.781 51.46-9.237 73.119-24.707 59.672-42.626 73.542-125.852 30.918-185.526zm-202.115-91.227c24.245-40.857 67.85-65.895 112.166-64.799 17.557 30.351 20.811 68.075 8.978 103.163-1.785-.372-3.58-.718-5.389-1.019-35.04-5.838-70.259 2.316-99.166 22.964-13.068 9.335-24.227 20.879-33.05 33.991-6.487-31.3-.785-65.237 16.461-94.3zm-170.371-64.799c44.324-1.091 87.922 23.945 112.166 64.799 17.247 29.064 22.949 63.003 16.46 94.305-8.824-13.115-19.984-24.663-33.049-33.996-28.906-20.649-64.124-28.804-99.166-22.964-1.809.301-3.603.647-5.387 1.019-11.836-35.092-8.59-72.801 8.976-103.163zm-47.406 325.277c-50.699-36.216-62.483-106.926-26.268-157.626 17.543-24.56 43.601-40.818 73.372-45.78 29.775-4.961 59.694 1.967 84.254 19.511 18.851 13.465 33.019 32.361 40.732 53.99-65.536 8.188-116.411 64.245-116.411 131.963 0 6.331.455 12.557 1.315 18.655-20.49-1.54-40.01-8.583-56.994-20.713zm188.674 115.054c-62.306 0-112.995-50.689-112.995-112.995s50.689-112.996 112.995-112.996 112.995 50.689 112.995 112.996c0 62.305-50.689 112.995-112.995 112.995zm188.674-115.054c-16.992 12.137-36.507 19.183-56.994 20.718.86-6.099 1.315-12.327 1.315-18.659 0-67.718-50.874-123.773-116.408-131.963 7.712-21.629 21.873-40.52 40.73-53.99 24.56-17.543 54.479-24.473 84.254-19.511 29.771 4.961 55.829 21.22 73.372 45.78 36.215 50.699 24.43 121.409-26.269 157.625z"/><path id="XMLID_1956_" d="m226.139 362.454c2.606-1.908 6.238.189 5.888 3.4-.926 8.514 3.77 16.647 11.606 20.102 2.955 1.303 2.955 5.496 0 6.799-7.836 3.455-12.532 11.588-11.606 20.102.349 3.211-3.282 5.307-5.888 3.4-6.91-5.059-16.301-5.059-23.212 0-2.606 1.908-6.237-.189-5.888-3.4.926-8.514-3.77-16.647-11.606-20.102-2.955-1.303-2.955-5.496 0-6.799 7.836-3.455 12.532-11.588 11.606-20.102-.349-3.211 3.282-5.307 5.888-3.4 6.911 5.058 16.301 5.058 23.212 0z"/><path id="XMLID_67_" d="m454.78 278c1.908 2.606-.189 6.238-3.4 5.888-8.514-.926-16.647 3.77-20.102 11.606-1.303 2.955-5.496 2.955-6.799 0-3.455-7.836-11.588-12.532-20.102-11.606-3.211.349-5.307-3.282-3.4-5.888 5.059-6.91 5.059-16.301 0-23.212-1.908-2.606.189-6.237 3.4-5.888 8.514.926 16.647-3.77 20.102-11.606 1.303-2.955 5.496-2.955 6.799 0 3.455 7.836 11.588 12.532 20.102 11.606 3.211-.349 5.307 3.282 3.4 5.888-5.059 6.911-5.059 16.302 0 23.212z"/><path id="XMLID_57_" d="m57.109 278c-1.908 2.606.189 6.238 3.4 5.888 8.514-.926 16.647 3.77 20.102 11.606 1.303 2.955 5.496 2.955 6.799 0 3.455-7.836 11.588-12.532 20.102-11.606 3.211.349 5.307-3.282 3.4-5.888-5.059-6.91-5.059-16.301 0-23.212 1.908-2.606-.189-6.237-3.4-5.888-8.514.926-16.647-3.77-20.102-11.606-1.303-2.955-5.496-2.955-6.799 0-3.455 7.836-11.588 12.532-20.102 11.606-3.211-.349-5.307 3.282-3.4 5.888 5.058 6.911 5.058 16.302 0 23.212z"/></g></g></g></svg>