<svg id="Capa_1" enable-background="new 0 0 511.964 511.964" height="512" viewBox="0 0 511.964 511.964" width="512" xmlns="http://www.w3.org/2000/svg"><g id="XMLID_25_"><g id="XMLID_1552_"><path id="XMLID_1676_" d="m361.032 86.697c-58.976-16.137-118.83 22.958-127.63 83.465-5.523 37.977-16.163 75.863-32.271 112.752-26.658 61.052-65.556 112.967-112.561 154.128-29.101 25.482-4.199 73.118 33.333 63.76 126.408-31.519 237.433-118.856 294.424-246.86 5.351-12.018 10.113-24.153 14.3-36.372 18.998-55.449-13.06-115.404-69.595-130.873z" fill="#ff9eb1"/><path id="XMLID_1344_" d="m307.865 107.709c14.58 6.366 25.791 17.243 32.718 30.279 3.34 6.286 11.314 8.557 17.529 5.087 17.866-9.975 40.015-11.784 60.215-2.964.811.354 1.612.722 2.402 1.104 6.831 3.303 14.211-3.543 11.074-10.451-10.35-22.794-28.831-41.989-53.58-52.795-34.228-14.945-72.072-10.193-100.887 9.272-6.528 4.41-3.547 14.692 4.331 14.795 8.767.115 17.657 1.944 26.198 5.673z" fill="#b8ecbc"/><path id="XMLID_65_" d="m438.726 145.047c4.107-5.224 5.001-12.21 2.183-18.417-10.963-24.145-29.824-43.621-53.46-55.377 6.993-20.432 8.24-42.159 3.551-63.406-1.19-5.392-6.523-8.801-11.92-7.609-5.393 1.19-8.8 6.527-7.61 11.92 3.825 17.327 2.881 35.041-2.661 51.747-32.792-9.755-68.182-4.462-97.07 15.05-6.167 4.165-9.097 11.543-7.581 18.731-21.927 17.6-36.579 43.03-40.652 71.036-5.493 37.768-16.104 74.842-31.539 110.19-25.471 58.333-62.475 109.004-109.985 150.605-16.596 14.533-20.854 37.481-10.593 57.105 8.37 16.006 24.066 25.342 41.185 25.341 3.866 0 7.806-.477 11.748-1.459 64.647-16.119 125.917-46.976 177.185-89.234 53.74-44.297 95.445-99.226 123.955-163.262 5.411-12.152 10.331-24.668 14.625-37.198 8.503-24.817 7.975-51.441-1.361-75.763zm-64.505-57.914c19.916 8.696 36.132 23.85 46.144 42.987-21.964-8.901-46.312-7.399-67.128 4.224-.905.505-1.775.361-2.213.233-.503-.148-1.191-.491-1.611-1.281-8.309-15.637-21.292-27.654-37.547-34.751-7.675-3.352-15.698-5.424-23.922-6.185 26.277-15.505 58.099-17.531 86.277-5.227zm46.945 127.195c-4.103 11.973-8.804 23.932-13.975 35.546-53.945 121.162-158.811 209.086-287.708 241.225-15.142 3.772-25.823-5.044-30.371-13.743-4.549-8.701-5.696-22.51 6.045-32.791 49.742-43.557 88.48-96.598 115.138-157.648 16.148-36.984 27.252-75.782 33.002-115.315 3.516-24.181 15.992-45.247 35.314-59.84.953.168 1.93.262 2.923.275 7.696.102 15.208 1.729 22.328 4.838 12.076 5.273 21.719 14.197 27.889 25.808 2.871 5.403 7.708 9.339 13.618 11.081 2.155.635 4.349.949 6.527.949 3.844 0 7.64-.979 11.089-2.904 15.935-8.896 34.647-9.819 51.345-2.528.69.301 4.273 1.875 5.413 2.178 7.936 20.147 8.482 42.266 1.423 62.869z" fill="#ff5d7d"/></g><path id="XMLID_30_" d="m272.57 181.528c-10.874 89.334-51.415 170.556-112.196 232.47-7.126 7.259 2.179 18.544 10.663 12.934 78.534-51.936 126.947-144.08 118.331-244.492-.02-.23-.04-.461-.06-.691-.887-10.046-15.519-10.233-16.738-.221z" fill="#fff"/></g></svg>