<svg id="Capa_1" enable-background="new 0 0 512 512" height="512" viewBox="0 0 512 512" width="512" xmlns="http://www.w3.org/2000/svg"><g id="XMLID_2215_"><g id="XMLID_2108_"><g id="XMLID_2019_"><path d="m218.488 124.712c-.124-2.279-.186-4.575-.186-6.885 0-43.666 22.39-82.103 56.316-104.456 6.691-4.408 15.345-4.497 22.192-.336 10.066 6.117 12.999 19.312 6.613 29.21-8.763 13.583-13.849 29.762-13.849 47.128 0 11.153 2.098 21.816 5.92 31.616z" fill="#e0ef9b"/></g><g id="XMLID_1990_"><ellipse cx="404.505" cy="298.99" fill="#ffbe90" rx="97.495" ry="182.667"/></g><g id="XMLID_1988_"><ellipse cx="336" cy="298.99" fill="#ffbe90" rx="97.495" ry="194"/></g><g id="XMLID_988_"><ellipse cx="107.495" cy="298.99" fill="#ffbe90" rx="97.495" ry="182.667"/></g><g id="XMLID_986_"><ellipse cx="176" cy="298.99" fill="#ffbe90" rx="97.495" ry="194"/></g><g id="XMLID_1929_"><ellipse cx="256" cy="301.281" fill="#ffbe90" rx="97.495" ry="200.709"/></g><g id="XMLID_1088_"><path d="m482.267 165.117c-20.236-37.914-47.852-58.794-77.762-58.794-8.598 0-17.093 1.754-25.33 5.22-13.343-10.851-27.954-16.553-43.175-16.553-12.018 0-23.657 3.542-34.723 10.518-1.124-5.277-1.704-10.677-1.704-16.134 0-14.861 4.237-29.284 12.252-41.707 4.588-7.111 6.075-15.554 4.186-23.773-1.875-8.163-6.851-15.054-14.008-19.403-10.138-6.16-23.046-5.952-32.888.531-34.181 22.521-56.132 59.126-60.136 99.407-10.542-6.268-21.591-9.439-32.979-9.439-15.221 0-29.832 5.702-43.175 16.553-8.237-3.466-16.732-5.22-25.33-5.22-29.91 0-57.526 20.88-77.762 58.794-19.173 35.924-29.733 83.468-29.733 133.873s10.56 97.949 29.733 133.873c20.236 37.914 47.852 58.794 77.762 58.794 8.599 0 17.091-1.757 25.327-5.223 13.343 10.853 27.956 16.556 43.178 16.556 11.84 0 23.345-3.452 34.297-10.254 14.008 12.609 29.507 19.254 45.703 19.254s31.695-6.644 45.703-19.254c10.952 6.801 22.456 10.254 34.297 10.254 15.222 0 29.835-5.703 43.178-16.556 8.236 3.466 16.728 5.223 25.327 5.223 29.91 0 57.526-20.88 77.762-58.794 19.173-35.924 29.733-83.468 29.733-133.873s-10.56-97.949-29.733-133.873zm-202.148-143.395c3.419-2.253 7.932-2.309 11.498-.141 2.505 1.522 4.247 3.934 4.903 6.79.669 2.914.137 5.915-1.5 8.452-10.105 15.662-15.446 33.834-15.446 52.55 0 2.058.079 4.108.207 6.152-7.685-3.265-15.644-4.954-23.781-4.954-8.807 0-17.405 1.976-25.672 5.792 5.752-30.295 23.536-57.342 49.791-74.641zm-232.742 401.724c-17.654-33.078-27.377-77.277-27.377-124.456s9.723-91.378 27.377-124.456c16.593-31.09 37.943-48.211 60.118-48.211 3.215 0 6.427.386 9.62 1.11-6.857 8.432-13.228 18.422-18.99 29.888-19.101 38.008-29.621 88.32-29.621 141.669s10.52 103.661 29.621 141.669c5.762 11.465 12.132 21.455 18.989 29.887-3.193.724-6.404 1.111-9.619 1.111-22.174 0-43.524-17.121-60.118-48.211zm41.128-124.456c0-99.738 40.068-184 87.495-184 7.755 0 15.44 2.272 22.942 6.753-7.583 9.188-14.594 20.311-20.877 33.246-19.062 39.243-29.561 91.197-29.561 146.292s10.498 107.049 29.561 146.292c5.579 11.486 11.735 21.538 18.353 30.081-6.702 3.54-13.54 5.336-20.419 5.336-47.426 0-87.494-84.262-87.494-184zm80 2.291c0-103.375 40.068-190.709 87.495-190.709s87.495 87.334 87.495 190.709-40.068 190.709-87.495 190.709-87.495-87.334-87.495-190.709zm147.076 176.373c6.618-8.543 12.774-18.595 18.353-30.081 19.062-39.243 29.561-91.197 29.561-146.292s-10.498-107.049-29.561-146.292c-6.283-12.935-13.294-24.057-20.877-33.246 7.502-4.481 15.188-6.753 22.942-6.753 47.427 0 87.495 84.262 87.495 184s-40.068 184-87.495 184c-6.878 0-13.715-1.796-20.418-5.336zm149.042-54.208c-16.593 31.09-37.943 48.211-60.118 48.211-3.215 0-6.426-.387-9.619-1.111 6.857-8.432 13.227-18.422 18.989-29.887 19.101-38.008 29.621-88.32 29.621-141.669s-10.52-103.661-29.621-141.669c-5.762-11.466-12.132-21.456-18.99-29.888 3.193-.724 6.405-1.11 9.62-1.11 22.174 0 43.524 17.121 60.118 48.211 17.654 33.078 27.377 77.277 27.377 124.456s-9.723 91.378-27.377 124.456z" fill="#ff7b79"/></g></g><g id="XMLID_137_"><path d="m211.724 349.336c-5.136 0-9.505-3.934-9.952-9.146-1.084-12.625-1.633-25.717-1.633-38.909 0-60.979 11.941-115.977 30.422-140.11 3.358-4.384 9.634-5.218 14.019-1.859 4.385 3.357 5.218 9.635 1.86 14.02-13.091 17.096-26.301 63.289-26.301 127.95 0 12.624.525 25.14 1.56 37.198.472 5.503-3.605 10.347-9.108 10.818-.291.025-.58.038-.867.038z" fill="#fff"/></g></g></svg>