<svg id="Capa_1" enable-background="new 0 0 512 512" height="512" viewBox="0 0 512 512" width="512" xmlns="http://www.w3.org/2000/svg"><g id="XMLID_1601_"><path id="XMLID_1589_" d="m154.932 222.48c-7.361 24.394-22.153 51.595-40.17 69.612l-99.04 99.04c-7.609 7.609-7.609 19.946 0 27.555l77.607 77.607c7.609 7.609 19.946 7.609 27.555 0l95.341-95.341c20.443-20.443 45.625-35.513 73.304-43.866l.007-.002zm14.232 120.371 24.065-61.379 31.326 10.631 5.988 26.683z" fill="#e0ef9b"/><path id="XMLID_1487_" d="m456.127 311.178c7.805-3.887 15.134-9.061 21.64-15.567 32.331-32.331 32.331-84.749 0-117.08-8.715-8.715-18.896-15.058-29.742-19.075-.586-22.644-9.493-45.113-26.775-62.394-18.362-18.362-42.58-27.274-66.642-26.787-3.715-13.191-10.743-25.646-21.124-36.026-32.331-32.331-84.749-32.331-117.08 0-6.506 6.506-11.68 13.834-15.567 21.64-32.474-25.178-79.363-22.883-109.179 6.933-32.331 32.331-32.331 84.749 0 117.08 17.111 17.111 39.848 25.16 62.257 24.16-1.001 22.409 7.048 45.146 24.159 62.257 12.6 12.6 28.255 20.266 44.579 23.045 2.779 16.324 10.445 31.979 23.045 44.579 17.111 17.111 39.848 25.16 62.257 24.159-1.001 22.408 7.048 45.146 24.159 62.257 32.331 32.331 84.749 32.331 117.08 0 29.816-29.818 32.111-76.707 6.933-109.181z" fill="#b8ecbc"/><path id="XMLID_1425_" d="m328.398 143.793c19.341 19.341 28.199 45.333 26.433 70.633 25.3-1.766 51.291 7.092 70.633 26.433.064.064-.063-.064 0 0 5.052 5.082 13.409-.354 10.612-6.952-3.073-7.248-7.563-14.038-13.472-19.947-13.438-13.438-31.43-19.525-49.008-18.299 1.227-17.578-4.861-35.57-18.299-49.008-5.909-5.909-12.699-10.4-19.947-13.472-6.598-2.797-12.034 5.56-6.952 10.612.064.064-.063-.063 0 0z" fill="#e7f9e9"/><path id="XMLID_1424_" d="m226.383 178.747c17.661 17.661 25.749 41.395 24.137 64.498 23.102-1.612 46.836 6.476 64.498 24.137.058.058-.058-.058 0 0 4.613 4.641 12.244-.323 9.69-6.348-2.806-6.618-6.906-12.819-12.302-18.214-12.271-12.271-28.7-17.829-44.751-16.709 1.12-16.051-4.439-32.48-16.709-44.751-5.396-5.396-11.596-9.496-18.214-12.302-6.026-2.555-10.99 5.076-6.349 9.689.058.058-.058-.058 0 0z" fill="#e7f9e9"/><g id="XMLID_1063_" fill="#89df8f"><path id="XMLID_1071_" d="m484.838 171.46c-7.944-7.944-17.071-14.269-27.199-18.857-2.134-23.668-12.404-45.698-29.318-62.612-17.957-17.956-41.312-28.311-66.43-29.599-4.629-12.425-11.916-23.795-21.336-33.215-17.526-17.526-40.827-27.177-65.612-27.177s-48.085 9.651-65.61 27.177c-4.409 4.409-8.345 9.229-11.768 14.403-35.942-21.379-82.732-16.076-112.979 14.17-17.524 17.525-27.176 40.826-27.176 65.61 0 24.785 9.652 48.086 27.177 65.611 15.927 15.927 37.159 25.465 59.455 26.963.164 2.444.442 4.871.798 7.284-7.539 24.002-21.665 48.319-37.148 63.802l-99.042 99.041c-11.495 11.496-11.495 30.201 0 41.697l77.607 77.606c5.569 5.569 12.973 8.636 20.849 8.636s15.28-3.067 20.848-8.636l95.34-95.339c18.808-18.809 42.12-32.897 67.499-40.849 2.414.355 4.843.634 7.288.798 1.5 22.294 11.037 43.528 26.962 59.453 17.525 17.525 40.826 27.177 65.611 27.177 24.784 0 48.085-9.651 65.61-27.177 30.246-30.246 35.549-77.037 14.17-112.979 5.176-3.423 9.994-7.357 14.403-11.767 36.179-36.177 36.179-95.042.001-131.221zm-275.687 222.423-95.34 95.339c-1.791 1.792-4.173 2.778-6.706 2.778s-4.915-.986-6.707-2.778l-77.606-77.606c-3.698-3.697-3.698-9.715 0-13.412l99.04-99.04c12.395-12.394 23.998-29.636 32.735-48.137 4.297 8.167 9.803 15.729 16.436 22.362 3.437 3.437 7.109 6.563 10.974 9.386l-22.123 56.425c-1.451 3.701-.572 7.91 2.239 10.722 1.911 1.911 4.469 2.929 7.073 2.929 1.227 0 2.463-.226 3.648-.69l56.427-22.123c2.823 3.865 5.949 7.538 9.386 10.975 6.623 6.623 14.172 12.122 22.325 16.417-19.171 9.081-36.77 21.422-51.801 36.453zm-9.638-101.042c4.726 2.055 9.635 3.72 14.692 4.969 1.25 5.057 2.914 9.966 4.97 14.692l-32.342 12.68zm252.156 9.387c-2.682 1.336-4.624 3.804-5.291 6.724-.667 2.921.011 5.987 1.846 8.354 22.378 28.862 19.755 70.124-6.102 95.979-13.747 13.748-32.026 21.319-51.468 21.319-19.443 0-37.722-7.571-51.469-21.319-14.409-14.407-22.151-34.359-21.241-54.738.125-2.805-.935-5.532-2.919-7.518-1.88-1.879-4.425-2.929-7.071-2.929-.148 0-.297.003-.446.01-20.397.922-40.33-6.832-54.739-21.241-10.712-10.711-17.717-24.262-20.258-39.186-.713-4.187-3.993-7.467-8.18-8.18-14.923-2.541-28.474-9.546-39.186-20.259-14.409-14.408-22.151-34.359-21.24-54.738.125-2.805-.934-5.532-2.919-7.518-1.985-1.984-4.716-3.045-7.517-2.919-20.378.926-40.33-6.831-54.74-21.241-13.748-13.746-21.319-32.024-21.319-51.468 0-19.442 7.571-37.721 21.319-51.468 25.856-25.856 67.271-28.375 96.134-5.996.099.077-.101-.073 0 0 2.319 1.818 4.71 3.902 6.805 5.996 13.161 13.16 20.72 30.648 21.285 49.243.165 5.417 4.607 9.696 9.99 9.696.103 0 .207-.002.31-.005 5.52-.167 9.859-4.778 9.692-10.299-.72-23.706-10.356-46.001-27.133-62.777-.721-.721-1.456-1.43-2.202-2.129 2.833-4.439 6.127-8.563 9.867-12.303 13.746-13.747 32.025-21.318 51.466-21.318 19.442 0 37.721 7.571 51.469 21.319 8.789 8.788 15.21 19.738 18.568 31.666 1.217 4.317 5.154 7.289 9.624 7.289.068 0 .137-.001.204-.002 22.483-.475 43.527 8.019 59.369 23.86 14.837 14.836 23.307 34.575 23.85 55.582.106 4.087 2.689 7.698 6.523 9.118 9.882 3.66 18.678 9.302 26.145 16.77 28.38 28.38 28.38 74.558 0 102.938-5.566 5.566-11.967 10.172-19.026 13.688z"/><path id="XMLID_1075_" d="m121.753 406.302-25.676 25.676c-1.875 1.876-2.929 4.419-2.929 7.071s1.054 5.195 2.929 7.071l9.872 9.872c1.953 1.952 4.512 2.929 7.071 2.929s5.119-.977 7.071-2.929c3.905-3.905 3.905-10.237 0-14.143l-2.801-2.801 18.605-18.604c3.905-3.905 3.906-10.237 0-14.143-3.906-3.903-10.237-3.903-14.142.001z"/><path id="XMLID_1076_" d="m106.9 382.924c2.559 0 5.119-.977 7.071-2.929l18.583-18.584c3.905-3.905 3.905-10.237 0-14.143-3.905-3.904-10.237-3.904-14.142 0l-11.512 11.514-1.613-1.613c-3.905-3.904-10.237-3.904-14.142 0-3.905 3.906-3.905 10.237 0 14.143l8.684 8.684c1.953 1.951 4.512 2.928 7.071 2.928z"/></g></g></svg>