<svg id="Capa_1" enable-background="new 0 0 512.056 512.056" height="512" viewBox="0 0 512.056 512.056" width="512" xmlns="http://www.w3.org/2000/svg"><g id="XMLID_1605_"><g id="XMLID_1881_"><path id="XMLID_1882_" d="m273.489 96.102c-22.238 0-44.496-2.118-66.154-6.294l8.33-43.204c18.921 3.648 38.375 5.498 57.824 5.498 54.394 0 107.742-14.551 154.278-42.081l22.402 37.87c-53.315 31.539-114.41 48.211-176.68 48.211z" fill="#e8d0c1"/></g><path id="XMLID_1880_" d="m330.943 165.188c-13.604 7.308-29.966 7.308-43.57 0-13.313-7.151-29.32-7.376-42.746-.441-75.103 38.79-126.81 116.541-128.348 206.532-1.223 71.585 55.939 131.266 127.532 130.733 23.951-.178 46.316-7.012 65.347-18.736 19.031 11.724 41.395 18.558 65.345 18.736 71.593.534 128.757-59.146 127.534-130.731-1.537-89.992-53.243-167.745-128.348-206.535-13.426-6.933-29.434-6.709-42.746.442z" fill="#b8ecbc"/><g id="XMLID_1492_"><path id="XMLID_1873_" d="m51.804 195.748c-14.47 4.357-25.947 15.517-30.538 29.914-25.678 80.534-7.261 172.075 55.285 236.796 49.753 51.483 132.374 53.264 182.621 2.263 16.81-17.062 27.792-37.708 32.959-59.456z" fill="#fff"/><path id="XMLID_847_" d="m512.035 371.111c-1.554-90.96-52.807-173.439-133.757-215.249-16.314-8.426-35.778-8.232-52.067.516-2.396 1.287-4.9 2.269-7.458 2.979.959-21.371 7.821-41.689 20.009-59.246 41-7.59 80.474-22.303 116.498-43.614 4.753-2.812 6.328-8.945 3.516-13.698l-22.402-37.87c-1.351-2.283-3.552-3.936-6.121-4.595-2.571-.661-5.295-.27-7.578 1.079-44.995 26.618-96.583 40.688-149.187 40.688-18.815 0-37.633-1.789-55.931-5.317-2.603-.501-5.301.051-7.498 1.538-2.196 1.486-3.712 3.784-4.215 6.389l-8.33 43.204c-1.045 5.423 2.503 10.667 7.926 11.712 22.281 4.296 45.176 6.475 68.048 6.475 13.312 0 26.569-.752 39.716-2.217-8.765 17.069-13.695 35.791-14.47 55.238-2.27-.688-4.493-1.596-6.631-2.744-16.287-8.749-35.751-8.942-52.067-.516-43.455 22.443-79.739 57.898-103.315 100.651l-78.347-68.303c-2.592-2.26-6.163-3.031-9.455-2.038-17.704 5.331-31.604 18.958-37.182 36.452-27.675 86.804-5.596 181.365 57.623 246.782 26.388 27.306 62.105 42.445 99.951 42.627.23.001-.23.001 0 .001 12.669 0 25.391-1.703 37.225-4.999 12.106 3.383 24.652 5.085 37.349 4.974 22.922-.17 45.362-6.083 65.273-17.15 19.91 11.067 42.865 16.979 65.787 17.15.345.003-.345.004 0 .004 36.341 0 71.015-14.298 96.798-40.33 26.631-26.887 40.941-62.606 40.292-100.573zm-292.96-289.376 4.546-23.577c16.413 2.619 33.144 3.944 49.868 3.944 52.827 0 104.707-13.292 150.681-38.521l12.226 20.666c-49.676 27.411-105.782 41.855-162.906 41.855-18.248 0-36.507-1.468-54.415-4.367zm30.14 91.897c10.453-5.398 22.948-5.262 33.425.366 2.346 1.26 4.761 2.322 7.217 3.226-40.366 38.877-68.085 88.803-79.61 143.389l-58.069-50.625c21.585-41.013 55.799-75.057 97.037-96.356zm-80.15 318.403c-32.41-.156-62.712-13.128-85.323-36.526-58.098-60.118-78.386-147.026-52.948-226.808 3.038-9.528 9.948-17.272 18.946-21.486l231.134 201.504c-5.386 18.396-15.276 35.232-28.826 48.984-21.962 22.292-51.391 34.46-82.983 34.332zm288.467-34.423c-22.202 22.417-51.664 34.602-82.956 34.401-21.304-.159-42.112-6.124-60.174-17.25-3.216-1.981-7.274-1.982-10.49 0-18.063 11.126-38.872 17.092-60.177 17.25-.936.006-1.869-.017-2.803-.032 9.127-5.639 17.641-12.404 25.362-20.24 17.518-17.78 29.816-39.967 35.564-64.163.859-3.615-.357-7.408-3.158-9.849l-70.983-61.883c9.518-57.423 38.21-109.965 81.438-149.294 54.088 49.212 84.949 118.71 84.949 192.054 0 5.523 4.477 10 10 10s10-4.477 10-10c0-76.317-31.025-148.765-85.654-201.38 2.458-.904 4.875-1.967 7.222-3.228 10.478-5.627 22.973-5.764 33.425-.366 74.403 38.428 121.51 114.229 122.938 197.821.559 32.532-11.696 63.131-34.503 86.159z" fill="#89df8f"/><g fill="#ffda8f"><ellipse id="XMLID_1871_" cx="132.094" cy="380.349" rx="15.5" ry="13" transform="matrix(.77 -.638 .638 .77 -212.377 171.893)"/><ellipse id="XMLID_1870_" cx="92.795" cy="326.849" rx="15.5" ry="13" transform="matrix(.914 -.406 .406 .914 -124.736 65.848)"/><ellipse id="XMLID_1532_" cx="188.094" cy="412.349" rx="15.5" ry="13" transform="matrix(.406 -.914 .914 .406 -265.107 416.781)"/></g></g></g></svg>