<svg id="Capa_1" enable-background="new 0 0 512.002 512.002" height="512" viewBox="0 0 512.002 512.002" width="512" xmlns="http://www.w3.org/2000/svg"><g id="XMLID_1844_"><path id="XMLID_1276_" d="m424.561 129.83c-46.282-34.862-111.937-27.228-148.68 17.576-29.548 36.03-74.411 59.018-124.643 59.018-78.004.001-141.238 63.235-141.238 141.238s63.234 141.238 141.238 141.238c152.624 0 280.465-106.11 313.775-248.584 9.707-41.519-6.394-84.832-40.452-110.486z" fill="#b5b3ee"/><path id="XMLID_1345_" d="m502 53.16-17.338-30.059c-19.018 4.975-35.635 17.051-46.208 33.791-5.303 8.395-15.551 12.232-25.111 9.547-3.663-1.029-7.413-1.881-11.244-2.543-59.009-10.21-115.198 27.951-127.957 85.842 6.173 2.251 12.631 3.989 19.334 5.149 15.519 2.685 30.842 2.018 45.233-1.467-.004.022-.009.043-.013.064-4.621 26.708.67 52.837 13.21 74.625 26.887-2.768 51.536-15.269 69.659-34.44 6.741 23.497 21.084 44.215 40.655 58.809 15.614-15.686 26.733-36.157 30.793-59.622 5.28-30.515-2.379-60.275-19.01-83.667-4.643-6.531-5.355-15.093-1.992-22.366 6.549-14.168 17.113-25.769 29.989-33.663z" fill="#e0ef9b"/><path id="XMLID_1018_" d="m510.662 48.163-17.339-30.059c-2.251-3.901-6.831-5.814-11.193-4.678-21.669 5.67-40.183 19.209-52.132 38.126-2.898 4.59-8.636 6.751-13.95 5.26-4.004-1.125-8.123-2.058-12.244-2.771-63.206-10.935-123.559 28.749-138.756 90.665-28.744 32.883-70.118 51.718-113.81 51.718-83.393.001-151.238 67.845-151.238 151.239 0 83.392 67.845 151.237 151.237 151.237 37.404 0 74.122-6.172 109.133-18.343 33.846-11.766 65.439-28.891 93.905-50.899 55.893-43.213 97.141-104.057 116.444-171.601 16.869-17.517 27.981-39.419 32.146-63.497 5.567-32.172-1.789-64.549-20.713-91.165-2.537-3.568-2.945-8.312-1.065-12.377 5.617-12.15 14.656-22.294 26.139-29.333 4.621-2.832 6.144-8.828 3.436-13.522zm-359.425 430.737c-72.364 0-131.237-58.873-131.237-131.237 0-72.365 58.873-131.238 131.237-131.238 47.958 0 93.449-20.039 125.835-55.179 4.815 1.46 9.735 2.635 14.699 3.494 11.851 2.051 23.737 2.353 35.488.91-1.315 23.456 4.194 46.971 15.979 67.446 1.97 3.421 5.769 5.359 9.691 4.959 23.657-2.436 46.021-11.814 64.36-26.786 7.475 17.172 18.901 32.556 33.231 44.67-39.179 131.61-161.308 222.961-299.283 222.961zm311.697-396.274c-4.881 10.56-3.763 22.958 2.919 32.358 15.812 22.238 21.957 49.288 17.307 76.166-3.061 17.689-10.594 33.978-21.943 47.598-14.229-12.748-24.762-29.447-30.038-47.838-.99-3.452-3.756-6.108-7.245-6.958-.785-.191-1.579-.284-2.367-.284-2.715 0-5.354 1.107-7.267 3.13-15.237 16.119-35.224 26.787-56.844 30.467-9.393-19.133-12.56-40.905-8.927-61.954.007-.037.014-.072.02-.103.605-3.329-.515-6.738-2.975-9.062-2.462-2.322-5.931-3.244-9.218-2.446-13.517 3.271-27.368 3.72-41.175 1.333-2.998-.519-5.979-1.173-8.92-1.956 15.134-48.022 63.539-78.081 114.133-69.328 3.449.597 6.896 1.377 10.245 2.318 13.769 3.864 28.682-1.823 36.269-13.834 7.885-12.481 19.471-21.935 33.117-27.156l8.716 15.109c-11.067 8.586-19.896 19.654-25.807 32.44z" fill="#b278d3"/><ellipse id="XMLID_1811_" cx="117.981" cy="305.654" fill="#fff" rx="42.467" ry="30.639" transform="matrix(.808 -.589 .589 .808 -157.344 128.059)"/></g></svg>