<svg id="Capa_1" enable-background="new 0 0 489.896 489.896" height="512" viewBox="0 0 489.896 489.896" width="512" xmlns="http://www.w3.org/2000/svg"><g id="XMLID_318_"><path id="XMLID_1126_" d="m152.495 244.239c0-71.765 58.177-129.943 129.941-129.944 86.317-.002 156.44 70.121 156.438 156.438-.001 69.919-45.874 129.124-109.164 149.162-38.355 12.143-73.848 32.375-103.094 60.001-16.114-29.738-47.285-43.726-83.204-60.122-79.388-36.238-114.367-129.971-78.129-209.359 30.88-67.65 103.509-103.014 173.435-89.58" fill="#ffbe90"/><path id="XMLID_1123_" d="m319.131 91.461c-21.706 21.706-52.266 28.562-77.959 20.072-8.49-25.694-1.634-56.253 20.072-77.959s52.266-28.562 77.959-20.072c8.489 25.693 1.634 56.253-20.072 77.959z" fill="#b8ecbc"/><path id="XMLID_802_" d="m400.096 153.074c-23.472-23.472-52.696-39.069-84.473-45.478 3.715-2.724 7.259-5.744 10.579-9.064 23.574-23.574 32.404-58.182 22.496-88.167-.993-3.006-3.352-5.365-6.358-6.358-29.986-9.909-64.594-1.078-88.168 22.496-8.75 8.75-15.464 19.023-19.947 30.013-1.115-2.012-2.274-4.003-3.508-5.955-11.72-18.529-28.274-33.475-47.874-43.22-4.946-2.46-10.948-.443-13.406 4.502-2.459 4.945-.443 10.947 4.502 13.406 32.522 16.171 53.262 48.031 55.056 83.968-32.782-3.899-66.515 2.029-96.164 17.084-34.187 17.359-60.69 45.009-76.645 79.96-38.47 84.277-1.204 184.139 83.074 222.609l1.129.515c33.85 15.449 63.084 28.792 77.435 55.274 1.48 2.731 4.145 4.62 7.212 5.11.527.084 1.055.125 1.58.125 2.533 0 4.996-.964 6.866-2.73 27.413-25.895 61.731-45.86 99.246-57.737 33.457-10.593 62.268-31.146 83.32-59.44 21.475-28.861 32.826-63.183 32.826-99.256.001-44.416-17.322-86.202-48.778-117.657zm-131.782-112.429c16.974-16.974 41.119-24.158 62.793-19.048 5.111 21.678-2.074 45.819-19.048 62.792-13.751 13.751-32.208 21.077-50.247 20.645l27.974-27.974c3.905-3.905 3.905-10.237 0-14.143s-10.237-3.905-14.143 0l-27.973 27.973c-.431-18.038 6.894-36.494 20.644-50.245zm58.377 369.716c-36.386 11.521-70.017 30.147-97.968 54.179-18.371-25.206-47.224-38.375-80.031-53.348l-1.128-.515c-35.965-16.417-63.385-45.857-77.208-82.898-13.823-37.04-12.394-77.246 4.023-113.212 23.864-52.279 74.727-84.985 130.17-86.542-37.402 25.147-62.056 67.855-62.056 116.214 0 5.523 4.477 10 10 10s10-4.477 10-10c0-66.136 53.806-119.943 119.942-119.944 39.076-.001 75.839 15.242 103.517 42.92 27.679 27.678 42.921 64.441 42.92 103.517.001 64.167-41.063 120.279-102.181 139.629z" fill="#ff7b79"/><path id="XMLID_622_" d="m388.883 266.794c-1.039-56.476-47.055-102.468-103.53-103.496-2.095-.038-4.176-.015-6.242.068-4.67.188-5.646 6.696-1.247 8.274 55.406 19.876 95.037 72.965 95.037 135.209-.007 4.691 6.435 6.123 8.209 1.781 5.257-12.87 8.046-27.011 7.773-41.836z" fill="#fff"/></g></svg>