<svg id="Capa_1" enable-background="new 0 0 511.982 511.982" height="512" viewBox="0 0 511.982 511.982" width="512" xmlns="http://www.w3.org/2000/svg"><g id="XMLID_21_"><path id="XMLID_31_" d="m374.474 202.817c9.263 9.302 26.011 15.401 44.58 16.903 30.356 2.456 56.164-10.385 57.644-28.681.769-9.499-5.183-18.596-15.322-25.497 25.581-7.499 42.96-24.556 40.345-41.323-2.096-13.44-16.487-23.145-35.84-26.137 19.018-22.871 24.161-49.82 10.999-62.982s-40.111-8.019-62.982 10.999c-2.992-19.353-12.697-33.744-26.137-35.84-16.767-2.615-33.824 14.764-41.323 40.345-6.9-10.139-15.997-16.091-25.497-15.322-18.296 1.48-31.137 27.288-28.681 57.644 1.529 18.9 7.848 35.886 17.404 45.07z" fill="#b8ecbc"/><path id="XMLID_138_" d="m361.802 164.627c19.338 5.031 40.44 1.51 57.298-10.58 2.572-1.844.947-5.9-2.186-5.455-9.928 1.41-24.979 2.823-37.539.932.962-.925 11.486-11.832 15.427-16.557 11.952 2.048 24.497-.202 35.144-6.755 2.751-1.693 1.256-5.955-1.952-5.571-6.969.833-16.06 1.425-23.925.329 5.405-7.555 10.238-15.393 14.493-23.456 1.386-2.627-1.465-5.479-4.093-4.093-8.064 4.255-15.901 9.088-23.456 14.493-1.097-7.865-.504-16.955.329-23.925.383-3.208-3.878-4.703-5.571-1.952-6.553 10.647-8.803 23.192-6.755 35.144-4.725 3.941-15.632 14.465-16.557 15.427-1.891-12.559-.478-27.611.932-37.539.445-3.133-3.611-4.758-5.455-2.186-12.091 16.858-15.612 37.96-10.58 57.298z" fill="#e7f9e9"/><path id="XMLID_1967_" d="m348.563 321.137c43.553-43.553 43.553-114.166 0-157.719s-114.166-43.553-157.719 0-217.475 288.089-173.922 331.641 288.088-130.369 331.641-173.922z" fill="#ffda8f"/><g fill="#ff9171"><path id="XMLID_1417_" d="m214.944 139.676c-1.854 1.625-3.671 3.314-5.44 5.082-4.651 4.651-10.792 11.6-17.993 20.345 7.909 10.604 16.662 20.778 26.293 30.408 3.931 3.931 7.952 7.717 12.056 11.359 5.848 5.19 14.46-1.795 10.531-8.556-10.859-18.689-19.339-38.383-25.447-58.638z"/><path id="XMLID_80_" d="m83.267 305.773c-6.044 9.194-12.046 18.556-17.909 27.975 4.46 5.18 9.141 10.235 14.054 15.147 7.138 7.138 14.571 13.798 22.26 19.985 5.836 4.696 13.921-1.91 10.422-8.534z"/><path id="XMLID_22_" d="m148.02 216.136c-6.044 9.194-12.046 18.556-17.909 27.975 4.46 5.18 9.141 10.235 14.054 15.147 7.138 7.138 14.571 13.798 22.26 19.985 5.836 4.696 13.921-1.91 10.422-8.534z"/><path id="XMLID_954_" d="m335.13 275.517c9.321 9.321 19.153 17.812 29.389 25.518 5.811-9.359 10.108-19.391 12.887-29.746-13.294-6.883-32.529-16.785-53.181-27.802-6.621-3.532-13.282 4.581-8.56 10.412 6.04 7.461 12.527 14.679 19.465 21.618z"/><path id="XMLID_674_" d="m201.246 366.479c-6.625-3.534-13.293 4.572-8.568 10.409 6.04 7.46 12.527 14.678 19.465 21.616 5.32 5.32 10.812 10.363 16.444 15.154 9.288-6.399 18.258-12.734 26.778-18.891-13.316-6.898-32.977-17.009-54.119-28.288z"/><path id="XMLID_670_" d="m113.59 439.134c-6.621-3.532-13.285 4.578-8.563 10.41 6.04 7.46 12.528 14.679 19.466 21.618.453.453.914.895 1.37 1.345 8.333-4.206 16.865-8.747 25.507-13.543-11.106-5.758-24.134-12.551-37.78-19.83z"/></g><path id="XMLID_1000_" d="m511.602 122.679c-2.123-13.612-12.868-24.639-29.113-30.64 14.751-24.211 15.799-49.673 1.463-64.01-14.336-14.336-39.798-13.288-64.01 1.463-6.001-16.245-17.027-26.99-30.641-29.113-17.854-2.778-35.639 9.924-46.487 31.957-6.99-5.172-14.8-7.659-22.679-7.021-24.165 1.956-40.787 32.009-37.842 68.419.839 10.367 2.96 20.009 6.133 28.45-6.14-.944-12.394-1.431-18.723-1.431-32.46 0-62.978 12.641-85.931 35.594-23.701 23.703-79.272 98.414-121.114 167.724-24.609 40.763-42.256 75.582-52.451 103.489-13.491 36.927-13.607 61.32-.356 74.57 6.567 6.567 15.871 9.851 28.081 9.851 12.427 0 27.864-3.401 46.489-10.206 27.907-10.195 62.727-27.842 103.489-52.451 69.31-41.843 144.021-97.413 167.724-121.115 22.953-22.953 35.594-53.471 35.594-85.931 0-6.327-.487-12.578-1.43-18.716 8.445 3.17 18.096 5.288 28.449 6.126 2.81.227 5.575.338 8.299.338 32.576 0 58.315-15.879 60.12-38.18.637-7.874-1.848-15.687-7.022-22.679 22.033-10.847 34.743-28.62 31.958-46.488zm-170.11 191.387c-19.778 19.778-89.53 73.228-163.917 118.136-39.664 23.945-73.314 41.033-100.016 50.788-38.712 14.142-50.357 8.208-53.565 4.998-3.209-3.208-9.145-14.851 4.998-53.565 9.755-26.701 26.843-60.352 50.788-100.016 44.908-74.387 98.357-144.139 118.136-163.917 19.175-19.176 44.67-29.736 71.788-29.736s52.613 10.561 71.788 29.736c19.176 19.175 29.736 44.67 29.736 71.788s-10.561 52.613-29.736 71.788zm117.071-158.119c-3.713 1.089-6.464 4.22-7.065 8.041-.603 3.821 1.054 7.646 4.252 9.823 7.415 5.046 11.418 11.032 10.981 16.422-.886 10.955-20.357 21.672-46.87 19.52-15.805-1.278-30.027-6.338-37.531-13.277-6.032-14.837-15.028-28.461-26.695-40.128-11.668-11.668-25.294-20.665-40.133-26.697-6.951-7.565-11.994-21.721-13.272-37.529-2.146-26.517 8.564-45.984 19.52-46.87 5.415-.431 11.376 3.566 16.422 10.981 2.177 3.199 6.001 4.855 9.823 4.252 3.821-.602 6.952-3.353 8.041-7.065 5.971-20.368 19.229-34.979 30.186-33.277 8.432 1.314 15.417 12.104 17.795 27.487.551 3.56 2.974 6.549 6.343 7.824 3.369 1.273 7.163.642 9.934-1.664 18.716-15.563 40.467-20.666 49.518-11.616 9.05 9.05 3.947 30.801-11.616 49.518-2.304 2.77-2.939 6.564-1.664 9.934s4.265 5.792 7.824 6.343c15.384 2.378 26.173 9.363 27.487 17.794 1.705 10.954-12.912 24.213-33.28 30.184z" fill="#ff7b79"/></g></svg>