<svg id="Capa_1" enable-background="new 0 0 511.925 511.925" height="512" viewBox="0 0 511.925 511.925" width="512" xmlns="http://www.w3.org/2000/svg"><g id="XMLID_1794_"><path id="XMLID_1807_" d="m349.522 320.751c9.346 9.346 24.499 9.346 33.845 0 7.026-7.026 8.767-17.333 5.229-25.989 8.655 3.538 18.962 1.797 25.989-5.229 7.918-7.918 9.101-19.994 3.602-29.185 7.634 1.589 15.892-.566 21.818-6.492 7.166-7.166 8.816-17.74 4.992-26.499 6.543.347 13.2-1.951 18.198-6.949 8.179-8.179 9.2-20.806 3.063-30.096 4.837-.755 9.489-2.97 13.215-6.696 9.043-9.043 9.309-23.508.851-32.904 4.29-.954 8.372-3.077 11.709-6.414 9.346-9.346 9.346-24.499 0-33.845-.663-.663-1.361-1.265-2.078-1.834 1.775-1.025 3.458-2.271 4.977-3.789 9.346-9.346 9.346-24.499 0-33.845-3.871-3.871-8.74-6.113-13.778-6.777 6.861-9.363 6.088-22.571-2.374-31.033s-21.67-9.235-31.033-2.374c-.664-5.038-2.907-9.907-6.777-13.778-9.346-9.346-24.499-9.346-33.845 0-1.518 1.518-2.764 3.201-3.789 4.977-.568-.717-1.171-1.415-1.834-2.078-9.346-9.346-24.499-9.346-33.845 0-3.338 3.338-5.461 7.42-6.414 11.709-9.396-8.458-23.86-8.193-32.904.851-3.726 3.726-5.941 8.379-6.696 13.215-9.29-6.137-21.917-5.117-30.096 3.063-4.998 4.998-7.296 11.655-6.949 18.198-8.759-3.824-19.332-2.174-26.499 4.992-5.926 5.926-8.081 14.184-6.492 21.818-9.192-5.499-21.267-4.316-29.185 3.602-7.026 7.026-8.767 17.333-5.229 25.989-8.655-3.538-18.962-1.797-25.989 5.229-9.346 9.346-9.346 24.499 0 33.845l-6.467 164.785z" fill="#ffda8f"/><g id="XMLID_1801_"><path id="XMLID_1805_" d="m155.265 356.69 14.467-14.467c63.906-59.602 164.398-57.92 226.677 4.359-48.75 15.604-93.067 42.628-129.261 78.822l-38.483 38.483c-49.639 49.639-130.487 51.08-180.492 1.81-23.168-22.827-35.726-52.301-37.692-82.339 47.515 21.983 105.663 12.453 144.784-26.668z" fill="#b8ecbc"/><path id="XMLID_1803_" d="m155.145 356.81 14.467-14.467c59.602-63.906 57.92-164.398-4.359-226.677-15.604 48.75-42.628 93.067-78.822 129.261l-38.483 38.483c-49.639 49.639-51.08 130.487-1.81 180.492 22.827 23.168 52.301 35.726 82.339 37.692-21.983-47.515-12.452-105.663 26.668-144.784z" fill="#b8ecbc"/><path id="XMLID_1290_" d="m502.003 63.914c-2.18-2.18-4.604-4.024-7.222-5.512 2.896-11.287-.197-23.565-8.93-32.298-8.733-8.732-21.011-11.827-32.298-8.93-1.487-2.618-3.333-5.043-5.512-7.223-12.506-12.503-32.426-13.189-45.744-2.051-13.067-7.998-30.413-6.347-41.711 4.95-1.432 1.432-2.725 2.981-3.868 4.63-12.01-4.315-25.9-1.618-35.451 7.932-2.154 2.154-3.985 4.555-5.465 7.148-11.048-2.416-22.974.775-31.327 9.129-3.752 3.752-6.529 8.308-8.174 13.259-9.255-.385-18.414 3.071-25.273 9.931-4.389 4.389-7.411 9.787-8.889 15.601-9.696-.806-19.546 2.577-26.788 9.82-5.86 5.859-9.242 13.464-9.852 21.366-7.902.61-15.506 3.991-21.365 9.852-.021.021-.041.044-.062.066-3.678-4.495-7.592-8.833-11.748-12.989-2.466-2.466-6.038-3.47-9.427-2.647-3.389.821-6.105 3.35-7.168 6.67-15.051 47.022-41.459 90.329-76.369 125.238l-38.483 38.483c-53.766 53.767-54.601 141.056-1.862 194.582 23.66 24.015 55.199 38.463 88.806 40.663 3.058.201 6.109.312 9.154.312 36.897-.001 72.47-14.644 98.762-40.936l38.483-38.483c34.909-34.91 78.216-61.318 125.238-76.369 3.321-1.063 5.849-3.779 6.67-7.169.821-3.389-.182-6.961-2.647-9.427-4.155-4.155-8.492-8.069-12.987-11.746 5.826-5.853 9.188-13.432 9.797-21.309 7.902-.61 15.506-3.991 21.366-9.852 7.243-7.243 10.63-17.092 9.82-26.789 5.813-1.479 11.213-4.501 15.601-8.889 6.861-6.86 10.31-16.018 9.932-25.274 4.951-1.645 9.507-4.422 13.258-8.173 8.353-8.354 11.547-20.279 9.129-31.327 2.595-1.48 4.996-3.311 7.149-5.465 9.55-9.551 12.248-23.442 7.931-35.451 1.648-1.143 3.197-2.436 4.629-3.867 11.296-11.297 12.947-28.644 4.95-41.71 11.137-13.318 10.454-33.24-2.053-45.746zm-448.742 392.969c-45.056-45.728-44.268-120.377 1.758-166.402l38.483-38.483c33.117-33.116 59.043-73.331 75.63-117.119 47.777 58.852 45.893 143.987-6.712 200.514l-14.346 14.346c-37.015 37.016-50.093 91.315-34.975 139.712-22.607-4.661-43.437-15.921-59.838-32.568zm206.816-38.55-38.483 38.483c-22.952 22.953-54.149 35.539-86.399 35.06-17.362-43.364-6.877-94.098 27.022-127.996l.105-.105c.005-.005.01-.009.015-.014l14.347-14.348.001-.001c56.528-52.605 141.661-54.487 200.512-6.71-43.789 16.589-84.004 42.515-117.12 75.631zm223.668-301.875c.489.387.888.736 1.217 1.065 5.432 5.433 5.432 14.272 0 19.704-1.859 1.859-4.213 3.147-6.807 3.724-3.472.771-6.272 3.328-7.355 6.715s-.287 7.095 2.092 9.737c4.955 5.504 4.74 13.913-.49 19.144-2.082 2.082-4.741 3.426-7.688 3.887-3.363.525-6.228 2.726-7.604 5.84-1.375 3.113-1.072 6.713.804 9.553 3.625 5.485 2.872 12.851-1.791 17.513-2.814 2.813-6.572 4.268-10.597 4.033-3.452-.18-6.773 1.439-8.749 4.29-1.975 2.85-2.333 6.52-.945 9.697 2.312 5.298 1.175 11.353-2.899 15.426-3.326 3.326-8.079 4.734-12.709 3.773-3.889-.811-7.884.758-10.186 3.992s-2.472 7.524-.434 10.932c3.281 5.485 2.421 12.468-2.092 16.98-3.98 3.981-9.92 5.176-15.133 3.044-3.728-1.521-8.006-.662-10.855 2.186-2.848 2.849-3.709 7.127-2.185 10.855 2.131 5.213.936 11.153-3.045 15.134-.763.764-1.62 1.417-2.529 1.981-26.671-16.971-57.59-26.367-89.902-26.963-27.056-.511-53.305 5.183-77.067 16.41 11.172-23.724 16.837-49.918 16.338-76.9-.596-32.3-9.985-63.206-26.944-89.871.583-.967 1.276-1.872 2.083-2.679 3.98-3.981 9.918-5.177 15.133-3.044 3.728 1.521 8.007.662 10.855-2.186 2.848-2.849 3.709-7.127 2.185-10.855-2.131-5.213-.937-11.153 3.044-15.134 4.511-4.512 11.494-5.372 16.98-2.092 3.406 2.04 7.696 1.87 10.932-.434 3.234-2.301 4.801-6.299 3.992-10.186-.964-4.632.447-9.383 3.773-12.709 4.075-4.074 10.129-5.213 15.428-2.898 3.179 1.389 6.849 1.03 9.698-.946 2.85-1.976 4.473-5.287 4.289-8.749-.213-4.019 1.219-7.781 4.034-10.596 4.661-4.663 12.026-5.415 17.512-1.79 2.84 1.875 6.44 2.177 9.554.804 3.114-1.376 5.314-4.241 5.839-7.604.46-2.946 1.804-5.604 3.887-7.688 5.231-5.229 13.639-5.441 19.143-.49 2.643 2.379 6.35 3.175 9.737 2.093 3.387-1.083 5.944-3.884 6.715-7.354.577-2.595 1.865-4.949 3.724-6.809 5.432-5.432 14.271-5.432 19.701-.003.333.333.684.733 1.075 1.226 2.058 2.594 5.261 3.999 8.569 3.757 3.302-.243 6.269-2.105 7.925-4.973.639-1.108 1.379-2.086 2.199-2.905 5.434-5.433 14.272-5.431 19.703-.001 2.169 2.169 3.529 4.94 3.935 8.016.462 3.503 2.738 6.501 5.987 7.889s6.989.958 9.838-1.131c5.484-4.019 13.245-3.427 18.05 1.38 4.806 4.806 5.398 12.565 1.379 18.05-2.088 2.85-2.518 6.589-1.131 9.838s4.386 5.525 7.888 5.987c3.076.406 5.847 1.767 8.015 3.935 5.432 5.432 5.432 14.271.001 19.702-.821.82-1.799 1.562-2.908 2.202-2.868 1.656-4.729 4.625-4.972 7.928-.241 3.302 1.169 6.511 3.764 8.568z" fill="#ffa96b"/></g><g fill="#f5fade"><path id="XMLID_1800_" d="m381.315 110.023-3.657-3.657c-8.278-8.278-8.278-21.699 0-29.977 8.278-8.278 21.699-8.278 29.977 0l3.657 3.657c8.278 8.278 8.278 21.699 0 29.977-8.278 8.277-21.699 8.277-29.977 0z"/><path id="XMLID_1799_" d="m348.568 257.139-3.657-3.657c-8.278-8.278-8.278-21.699 0-29.977 8.278-8.278 21.699-8.278 29.977 0l3.657 3.657c8.278 8.278 8.278 21.699 0 29.977-8.277 8.278-21.699 8.278-29.977 0z"/><path id="XMLID_1797_" d="m270.472 245.141-3.657-3.657c-8.278-8.278-8.278-21.699 0-29.977 8.278-8.278 21.699-8.278 29.977 0l3.657 3.657c8.278 8.278 8.278 21.699 0 29.977-8.278 8.278-21.699 8.278-29.977 0z"/><path id="XMLID_1796_" d="m299.133 147.749-3.657-3.657c-8.278-8.278-8.278-21.699 0-29.977 8.278-8.278 21.699-8.278 29.977 0l3.657 3.657c8.278 8.278 8.278 21.699 0 29.977-8.278 8.278-21.699 8.278-29.977 0z"/><path id="XMLID_1795_" d="m332.767 181.383-3.657-3.657c-8.278-8.278-8.278-21.699 0-29.977 8.278-8.278 21.699-8.278 29.977 0l3.657 3.657c8.278 8.278 8.278 21.699 0 29.977-8.278 8.278-21.699 8.278-29.977 0z"/></g></g></svg>