<svg id="Capa_1" enable-background="new 0 0 512.012 512.012" height="512" viewBox="0 0 512.012 512.012" width="512" xmlns="http://www.w3.org/2000/svg"><g id="XMLID_1036_"><g id="XMLID_1068_"><ellipse id="XMLID_1037_" cx="200.405" cy="355.716" fill="#e0ef9b" rx="156.284" ry="134.176" transform="matrix(.707 -.707 .707 .707 -192.832 245.894)"/></g><g id="XMLID_1993_"><ellipse id="XMLID_2004_" cx="355.707" cy="155.662" fill="#e0ef9b" rx="134.176" ry="156.284" transform="matrix(.707 -.707 .707 .707 -5.885 297.115)"/><g id="XMLID_1301_" fill="#cbe558"><path id="XMLID_1303_" d="m152.415 269.086c-11.127 9.204-15.39 22.415-9.523 29.508s19.643 5.381 30.77-3.823 15.39-22.415 9.523-29.508-19.643-5.381-30.77 3.823z"/><path id="XMLID_1311_" d="m511.238 342.224c-10.174-24.531-22.363-48.104-36.419-70.556 26.396-27.312 39.207-64.753 36.09-105.71-3.134-41.175-22.046-81.037-53.253-112.244-31.208-31.208-71.07-50.12-112.244-53.254-41.746-3.178-79.848 10.184-107.286 37.621-41.288 41.289-48.467 105.378-23.68 162.19-42.071 2.122-83.608 21.113-115.99 53.495-31.207 31.208-50.119 71.069-53.253 112.244-2.682 35.228 6.414 67.859 25.807 93.679-20.571 12.631-42.22 23.705-64.83 33.082-5.102 2.116-7.522 7.967-5.406 13.068 1.597 3.85 5.318 6.172 9.241 6.172 1.276 0 2.575-.246 3.827-.766 24.53-10.174 48.102-22.362 70.554-36.417 24.619 23.793 57.467 36.548 93.704 36.548 3.964 0 7.971-.153 12.009-.46 41.174-3.134 81.036-22.046 112.244-53.253 22.4-22.4 38.708-49.66 47.16-78.833 6.766-23.351 8.295-47.064 4.571-69.429 7.95 1.203 15.898 1.814 23.767 1.814 29.74 0 58.364-8.638 81.815-26.184 12.637 20.579 23.717 42.236 33.097 64.854 1.596 3.85 5.318 6.172 9.241 6.172 1.276 0 2.575-.246 3.827-.766 5.102-2.115 7.523-7.966 5.407-13.067zm-223.027 101.298c-27.83 27.829-63.208 44.682-99.619 47.453-33.502 2.545-64.127-7.166-86.97-27.439 12.895-8.866 25.384-18.371 37.419-28.505 12.322-10.376 24.074-21.343 35.251-32.842 12.71-12.158 29.385-18.854 46.988-18.854 4.576 0 9.146.456 13.585 1.355 5.411 1.098 10.69-2.401 11.787-7.814s-2.402-10.69-7.815-11.787c-5.743-1.164-11.65-1.754-17.557-1.754-4.712 0-9.37.38-13.944 1.107 9.878-12.548 19.151-25.588 27.762-39.104 2.968-4.658 1.598-10.84-3.06-13.808-4.657-2.97-10.839-1.598-13.807 3.06-20.605 32.339-44.822 61.647-72.122 87.5 3.249-15.366 2.743-31.547-1.829-47.305-1.54-5.303-7.089-8.359-12.391-6.816-5.304 1.539-8.356 7.086-6.817 12.391 7.569 26.082 1.332 53.884-16.986 73.975-6.597 5.004-13.333 9.83-20.202 14.474-17.057-22.123-25.082-50.479-22.738-81.279 2.771-36.411 19.624-71.79 47.453-99.619 31.24-31.24 71.801-48.49 112.001-47.822 7.859 13.291 17.582 25.946 29.16 37.523 23.187 23.187 50.675 38.974 78.994 47.122 10.965 46.502-6.189 100.434-44.543 138.788zm-20.31-200.054c-57.036-57.036-64.049-142.828-15.632-191.244 20.971-20.972 49.502-32.221 81.197-32.221 3.44 0 6.92.133 10.429.399 36.411 2.771 71.789 19.624 99.618 47.453 27.83 27.829 44.682 63.208 47.454 99.619 2.55 33.506-7.165 64.128-27.438 86.97-8.866-12.895-18.371-25.384-28.506-37.419-10.38-12.326-21.351-24.083-32.855-35.264-12.149-12.708-18.841-29.379-18.841-46.976 0-4.575.456-9.146 1.355-13.584 1.097-5.413-2.402-10.69-7.815-11.787-5.406-1.094-10.689 2.402-11.787 7.814-1.164 5.743-1.754 11.65-1.754 17.557 0 4.71.375 9.367 1.102 13.94-12.547-9.876-25.585-19.148-39.098-27.758-4.658-2.969-10.839-1.598-13.807 3.06s-1.598 10.84 3.06 13.808c32.339 20.605 61.648 44.823 87.5 72.123-15.366-3.249-31.548-2.744-47.306 1.829-5.304 1.539-8.356 7.086-6.817 12.391 1.54 5.303 7.087 8.358 12.391 6.816 26.082-7.568 53.967-1.222 74.059 17.097 4.973 6.56 9.769 13.257 14.386 20.086-49.574 38.15-127.727 28.46-180.895-24.709z"/><path id="XMLID_1144_" d="m271.464 169.064c-8.437 3.681-10.595 17.394-4.82 30.629s17.295 20.98 25.732 17.299 10.595-17.394 4.82-30.629-17.295-20.98-25.732-17.299z"/></g><ellipse id="XMLID_1994_" cx="281.92" cy="193.028" fill="#f5fade" rx="16.667" ry="26.146" transform="matrix(.917 -.4 .4 .917 -53.669 128.848)"/></g><ellipse id="XMLID_1924_" cx="163.038" cy="281.928" fill="#f5fade" rx="26.146" ry="16.667" transform="matrix(.771 -.637 .637 .771 -142.289 168.613)"/></g></svg>