<svg id="Capa_1" enable-background="new 0 0 512 512" height="512" viewBox="0 0 512 512" width="512" xmlns="http://www.w3.org/2000/svg"><g id="XMLID_1824_"><g id="XMLID_1083_"><ellipse id="XMLID_1255_" cx="256" cy="256" fill="#b5b3ee" rx="246" ry="236"/><path id="XMLID_675_" d="m256 20c-5.095 0-10.148.167-15.167.459-9.638 10.569-15.479 24.406-15.479 39.551 0 14.676 5.49 28.118 14.599 38.553-22.639 18.308-37.026 45.71-37.026 76.34 0 7.788.93 15.368 2.689 22.644l-.059.003c32.864 12.409 58.698 38.226 70.139 70.446 19.097-11.62 40.725-19.757 63.914-23.473 28.728-47.491 81.265-80.081 141.94-82.722l.005-.1c-37.936-83.4-124.642-141.701-225.555-141.701z" fill="#e0c9ed"/><path id="XMLID_2085_" d="m205.617 197.547c-1.759-7.275-2.689-14.855-2.689-22.644 0-30.63 14.387-58.032 37.026-76.34-9.109-10.436-14.599-23.877-14.599-38.553 0-15.146 5.841-28.982 15.479-39.551-77.339 4.515-145.02 43.301-186.761 100.741l-.088.535c38.583 8.698 70.032 35.149 84.474 69.876 7.416-1.366 15.069-2.089 22.9-2.089 15.643 0 30.58 2.873 44.299 8.066z" fill="#e0c9ed"/><g fill="#fff"><path id="XMLID_1315_" d="m432.565 343.267c0-8.662-1.285-17.033-3.677-24.954-1.092-3.617-6.397-2.784-6.384.994v.285c0 17.251-5.083 33.358-13.877 47.037-6.562-26.469-20.605-50.156-39.872-68.887-2.728-2.652-7.001.679-5.099 3.974 12.122 20.999 19.024 45.155 19.024 70.859 0 12.637-1.674 24.898-4.811 36.596-20.088-4.855-38.635-16.104-52.009-33.26-.047-.06-.093-.12-.14-.18-2.321-2.993-7.037-.361-5.639 3.158 3.019 7.598 7.173 14.926 12.502 21.762 10.232 13.126 23.494 22.79 38.156 28.785-7.532 17.134-18.359 32.609-31.727 45.689 25.173-9.682 48.47-22.89 69.24-38.986 2.949-11.367 4.524-23.256 4.524-35.499 0-.716-.023-1.427-.034-2.14 12.417-15.231 19.823-34.4 19.823-55.233z"/><path id="XMLID_1312_" d="m124.9 351.709c0-29.799 7.997-57.804 22.043-82.153 2.216-3.842-2.759-7.701-5.938-4.609-19.546 19.013-34.455 42.423-42.97 68.543-9.973-15.743-15.717-34.224-15.717-53.993 0-.087 0-.173 0-.26.011-4.392-6.161-5.356-7.428-1.151-2.761 9.167-4.243 18.853-4.243 28.874 0 22.567 7.49 43.453 20.207 60.506-.565 5.526-.869 11.126-.869 16.795 0 14.202 1.827 27.993 5.248 41.179 24.093 18.671 51.118 33.993 80.319 45.224-31.327-30.651-50.652-72.635-50.652-118.955z"/></g></g><path id="XMLID_1165_" d="m436.871 81.906c-48.334-46.369-112.569-71.906-180.871-71.906s-132.537 25.537-180.871 71.906c-48.448 46.479-75.129 108.307-75.129 174.094s26.681 127.615 75.129 174.094c48.334 46.369 112.569 71.906 180.871 71.906s132.537-25.537 180.871-71.906c48.447-46.479 75.129-108.307 75.129-174.094s-26.682-127.615-75.129-174.094zm29.203 71.169c-54.785 6.713-103.319 36.683-132.581 82.358-18.574 3.447-36.399 9.669-52.863 18.317-13.397-28.7-37.269-51.062-66.323-63.445-.915-5.063-1.378-10.224-1.378-15.401 0-26.452 12.143-51.443 33.314-68.564 2.113-1.708 3.439-4.203 3.674-6.911.235-2.707-.642-5.393-2.429-7.44-7.824-8.963-12.133-20.32-12.133-31.978 0-10.763 3.647-21.194 10.326-29.782 3.423-.142 6.86-.229 10.319-.229 91.445 0 170.908 50.065 210.074 123.075zm-244.878-120.613c-3.823 8.634-5.841 17.993-5.841 27.548 0 13.192 3.876 26.086 11.059 37.17-21.391 20.538-33.486 48.373-33.486 77.724 0 2.816.122 5.627.343 8.428-10.275-2.486-20.972-3.811-31.912-3.811-5.65 0-11.319.354-16.933 1.055-14.819-30.056-41.395-53.201-73.679-64.433 36.44-44.171 89.707-75.045 150.449-83.681zm-201.196 223.538c0-45.292 13.995-87.507 38.047-122.908 32.287 9.224 58.619 32.158 71.178 62.36 1.809 4.352 6.41 6.839 11.045 5.995 6.931-1.277 14.025-1.925 21.088-1.925 44.754 0 84.76 25.629 101.995 64.524-12.568 8.456-24.079 18.451-34.195 29.804-28.393 31.862-44.03 72.55-44.03 114.567 0 22.988 4.705 45.752 13.692 66.861-102.591-24.541-178.82-113.538-178.82-219.278zm236 226c-11.151 0-22.117-.762-32.86-2.201-11.795-21.949-18.011-46.523-18.011-71.382 0-76.611 57.224-141.386 136.064-154.02 2.902-.465 5.453-2.184 6.975-4.698 26.896-44.462 74.021-73.056 127.019-77.461 10.838 25.916 16.813 54.182 16.813 83.762 0 124.617-105.869 226-236 226z" fill="#b278d3"/></g></svg>