<svg id="Capa_1" enable-background="new 0 0 512 512" height="512" viewBox="0 0 512 512" width="512" xmlns="http://www.w3.org/2000/svg"><g id="XMLID_1866_"><path id="XMLID_1209_" d="m282.798 263.965c48.736 0 88.579 39.42 88.468 88.156-.11 47.986-31.375 88.653-74.641 102.846-21.258 6.973-37.029 24.952-40.625 47.033-3.596-22.081-19.367-40.06-40.625-47.033-43.265-14.193-74.531-54.86-74.64-102.846-.112-48.736 39.732-88.156 88.468-88.156z" fill="#ff9eb1"/><g id="XMLID_992_" fill="#e0ef9b"><path id="XMLID_1302_" d="m233.957 109.239c-.444-26.994-18.971-49.584-44.004-56.169-6.989-24.848-29.801-43.07-56.883-43.07-32.642 0-59.103 26.462-59.103 59.103 0 27.431 18.69 50.491 44.028 57.156 4.496 15.982 15.536 29.212 30.054 36.624.53 32.185 26.768 58.117 59.079 58.117 32.642 0 59.103-26.462 59.103-59.103 0-22.979-13.122-42.88-32.274-52.658z"/><path id="XMLID_957_" d="m278.043 109.239c.444-26.994 18.971-49.584 44.004-56.169 6.989-24.848 29.801-43.07 56.883-43.07 32.642 0 59.103 26.462 59.103 59.103 0 27.431-18.69 50.491-44.028 57.156-4.496 15.982-15.536 29.212-30.054 36.624-.53 32.185-26.768 58.117-59.079 58.117-32.642 0-59.103-26.462-59.103-59.103 0-22.979 13.122-42.88 32.274-52.658z"/></g><g id="XMLID_621_"><path id="XMLID_1183_" d="m378.931 0c-28.939 0-54.821 18.264-64.777 45.043-25.108 8.853-43.049 31.672-45.762 58.169-4.563 2.831-8.721 6.143-12.432 9.846-3.733-3.729-7.871-7.046-12.35-9.837-2.709-26.502-20.651-49.323-45.763-58.178-9.956-26.779-35.838-45.043-64.778-45.043-38.103 0-69.102 31-69.102 69.104 0 29.495 18.71 55.548 46.139 65.188 5.321 14.3 15.312 26.521 28.285 34.608 1.604 16 8.676 30.822 20.262 42.235 13.003 12.81 30.218 19.865 48.475 19.865 5.354 0 10.627-.63 15.734-1.826 2.564 8.155 4.852 16.421 6.849 24.791h-.509c-26.412 0-51.23 10.296-69.884 28.991-18.492 18.535-28.644 43.105-28.584 69.188.118 51.227 32.88 96.367 81.523 112.325 17.919 5.878 30.898 20.875 33.872 39.139.788 4.839 4.968 8.393 9.87 8.393s9.082-3.554 9.87-8.393c2.974-18.264 15.953-33.261 33.872-39.139 48.644-15.958 81.405-61.099 81.523-112.326.06-26.081-10.092-50.651-28.584-69.187-18.653-18.695-43.472-28.991-69.884-28.991h-.509c1.998-8.37 4.285-16.637 6.85-24.793 5.058 1.183 10.32 1.829 15.733 1.829 18.257 0 35.472-7.055 48.476-19.865 11.586-11.413 18.658-26.235 20.262-42.235 12.974-8.088 22.964-20.309 28.285-34.608 27.429-9.64 46.139-35.692 46.139-65.188.001-38.105-30.998-69.105-69.101-69.105zm-167.605 152.191c-19.015-34.181-43.017-65.146-71.337-92.038-4.005-3.804-10.336-3.639-14.138.366-3.803 4.005-3.639 10.335.366 14.138 40.281 38.249 70.83 84.372 90.072 135.471-2.994.57-6.059.872-9.162.872-26.625 0-48.643-21.658-49.08-48.28-.062-3.698-2.158-7.061-5.452-8.742-12.182-6.22-21.284-17.31-24.975-30.426-.96-3.412-3.654-6.062-7.082-6.963-21.533-5.664-36.572-25.19-36.572-47.485.001-27.077 22.028-49.104 49.103-49.104 21.898 0 41.332 14.713 47.259 35.778.96 3.412 3.654 6.062 7.082 6.963 21.158 5.566 36.188 24.754 36.548 46.663.062 3.697 2.158 7.06 5.452 8.741 5.472 2.793 10.39 6.613 14.466 11.204-5.233 9.812-8.106 20.93-8.106 32.547 0 11.747 2.954 22.814 8.146 32.51-2.736 3.092-5.828 5.805-9.195 8.092-6.559-17.256-14.36-34.065-23.395-50.307zm44.692 58.531c4.307 4.309 9.188 8.037 14.502 11.096-3.383 10.574-6.314 21.296-8.767 32.147h-11.507c-2.452-10.845-5.381-21.56-8.762-32.129 5.287-3.03 10.18-6.759 14.534-11.114zm26.78 63.243c21.062 0 40.852 8.21 55.726 23.117 14.713 14.747 22.79 34.285 22.742 55.015-.098 42.583-27.328 80.104-67.758 93.368-15.87 5.206-28.974 15.566-37.508 28.986-8.534-13.42-21.638-23.78-37.508-28.986-40.43-13.264-67.66-50.785-67.758-93.367-.048-20.73 8.029-40.269 22.742-55.016 14.874-14.907 34.664-23.117 55.726-23.117zm108.663-157.376c-3.428.901-6.122 3.551-7.082 6.963-3.69 13.116-12.793 24.206-24.975 30.426-3.294 1.682-5.391 5.044-5.452 8.742-.438 26.622-22.455 48.28-49.08 48.28-3.132 0-6.192-.307-9.163-.87 19.242-51.099 49.791-97.223 90.073-135.472 4.005-3.803 4.169-10.133.366-14.138s-10.134-4.17-14.138-.366c-28.32 26.892-52.322 57.857-71.337 92.038-9.034 16.239-16.833 33.046-23.392 50.3-12.974-8.847-21.512-23.741-21.512-40.595 0-18.541 10.277-35.305 26.82-43.751 3.294-1.682 5.391-5.044 5.452-8.741.36-21.909 15.39-41.097 36.548-46.663 3.428-.901 6.122-3.551 7.082-6.963 5.928-21.066 25.361-35.779 47.26-35.779 27.075 0 49.103 22.027 49.103 49.104-.001 22.294-15.04 41.821-36.573 47.485z" fill="#ff5d7d"/><g fill="#ffdfe5"><ellipse id="XMLID_984_" cx="276" cy="354.667" rx="22.167" ry="12"/><ellipse id="XMLID_1090_" cx="212.833" cy="319.333" rx="22.167" ry="12"/><ellipse id="XMLID_156_" cx="331.065" cy="319.333" rx="22.167" ry="12"/><ellipse id="XMLID_155_" cx="256.127" cy="410.667" rx="22.167" ry="12"/><ellipse id="XMLID_1091_" cx="178.042" cy="381.646" rx="22.167" ry="12"/></g></g></g></svg>