<svg id="Capa_1" enable-background="new 0 0 510.629 510.629" height="512" viewBox="0 0 510.629 510.629" width="512" xmlns="http://www.w3.org/2000/svg"><g id="XMLID_1847_"><g id="XMLID_1897_"><g id="XMLID_1902_" fill="#e0ef9b"><circle id="XMLID_1908_" cx="362.528" cy="134.666" r="124.667"/><path id="XMLID_1907_" d="m261.003 50.308c-19.028 22.875-30.475 52.278-30.475 84.358 0 70.955 58.918 128.891 129.124 131.932 19.028-22.875 27.543-52.345 27.543-84.425-.001-70.954-55.987-128.824-126.192-131.865z"/><path id="XMLID_1906_" d="m453.783 39.294c-72.876.03-131.944 59.116-131.944 131.999 0 37.498 12.705 71.276 37.813 95.305 72.875-.03 134.876-59.05 134.876-131.932 0-37.498-15.638-71.342-40.745-95.372z"/></g></g><g id="XMLID_1884_"><g id="XMLID_1890_" fill="#e0ef9b"><circle id="XMLID_1896_" cx="148.101" cy="368.697" r="124.667"/><path id="XMLID_1895_" d="m46.576 284.339c-19.028 22.875-30.475 52.278-30.475 84.358 0 70.955 58.918 128.891 129.124 131.932 19.028-22.875 27.543-52.345 27.543-84.425 0-70.954-55.986-128.824-126.192-131.865z"/><path id="XMLID_1894_" d="m239.356 273.325c-72.876.03-131.944 59.116-131.944 131.999 0 37.498 12.705 71.276 37.813 95.305 72.875-.03 134.876-59.05 134.876-131.932 0-37.498-15.637-71.342-40.745-95.372z"/></g><g id="XMLID_1189_" fill="#cbe558"><path id="XMLID_1193_" d="m460.696 32.069c-1.861-1.781-4.338-2.775-6.914-2.775-.001 0-.003 0-.004 0-2.397.001-4.783.072-7.159.19-23.799-19.036-53.51-29.484-84.092-29.484-36.221 0-71.109 14.755-96.368 40.61-1.57-.12-3.144-.224-4.723-.292-3.098-.142-6.123 1.194-8.12 3.595-21.144 25.419-32.788 57.648-32.788 90.753 0 36.72 14.606 71.69 41.13 98.471 26.175 26.43 60.823 41.861 97.562 43.452.144.007.288.01.432.01h.001.004c38.044-.016 74.17-14.743 101.725-41.469 27.824-26.986 43.147-62.665 43.147-100.464-.002-39.108-15.568-75.544-43.833-102.597zm-98.169-12.069c19.276 0 38.135 4.895 54.855 13.999-26.156 6.894-49.846 21.184-68.409 41.558-16.688-14.71-36.386-25.18-57.659-30.744 20.133-15.925 45.272-24.813 71.213-24.813zm-96.956 40.616c56.988 4.767 102.224 48.163 110.326 103.658.001.004.001.009.002.013.852 5.839 1.295 11.811 1.295 17.886 0 29.638-7.442 54.541-22.136 74.114-26.926-2.258-51.579-13.159-71.059-29.737-3.386-7.626-5.66-15.59-6.793-23.803 18.001-2.712 34.639-11.741 46.72-25.656 3.621-4.17 3.176-10.486-.995-14.106-4.167-3.619-10.485-3.176-14.106.995-8.391 9.664-19.747 16.144-32.116 18.57 1.348-15.612 6.721-30.48 15.766-43.388 3.17-4.523 2.072-10.759-2.451-13.928s-10.759-2.071-13.928 2.451c-12.911 18.427-19.735 40.099-19.735 62.673 0 1.028.015 2.054.043 3.077-10.092-17.554-15.876-37.638-15.876-58.769-.001-26.769 8.86-52.869 25.043-74.05zm175.417 147.997c-2.814 9.857-7.324 19.178-13.407 27.674-14.3 9.275-30.555 15.776-47.89 18.648 10.735-19.25 16.674-42.102 17.417-67.335 12.922 10.046 27.842 17.219 43.88 21.013zm21.922-6.41c1.023-6.085 1.553-12.292 1.553-18.585 0-17.708-4.287-35.323-12.399-50.94-2.545-4.9-8.581-6.813-13.483-4.265-4.901 2.545-6.811 8.582-4.265 13.483 6.733 12.964 10.147 27.001 10.147 41.722 0 1.741-.066 3.471-.162 5.196-19.098-4.807-36.205-15.444-49.129-30.653-4.286-25.206-15.304-48.741-32.13-68.347 22.249-24.83 53.273-39.354 86.702-40.451 22.463 22.922 34.783 53.057 34.783 85.305 0 24.744-8.024 48.054-21.617 67.535z"/><path id="XMLID_1326_" d="m246.271 266.101c-1.861-1.781-4.338-2.775-6.914-2.775-.001 0-.003 0-.004 0-2.397.001-4.783.072-7.159.19-23.798-19.037-53.51-29.485-84.092-29.485-36.223 0-71.111 14.756-96.368 40.61-1.571-.12-3.145-.224-4.725-.292-3.104-.149-6.124 1.194-8.121 3.596-21.143 25.418-32.786 57.648-32.786 90.753 0 36.719 14.606 71.689 41.13 98.47 26.175 26.43 60.823 41.861 97.562 43.452.144.007.288.01.432.01h.004c38.043-.016 74.17-14.743 101.725-41.468 27.824-26.986 43.147-62.665 43.147-100.464 0-39.11-15.567-75.547-43.831-102.597zm-98.169-12.071c19.276 0 38.135 4.895 54.856 13.999-26.157 6.894-49.846 21.183-68.41 41.557-16.689-14.71-36.386-25.18-57.66-30.745 20.133-15.923 45.272-24.811 71.214-24.811zm-96.957 40.616c56.987 4.767 102.222 48.162 110.325 103.656.001.006.002.012.003.018.852 5.838 1.295 11.81 1.295 17.885 0 29.638-7.442 54.541-22.135 74.113-26.926-2.258-51.579-13.159-71.059-29.737-3.387-7.626-5.661-15.59-6.794-23.803 18-2.712 34.639-11.74 46.721-25.654 3.621-4.17 3.176-10.486-.994-14.107-4.168-3.619-10.485-3.177-14.107.994-8.391 9.664-19.748 16.145-32.117 18.57 1.348-15.612 6.721-30.479 15.767-43.388 3.169-4.522 2.072-10.759-2.451-13.928s-10.759-2.072-13.928 2.451c-12.912 18.426-19.736 40.098-19.736 62.673 0 1.027.015 2.052.042 3.074-10.091-17.554-15.875-37.637-15.875-58.767 0-26.767 8.86-52.869 25.043-74.05zm175.417 147.998c-2.814 9.856-7.323 19.177-13.406 27.673-14.3 9.275-30.556 15.777-47.891 18.649 10.734-19.25 16.673-42.102 17.416-67.335 12.923 10.046 27.843 17.219 43.881 21.013zm21.922-6.411c1.022-6.085 1.553-12.292 1.553-18.585 0-17.709-4.287-35.324-12.399-50.94-2.545-4.9-8.581-6.813-13.483-4.265-4.901 2.546-6.811 8.583-4.265 13.483 6.733 12.963 10.147 27 10.147 41.722 0 1.741-.066 3.471-.162 5.195-19.099-4.808-36.206-15.445-49.129-30.653-4.286-25.206-15.304-48.741-32.129-68.347 22.249-24.83 53.272-39.354 86.702-40.451 22.463 22.921 34.783 53.056 34.783 85.305 0 24.746-8.024 48.056-21.618 67.536z"/></g></g></g></svg>