<svg id="Capa_1" enable-background="new 0 0 511.963 511.963" height="512" viewBox="0 0 511.963 511.963" width="512" xmlns="http://www.w3.org/2000/svg"><g id="XMLID_2067_"><path id="XMLID_2101_" d="m211.821 249.496-27.103 27.103c-14.884 14.884-35.072 23.246-56.121 23.246-42.506 0-76.963 34.457-76.963 76.963 0 42.506 34.457 76.963 76.963 76.963 42.506 0 76.963-34.457 76.963-76.963 0-21.049 8.362-41.237 23.246-56.121l27.103-27.103z" fill="#fff"/><path id="XMLID_1773_" d="m462.654 156.725c-16.282-4.282-33.12-6.599-50.211-6.853-4.36-.065-8.707.013-13.038.216l-114.201 114.202 44.472-28.654c49.983-32.205 113.942-31.251 162.943 2.427 20.749-30.188 5.462-72.021-29.965-81.338z" fill="#e0ef9b"/><path id="XMLID_2064_" d="m255.909 293.584 223.989-223.988c-24.349-24.349-63.827-24.349-88.176 0l-179.901 179.9z" fill="#e0ef9b"/><g id="XMLID_2062_"><path id="XMLID_2063_" d="m255.909 293.584 66.42-66.42c29.291-29.291 49.082-66.24 57.236-106.852 3.364-16.758 4.66-33.705 3.917-50.525-1.616-36.596-39.271-60.382-73.164-46.484 22.558 55.014 9.967 117.729-32.077 159.773l-66.42 66.42z" fill="#e0ef9b"/></g><path id="XMLID_1287_" d="m508.009 185.901c-7.219-19.431-22.823-33.59-42.812-38.847-13.666-3.594-27.71-5.835-41.879-6.737l63.651-63.651c1.875-1.876 2.929-4.419 2.929-7.071s-1.054-5.195-2.929-7.071c-26.011-26.011-67.051-28.017-95.406-6.061-3.86-15.247-13.282-28.401-27.006-37.174-17.327-11.075-39.021-13.035-58.031-5.238-5.11 2.095-7.554 7.936-5.458 13.046 21.024 51.272 9.289 109.723-29.896 148.907l-93.523 93.523c-13.101 13.102-30.521 20.317-49.05 20.317-47.952 0-86.963 39.012-86.963 86.963 0 10.253 1.789 20.096 5.062 29.237-15.599-1.763-31.83 3.31-43.767 15.246-3.905 3.905-3.906 10.237 0 14.143 3.906 3.904 10.238 3.905 14.142 0 11.6-11.599 29.682-12.843 42.683-3.75l-23.218 23.217c-3.905 3.905-3.906 10.237 0 14.143 1.953 1.952 4.512 2.929 7.071 2.929s5.119-.977 7.071-2.929l22.507-22.506c2.464 4.708 3.775 9.97 3.775 15.435 0 8.909-3.469 17.285-9.769 23.584-3.905 3.905-3.906 10.237 0 14.143 1.953 1.952 4.512 2.929 7.071 2.929s5.119-.977 7.071-2.929c10.077-10.077 15.627-23.475 15.627-37.727 0-1.419-.07-2.827-.18-4.227 9.858 3.889 20.592 6.026 31.815 6.026 47.952 0 86.963-39.012 86.963-86.963 0-18.528 7.215-35.948 20.317-49.05l55.643-55.642 43.572-28.075c46.583-30.014 106.193-29.126 151.863 2.263 4.551 3.129 10.777 1.976 13.905-2.577 11.638-16.932 14.31-38.55 7.149-57.826zm-42.931-115.628-85.088 85.088c3.959-10.704 7.106-21.754 9.38-33.08 2.681-13.355 4.108-26.921 4.285-40.477l5.137-5.138c17.994-17.994 45.936-20.123 66.286-6.393zm-179.765 119.874c42.28-42.28 56.67-104.138 38.096-160.269 10.442-1.785 21.129.352 30.376 6.263 11.904 7.609 19.087 20.034 19.708 34.088.709 16.062-.546 32.25-3.731 48.114-7.765 38.674-26.611 73.858-54.503 101.749l-59.349 59.35-29.945-29.945zm-63.578 123.469c-16.879 16.88-26.175 39.322-26.175 63.192 0 36.924-30.04 66.963-66.963 66.963s-66.963-30.039-66.963-66.963 30.04-66.963 66.963-66.963c23.872 0 46.313-9.296 63.192-26.175l20.032-20.032 29.946 29.946zm267.224-89.736c-42.663-25.148-94.139-28.524-139.272-9.931l53.999-53.999c2.866-.08 5.743-.122 8.607-.079 16.182.241 32.27 2.437 47.816 6.525 13.605 3.578 24.23 13.227 29.15 26.471 3.824 10.287 3.654 21.184-.3 31.013z" fill="#89df8f"/><path id="XMLID_1839_" d="m100.374 387.228c.662-16.037 9.504-29.832 22.403-37.648 6.351-3.849 2.862-13.614-4.466-12.412-3.218.528-6.5 1.428-9.812 2.738-8.06 3.189-14.704 9.167-18.587 16.82-5.808 11.45-6.106 22.987-2.586 32.807 2.515 7.016 12.771 5.403 13.037-2.045.004-.087.007-.174.011-.26z" fill="#dae6e6"/></g></svg>