<svg id="Capa_1" enable-background="new 0 0 512 512" height="512" viewBox="0 0 512 512" width="512" xmlns="http://www.w3.org/2000/svg"><g id="XMLID_1547_"><g id="XMLID_1754_"><path id="XMLID_1717_" d="m232.212 110.39v-100.39c26.276 0 47.577 21.301 47.577 47.577v7.327z" fill="#fff"/><path id="XMLID_1718_" d="m279.788 60.195c-26.276 0-47.577 21.301-47.577 47.577v37.813h47.577z" fill="#e0ef9b"/><g id="XMLID_1607_"><path id="XMLID_1716_" d="m353.452 468.903c-42.668 0-77.945-33.249-80.467-75.842l-14.658-247.477h21.461l139.359 196.001c37.947 53.37-.21 127.318-65.695 127.318z" fill="#f5fade"/></g><g id="XMLID_1579_"><path id="XMLID_1586_" d="m158.548 468.903c42.668 0 77.945-33.249 80.467-75.842l14.658-247.477h-21.461l-139.359 196.001c-37.947 53.37.21 127.318 65.695 127.318z" fill="#f5fade"/></g><path id="XMLID_1531_" d="m340.596 313.722-20.819-32.297c-26.105-40.497-39.988-87.658-39.988-135.84h-47.577c0 48.182-13.883 95.343-39.988 135.84l-20.819 32.297c-25.679 39.836-20.087 92.189 13.426 125.702 39.306 39.306 103.033 39.306 142.339 0 33.513-33.514 39.105-85.866 13.426-125.702z" fill="#fff"/></g><path id="XMLID_1264_" d="m427.297 335.79-137.508-193.398v-84.815c0-31.748-25.83-57.577-57.578-57.577-5.523 0-10 4.478-10 10v132.392l-137.508 193.398c-19.732 27.753-22.291 63.792-6.676 94.053 15.615 30.262 46.468 49.061 80.521 49.061 11.724 0 23.174-2.242 33.856-6.55-5.471 8.759-8.525 19.006-8.525 29.647 0 5.522 4.477 10 10 10s10-4.478 10-10c0-11.744 5.798-22.727 15.305-29.412 8.706 3.057 17.72 4.991 26.817 5.809v23.602c0 5.522 4.477 10 10 10s10-4.478 10-10v-23.603c9.097-.818 18.111-2.752 26.817-5.809 9.507 6.685 15.305 17.668 15.305 29.412 0 5.522 4.477 10 10 10s10-4.478 10-10c0-10.641-3.054-20.888-8.525-29.646 10.682 4.308 22.131 6.55 33.856 6.55 34.052 0 64.906-18.799 80.521-49.061 15.613-30.261 13.055-66.3-6.678-94.053zm-235.396 96.563c-29.973-29.973-35.058-77.586-12.093-113.213l20.82-32.297c25.394-39.395 39.613-84.58 41.393-131.258h27.958c1.78 46.678 15.999 91.863 41.393 131.258l20.819 32.297c22.966 35.627 17.88 83.24-12.093 113.213-35.343 35.343-92.852 35.344-128.197 0zm77.888-374.776v78.008h-27.577v-114.234c15.881 4.389 27.577 18.967 27.577 36.226zm-111.242 401.326c-26.938 0-50.395-14.292-62.747-38.231-12.353-23.938-10.408-51.338 5.202-73.292l118.677-166.912c-4.951 33.914-17.102 66.437-35.861 95.539l-20.82 32.297c-13.653 21.181-19.698 46.645-17.022 71.702s13.964 48.67 31.783 66.489c2.5 2.5 5.094 4.849 7.766 7.059-8.492 3.515-17.621 5.349-26.978 5.349zm257.653-38.231c-12.353 23.939-35.81 38.231-62.748 38.231-9.358 0-18.486-1.833-26.977-5.349 2.672-2.21 5.266-4.56 7.767-7.06 17.819-17.819 29.106-41.433 31.782-66.489 2.676-25.058-3.369-50.521-17.022-71.702l-20.819-32.297c-18.759-29.102-30.91-61.625-35.861-95.539l118.676 166.913c15.609 21.954 17.554 49.353 5.202 73.292z" fill="#cbe558"/></g></svg>