<svg id="Capa_1" enable-background="new 0 0 512 512" height="512" viewBox="0 0 512 512" width="512" xmlns="http://www.w3.org/2000/svg"><g id="XMLID_1212_"><g id="XMLID_1655_"><path id="XMLID_1654_" d="m152.963 131.366s-.698-66.121 31.62-86.865l32.781 18.583s-21.608 19.88-22.689 71.057z" fill="#e0ef9b"/><circle id="XMLID_1215_" cx="166.5" cy="311" fill="#ff9eb1" r="156.5"/><path id="XMLID_1214_" d="m248.951 133.275c-20.72-5.751-40.972-3.941-55.189 3.522-5.881-1.65-12.189-2.558-18.763-2.558-6.573 0-12.882.908-18.763 2.558-14.217-7.463-34.468-9.273-55.189-3.522-34.287 9.516-56.844 36.104-50.383 59.385s39.495 34.44 73.782 24.924c3.657-1.015 7.171-2.235 10.54-3.613 10.333 8.161 24.443 13.196 40.012 13.196s29.68-5.035 40.012-13.196c3.369 1.379 6.883 2.599 10.54 3.613 34.287 9.516 67.32-1.643 73.782-24.924 6.464-23.281-16.094-49.869-50.381-59.385z" fill="#e0ef9b"/><circle id="XMLID_1657_" cx="362.5" cy="328" fill="#f1c6dd" r="139.5"/><path id="XMLID_837_" d="m362.5 178.5c-18.357 0-35.949 3.333-52.211 9.414 1.064-12.337-3.485-25.081-13.24-36.578-10.799-12.728-26.931-22.564-45.423-27.697-16-4.441-32.097-4.937-46.225-1.651 3.509-35.62 17.922-50.719 18.781-51.586 2.402-2.134 3.547-5.218 3.219-8.417-.331-3.221-2.288-6.003-5.104-7.6l-32.781-18.583c-3.23-1.832-7.208-1.723-10.333.284-28.733 18.443-34.711 64.496-35.922 85.607-13.802-2.95-29.389-2.353-44.885 1.947-18.493 5.132-34.625 14.969-45.423 27.697-11.726 13.821-15.959 29.447-11.921 43.998.426 1.533.955 3.02 1.547 4.477-27.504 30.599-42.579 69.814-42.579 111.188 0 91.809 74.691 166.5 166.5 166.5 36.535 0 72.108-12.074 101.012-34.138 25.845 21.318 58.947 34.138 94.988 34.138 82.435 0 149.5-67.065 149.5-149.5s-67.065-149.5-149.5-149.5zm-177.067-122.023 17.014 9.645c-6.668 10.508-15.301 29.42-17.356 58.762-7.282-.916-14.736-.833-21.987.247.907-21.329 6.428-53.807 22.329-68.654zm-81.71 86.434c17.465-4.848 35.361-3.824 47.867 2.741 2.261 1.187 4.89 1.463 7.349.774 10.342-2.902 21.781-2.902 32.123 0 2.458.689 5.087.413 7.349-.774 12.506-6.563 30.4-7.588 47.867-2.741 14.672 4.072 27.288 11.66 35.521 21.364 7.307 8.611 10.112 17.742 7.9 25.71-2.211 7.968-9.321 14.347-20.021 17.961-12.058 4.073-26.779 4.074-41.451.001-3.151-.875-6.323-1.962-9.427-3.233-3.34-1.367-7.155-.83-9.986 1.408-9.017 7.122-21.025 11.043-33.814 11.043s-24.797-3.922-33.814-11.043c-1.795-1.418-3.985-2.153-6.2-2.153-1.278 0-2.564.245-3.786.745-3.104 1.271-6.276 2.358-9.427 3.233-28.426 7.89-56.579-.336-61.472-17.963-4.891-17.625 14.993-39.183 43.422-47.073zm-83.723 168.089c0-34.994 12.253-68.234 34.695-94.671 5.235 4.444 11.703 8.024 19.227 10.566 15.813 5.342 34.708 5.457 53.201.325 2.131-.592 4.267-1.261 6.389-2.001 11.8 7.738 26.313 11.948 41.488 11.948s29.688-4.21 41.488-11.948c2.123.74 4.259 1.41 6.39 2.001 8.696 2.413 17.478 3.651 25.989 3.746-22.349 26.133-35.867 60.033-35.867 97.034 0 39.105 15.099 74.744 39.764 101.414-24.944 18.173-55.208 28.086-86.264 28.086-80.78 0-146.5-65.72-146.5-146.5zm342.5 146.5c-71.406 0-129.5-58.093-129.5-129.5s58.094-129.5 129.5-129.5 129.5 58.093 129.5 129.5-58.094 129.5-129.5 129.5z" fill="#ff5d7d"/></g><path id="XMLID_1815_" d="m440.947 264.054c10.946 4.785 17.428 15.948 16.174 27.814-1.477 13.968-13.631 24.376-27.677 24.376h-42.201c-1.947 0-3.163-2.107-2.19-3.793l21.397-37.06c6.942-12.026 21.771-16.902 34.497-11.337zm-94.602-35.964c4.831-3.56 10.493-5.34 16.155-5.34s11.324 1.78 16.156 5.34c11.179 8.238 14.374 23.518 7.431 35.544l-21.397 37.06c-.973 1.686-3.406 1.686-4.38 0l-21.397-37.06c-6.943-12.026-3.748-27.306 7.432-35.544zm-78.618 61.245c-.152-10.062 5.408-19.507 14.268-24.278 4.153-2.236 8.6-3.293 12.972-3.293 9.464 0 18.576 4.953 23.584 13.627l21.397 37.06c.973 1.686-.243 3.793-2.19 3.793h-42.794c-14.779 0-27.009-11.788-27.237-26.909zm16.326 102.611c-10.946-4.785-17.428-15.948-16.174-27.814 1.477-13.968 13.631-24.376 27.677-24.376h42.202c1.947 0 3.163 2.107 2.19 3.793l-21.397 37.06c-6.944 12.026-21.774 16.9-34.498 11.337zm94.602 35.964c-9.662 7.12-22.648 7.12-32.311-.001-11.18-8.237-14.375-23.518-7.431-35.544l21.397-37.06c.973-1.686 3.406-1.686 4.38 0l21.397 37.06c6.943 12.027 3.748 27.308-7.432 35.545zm62.291-35.964c-12.725 5.564-27.554.689-34.497-11.337l-21.397-37.06c-.973-1.686.243-3.793 2.19-3.793h42.202c14.046 0 26.2 10.408 27.677 24.376 1.254 11.867-5.228 23.029-16.175 27.814z" fill="#fff"/></g></svg>