<svg id="Capa_1" enable-background="new 0 0 512 512" height="512" viewBox="0 0 512 512" width="512" xmlns="http://www.w3.org/2000/svg"><g id="XMLID_1405_"><g fill="#b8ecbc"><path id="XMLID_1331_" d="m381.044 138.891c8.196-7.721 12.091-15.763 9.377-21.455-2.713-5.693-11.414-7.731-22.572-6.226 2.527-4.701 3.212-8.44 1.527-10.464-3.377-4.057-15.243-.032-28.939 9.134 3.142-11.371 2.481-20.409-2.633-23.611-8.647-5.413-26.746 7.911-40.425 29.761l-.068.108c-.944 1.502-3.246.356-2.624-1.305 2.051-5.483 3.988-10.745 5.754-15.549 9.522-25.909 19.357-46.923 10.141-52.786-5.451-3.468-14.492.059-24.035 8.334 2.549-17.462.972-30.786-4.505-32.18-2.732-.696-6.031 1.689-9.41 6.298-3.685-11.48-9.663-18.95-16.416-18.95-.072 0-.143.013-.216.015-.072-.001-.143-.015-.216-.015-6.753 0-12.731 7.47-16.418 18.949-3.379-4.609-6.678-6.994-9.41-6.298-5.477 1.394-7.054 14.719-4.505 32.18-9.543-8.275-18.584-11.801-24.035-8.334-9.216 5.864.619 26.877 10.141 52.786 1.766 4.804 3.703 10.066 5.754 15.549.622 1.662-1.68 2.808-2.624 1.305l-.068-.108c-13.679-21.85-31.778-35.174-40.425-29.761-5.114 3.202-5.774 12.24-2.633 23.611-13.697-9.166-25.563-13.191-28.939-9.134-1.685 2.024-.999 5.763 1.527 10.464-11.158-1.505-19.858.533-22.572 6.226-2.714 5.692 1.181 13.735 9.377 21.455-5.243.996-8.579 2.82-9.091 5.402-1.025 5.178 9.574 11.862 25.319 16.73-10.811 4.719-17.417 10.925-16.684 16.913 1.24 10.126 22.797 12.663 48.575 12.663 22.05 0 38.807 28.836 49.72 55.499 4.526 11.057 15.258 18.301 27.205 18.301 11.947 0 22.679-7.244 27.205-18.301 10.914-26.663 27.671-55.499 49.72-55.499 25.778 0 47.335-2.537 48.575-12.663.733-5.988-5.873-12.193-16.684-16.913 15.745-4.868 26.344-11.552 25.318-16.73-.508-2.581-3.845-4.404-9.088-5.401z"/><path id="XMLID_1325_" d="m501.324 390.535c2.92-7.526-7.647-19.01-25.028-28.644 8.118-4.088 12.823-9.015 12.305-13.939-1.057-10.037-23.413-16.388-50.583-14.639 2.942-.768 5.933-1.643 8.957-2.645 28.301-9.381 48.425-25.49 44.947-35.981-1.644-4.96-8.272-7.773-17.791-8.372 12.397-16.44 17.49-31.858 11.437-37.911s-21.471-.96-37.911 11.437c-.6-9.519-3.413-16.147-8.372-17.791-10.491-3.477-26.6 16.646-35.981 44.948-1.002 3.024-1.877 6.015-2.645 8.956 1.749-27.17-4.603-49.526-14.639-50.583-4.924-.518-9.851 4.188-13.939 12.305-9.634-17.381-21.118-27.948-28.644-25.028-7.526 2.919-8.88 18.466-4.272 37.797-8.493-3.238-15.304-3.39-18.59.313-6.951 7.833 5.295 29.092 25.558 49.354 12.836 12.836 3.228 44.411-11.859 64.271-3.312 4.36-2.913 10.487.959 14.359 3.872 3.872 9.999 4.271 14.359.959 19.859-15.087 51.434-24.695 64.271-11.859 20.262 20.262 41.521 32.509 49.354 25.558 3.703-3.286 3.551-10.098.313-18.59 19.328 4.604 34.874 3.25 37.794-4.275z"/><path id="XMLID_1278_" d="m10.676 390.535c-2.92-7.526 7.647-19.01 25.028-28.644-8.118-4.088-12.823-9.015-12.305-13.939 1.057-10.037 23.413-16.388 50.583-14.639-2.942-.768-5.933-1.643-8.957-2.645-28.301-9.381-48.425-25.49-44.947-35.981 1.644-4.96 8.272-7.773 17.791-8.372-12.397-16.44-17.49-31.858-11.437-37.911s21.471-.96 37.911 11.437c.6-9.519 3.413-16.147 8.372-17.791 10.491-3.477 26.6 16.646 35.981 44.948 1.002 3.024 1.877 6.015 2.645 8.956-1.749-27.17 4.603-49.526 14.639-50.583 4.924-.518 9.851 4.188 13.939 12.305 9.634-17.381 21.118-27.948 28.644-25.028 7.526 2.919 8.88 18.466 4.272 37.797 8.493-3.238 15.304-3.39 18.59.313 6.951 7.833-5.295 29.092-25.558 49.354-12.836 12.836-3.228 44.411 11.859 64.271 3.312 4.36 2.913 10.487-.959 14.359-3.872 3.872-9.999 4.271-14.359.959-19.859-15.087-51.434-24.695-64.271-11.859-20.262 20.262-41.521 32.509-49.354 25.558-3.703-3.286-3.551-10.098-.313-18.59-19.328 4.604-34.874 3.25-37.794-4.275z"/></g><path id="XMLID_1268_" d="m493.735 361.17c4.667-5.586 5.164-10.899 4.811-14.265-.989-9.393-8.956-15.737-20.287-19.511 3.423-2.083 6.562-4.259 9.354-6.494 16.181-12.953 15.592-23.955 13.8-29.359-1.325-3.999-4.354-8.583-11.052-11.693 9.32-16.574 10.302-30.49 2.276-38.515-8.026-8.028-21.941-7.047-38.517 2.275-3.109-6.697-7.693-9.727-11.693-11.053-12.954-4.295-25.813 6.754-35.839 23.199-3.771-11.354-10.12-19.341-19.526-20.331-3.354-.35-8.676.145-14.263 4.811-10.996-14.811-22.646-20.924-32.981-16.912-10.334 4.009-14.817 16.377-12.95 34.729-7.271.321-11.53 3.537-13.775 6.067-16.186 18.236 15.782 52.88 25.966 63.063 7.349 7.349.914 33.163-12.751 51.15-4.129 5.434-5.195 12.367-3.388 18.576l-56.92 56.92v-180.734c11.796-3.082 21.67-11.505 26.46-23.207 13.01-31.783 27.381-49.287 40.466-49.287 29.02 0 56.192-2.599 58.501-21.449.467-3.811-.09-9.747-5.62-15.933 10.836-6.002 15.681-13.072 14.138-20.864-.41-2.077-1.35-4.421-3.303-6.6 4.975-7.972 6.031-15.857 2.808-22.619s-10.016-10.907-19.341-12.062c-.462-2.89-1.691-5.095-3.045-6.721-5.082-6.106-13.626-6.795-25.113-2.157-1.323-8.19-5.584-12.362-8.839-14.4-7.371-4.613-16.031-3.192-24.653 1.84 2.075-5.822 3.76-11.124 4.771-15.922 2.595-12.296.146-20.927-7.278-25.649-3.466-2.207-9.539-4.391-18.272-1.562-.529-11.382-3.874-21.173-13.169-23.54-2.212-.562-4.958-.708-8.028.311-5.316-8.564-12.356-13.272-20.267-13.272-.144.001-.287.001-.432 0-7.911 0-14.95 4.708-20.265 13.271-3.071-1.019-5.818-.871-8.03-.31-9.294 2.366-12.639 12.156-13.168 23.539-8.731-2.825-14.808-.645-18.273 1.562-7.424 4.723-9.873 13.353-7.278 25.648 1.012 4.799 2.697 10.102 4.773 15.925-8.623-5.032-17.288-6.452-24.655-1.841-3.254 2.038-7.515 6.209-8.838 14.399-11.484-4.639-20.029-3.949-25.111 2.155-1.354 1.627-2.584 3.833-3.046 6.723-9.325 1.155-16.117 5.301-19.34 12.062-3.224 6.763-2.167 14.648 2.807 22.62-1.953 2.178-2.892 4.521-3.304 6.598-1.543 7.793 3.302 14.864 14.138 20.866-5.53 6.186-6.086 12.122-5.62 15.934 2.308 18.85 29.48 21.448 58.501 21.448 13.084 0 27.455 17.504 40.465 49.287 4.79 11.702 14.663 20.126 26.46 23.207v180.734l-56.92-56.92c1.807-6.209.741-13.142-3.388-18.575-13.665-17.987-20.1-43.802-12.75-51.15 10.183-10.184 42.15-44.826 25.965-63.063-2.246-2.53-6.502-5.746-13.776-6.067 1.868-18.352-2.615-30.721-12.949-34.729-10.334-4.01-21.985 2.103-32.982 16.912-5.585-4.666-10.898-5.157-14.265-4.811-9.405.99-15.753 8.978-19.525 20.33-10.025-16.444-22.879-27.488-35.84-23.198-3.999 1.326-8.582 4.355-11.691 11.053-16.574-9.321-30.491-10.304-38.517-2.276-8.025 8.025-7.043 21.941 2.277 38.516-6.698 3.11-9.727 7.693-11.052 11.692-1.792 5.405-2.381 16.407 13.799 29.36 2.793 2.235 5.933 4.411 9.355 6.494-11.331 3.774-19.299 10.118-20.288 19.513-.354 3.364.144 8.677 4.811 14.263-14.81 10.997-20.92 22.648-16.912 32.981v.001c4.009 10.332 16.375 14.813 34.729 12.948.321 7.272 3.537 11.531 6.067 13.776 3.574 3.172 7.775 4.494 12.302 4.493 18.571-.003 42.573-22.271 50.76-30.459 7.351-7.349 33.164-.914 51.152 12.751 5.434 4.128 12.365 5.194 18.574 3.388l71.064 71.062v19.888c0 5.522 4.477 10 10 10 5.522 0 10-4.478 10-10v-19.889l71.063-71.062c6.209 1.806 13.141.74 18.575-3.387 17.986-13.666 43.802-20.1 51.15-12.751 8.188 8.188 32.189 30.46 50.761 30.459 4.525 0 8.729-1.322 12.302-4.493 2.53-2.245 5.746-6.504 6.067-13.776 18.354 1.864 30.721-2.615 34.729-12.948 4.008-10.335-2.101-21.986-16.912-32.983zm-402.666 19.599c-16.499 16.499-29.711 23.535-35.02 24.498.107-1.402.541-3.678 1.769-6.897 1.32-3.464.617-7.373-1.828-10.158-1.923-2.191-4.675-3.404-7.516-3.404-.771 0-1.549.089-2.318.272-13.374 3.188-21.918 2.583-25.354 1.528 1.824-3.096 7.728-9.306 19.752-15.971 3.242-1.797 5.224-5.239 5.15-8.944-.074-3.706-2.191-7.067-5.501-8.733-3.193-1.608-5.071-3.042-6.069-4.008 4.195-3.011 17.962-7.024 39.208-5.659 5.157.327 9.695-3.302 10.515-8.389.82-5.088-2.361-9.966-7.348-11.267-2.836-.74-5.641-1.568-8.334-2.461-23.955-7.94-35.928-18.712-38.135-23.144 1.169-.567 3.683-1.437 8.461-1.737 3.672-.231 6.92-2.461 8.457-5.804s1.114-7.26-1.102-10.197c-9.309-12.347-11.984-21.132-12.004-24.475 3.343.02 12.128 2.694 24.474 12.005 2.938 2.216 6.855 2.639 10.198 1.102s5.572-4.785 5.804-8.457c.301-4.778 1.169-7.292 1.737-8.462 4.433 2.208 15.204 14.182 23.144 38.137.892 2.689 1.72 5.493 2.461 8.334 1.302 4.985 6.179 8.166 11.268 7.346 5.087-.82 8.719-5.372 8.388-10.515-1.368-21.246 2.648-35.011 5.659-39.206.966.998 2.4 2.876 4.009 6.069 1.667 3.31 5.028 5.427 8.733 5.5 3.714.065 7.148-1.909 8.944-5.15 6.665-12.023 12.875-17.928 15.97-19.751 1.056 3.434 1.66 11.98-1.527 25.354-.859 3.605.346 7.391 3.132 9.835s6.695 3.148 10.159 1.827c3.219-1.228 5.494-1.662 6.896-1.769-.962 5.309-7.999 18.521-24.498 35.021-11.89 11.89-10.65 31.439-4.117 49.471l-23.746-23.746c-3.905-3.904-10.237-3.904-14.143 0-3.905 3.905-3.905 10.237 0 14.143l23.745 23.745c-18.034-6.533-37.583-7.773-49.473 4.117zm146.981-138.459c-16.762-40.948-36.604-61.711-58.975-61.711-25.52 0-34.653-2.753-37.749-4.271 1.378-1.436 4.343-3.731 9.857-6.139 3.831-1.672 6.218-5.55 5.984-9.723-.233-4.174-3.037-7.762-7.03-8.996-5.576-1.724-9.726-3.455-12.709-4.955 1.465-1.244 2.568-2.907 3.127-4.822 1.053-3.608-.006-7.502-2.743-10.08-5.225-4.921-6.744-8.456-7.035-9.791 1.22-.614 4.921-1.658 12.037-.7 3.717.5 7.417-1.126 9.557-4.216 1.136-1.64 1.733-3.545 1.777-5.467 3.043 1.373 7.002 3.507 11.852 6.753 3.475 2.326 8.026 2.243 11.416-.202 3.389-2.447 4.898-6.743 3.785-10.771-1.74-6.299-1.688-10.179-1.369-11.994 4.354 1.173 15.467 8.792 26.312 26.114l.078.124c3.145 5.002 9.507 6.794 14.799 4.175 5.296-2.622 7.728-8.773 5.657-14.306-2.043-5.465-3.974-10.708-5.734-15.496-1.347-3.666-2.701-7.234-4.006-10.678-3.909-10.306-9.108-24.016-9.272-29.771 2.031.562 5.869 2.347 11.235 7 3.158 2.739 7.685 3.225 11.352 1.218 3.667-2.006 5.699-6.081 5.095-10.217-1.006-6.894-1.196-12.096-1.04-15.813 1.974 1.158 4.325 1.626 6.664 1.246 3.71-.603 6.769-3.235 7.918-6.813 2.806-8.737 6.079-11.588 6.988-11.993.083.002.166.002.249 0 .909.405 4.182 3.256 6.988 11.993 1.149 3.579 4.209 6.211 7.919 6.813 2.341.379 4.689-.089 6.662-1.245.157 3.717-.033 8.919-1.04 15.812-.604 4.136 1.429 8.211 5.096 10.217 3.667 2.007 8.192 1.521 11.352-1.218 5.366-4.653 9.203-6.438 11.234-7-.164 5.755-5.364 19.467-9.273 29.774-1.306 3.441-2.658 7.009-4.006 10.674-1.759 4.788-3.689 10.031-5.732 15.494-2.072 5.534.36 11.686 5.656 14.308 5.293 2.619 11.654.825 14.792-4.163l.086-.137c10.844-17.322 21.956-24.94 26.311-26.113.319 1.815.371 5.695-1.369 11.994-1.113 4.028.396 8.324 3.785 10.771 3.391 2.445 7.943 2.527 11.415.202 4.852-3.246 8.81-5.38 11.854-6.753.044 1.922.641 3.826 1.776 5.467 2.142 3.09 5.83 4.723 9.558 4.216 7.112-.957 10.816.086 12.036.7-.291 1.335-1.811 4.87-7.035 9.791-2.736 2.577-3.796 6.472-2.743 10.08.559 1.915 1.662 3.578 3.127 4.822-2.983 1.5-7.133 3.231-12.709 4.955-3.993 1.234-6.797 4.822-7.03 8.996-.233 4.173 2.153 8.051 5.984 9.723 5.515 2.407 8.479 4.703 9.857 6.139-3.096 1.519-12.229 4.271-37.748 4.271-22.371 0-42.213 20.763-58.976 61.711-1.63 3.982-4.453 7.19-7.95 9.302v-96.517c0-5.522-4.478-10-10-10-5.523 0-10 4.478-10 10v96.517c-3.501-2.111-6.324-5.319-7.954-9.301zm227.795 142.769c-3.604-.86-7.39.346-9.834 3.132-2.445 2.785-3.148 6.694-1.828 10.157 1.227 3.22 1.661 5.496 1.768 6.898-5.31-.964-18.522-8-35.02-24.498-6.421-6.42-15.072-9.013-24.515-9.013-8.044 0-16.659 1.889-24.954 4.894l23.743-23.743c3.905-3.905 3.905-10.237 0-14.143-3.904-3.903-10.236-3.905-14.143 0l-23.746 23.746c6.533-18.032 7.774-37.582-4.115-49.471-16.499-16.499-23.536-29.712-24.499-35.021 1.402.106 3.679.541 6.897 1.769 3.461 1.321 7.372.618 10.158-1.827 2.786-2.444 3.991-6.229 3.132-9.835-3.188-13.372-2.583-21.92-1.527-25.354 3.096 1.824 9.306 7.729 15.97 19.751 1.797 3.241 5.253 5.221 8.944 5.15 3.705-.073 7.066-2.19 8.733-5.5 1.608-3.194 3.042-5.071 4.009-6.069 3.01 4.195 7.026 17.96 5.658 39.206-.331 5.143 3.301 9.695 8.389 10.516 5.088.816 9.965-2.362 11.267-7.348.738-2.827 1.566-5.632 2.462-8.334 7.939-23.954 18.711-35.928 23.144-38.136.567 1.169 1.437 3.683 1.737 8.462.231 3.672 2.461 6.92 5.804 8.457s7.259 1.115 10.198-1.102c12.346-9.311 21.131-11.985 24.474-12.005-.021 3.343-2.695 12.128-12.005 24.475-2.215 2.938-2.639 6.854-1.102 10.197s4.785 5.572 8.457 5.804c4.778.301 7.292 1.17 8.462 1.737-2.208 4.432-14.181 15.203-38.135 23.144-2.693.893-5.497 1.72-8.336 2.461-4.986 1.301-8.168 6.179-7.349 11.267.819 5.089 5.377 8.702 10.516 8.389 21.246-1.371 35.014 2.647 39.208 5.659-.998.966-2.876 2.4-6.069 4.008-3.311 1.666-5.428 5.027-5.501 8.732-.073 3.706 1.908 7.148 5.15 8.945 12.024 6.665 17.928 12.875 19.751 15.971-3.434 1.056-11.982 1.659-25.353-1.528z" fill="#89df8f"/></g></svg>