<svg id="Capa_1" enable-background="new 0 0 512.045 512.045" height="512" viewBox="0 0 512.045 512.045" width="512" xmlns="http://www.w3.org/2000/svg"><g id="XMLID_1664_"><path id="XMLID_1561_" d="m399.405 399.404c81.53-81.53 116.634-186.666 97.522-267.971-5.557-23.639-5.396-48.324 1.652-71.563 1.219-4.019 1.776-8.325 1.544-12.793-.979-18.849-16.305-34.174-35.153-35.154-4.468-.232-8.775.325-12.794 1.544-23.238 7.048-47.923 7.209-71.562 1.652-81.305-19.113-186.441 15.992-267.971 97.521-81.531 81.531-116.636 186.667-97.523 267.972 5.557 23.64 5.396 48.325-1.652 71.563-1.219 4.019-1.776 8.325-1.544 12.793.98 18.849 16.305 34.174 35.154 35.153 4.467.232 8.774-.325 12.792-1.544 23.239-7.048 47.924-7.209 71.564-1.652 81.305 19.114 186.441-15.991 267.971-97.521z" fill="#e8d0c1"/><g id="XMLID_1221_" fill="#d1a184"><path id="XMLID_1241_" d="m506.661 129.145c-5.326-22.654-4.812-45.605 1.487-66.372 1.588-5.235 2.247-10.69 1.96-16.213-1.235-23.786-20.836-43.387-44.62-44.622-5.521-.292-10.98.371-16.216 1.961-20.768 6.297-43.716 6.812-66.371 1.486-42.394-9.966-90.646-6.048-139.539 11.332-49.672 17.656-97.32 48.382-137.792 88.853-40.471 40.472-71.196 88.119-88.853 137.792-17.38 48.893-21.299 97.144-11.332 139.539 5.326 22.654 4.812 45.605-1.487 66.372-1.588 5.235-2.247 10.691-1.96 16.214 1.236 23.787 20.836 43.387 44.62 44.621 5.521.29 10.979-.371 16.215-1.96 20.766-6.299 43.717-6.813 66.373-1.487 15.3 3.597 31.358 5.385 47.939 5.385 29.362 0 60.352-5.609 91.599-16.717 49.673-17.657 97.32-48.382 137.792-88.853 40.471-40.472 71.195-88.119 88.853-137.792 17.378-48.893 21.297-97.144 11.332-139.539zm-25.499 118.606c-13.943-7.212-31.41-16.251-50.301-26.235-11.694-6.181-23.2 8.455-14.472 18.393 5.223 5.947 10.673 11.766 16.35 17.443 10.706 10.705 21.922 20.583 33.551 29.679-17.026 37.217-42.079 73.424-73.958 105.303-4.821 4.821-9.74 9.484-14.748 13.989-12.994-6.721-29.004-15.012-46.3-24.144-11.629-6.14-23.11 8.448-14.39 18.29 4.752 5.363 9.694 10.616 14.829 15.75 5.077 5.077 10.276 9.955 15.579 14.653-68.577 49.927-148.026 71.728-213.58 56.32-11.856-2.787-23.805-4.178-35.581-4.178-14.13 0-28.012 2.002-41.174 5.995-3.014.913-6.172 1.294-9.372 1.126-13.691-.711-24.974-11.993-25.686-25.687-.167-3.205.212-6.357 1.126-9.371 7.32-24.133 7.949-50.675 1.817-76.754-6.92-29.436-6.328-61.673.935-94.47 7.064 4.926 14.305 9.684 21.739 14.248 13.009 7.986 26.268 15.215 39.726 21.706 11.461 5.528 22.24-8.688 13.842-18.248l-59.309-67.513c16.086-38.227 40.69-75.672 72.504-108.791 9.835 12.688 20.561 24.91 32.21 36.559 3.804 3.805 7.669 7.512 11.591 11.122 8.884 8.177 22.41-2.519 16.529-13.065-11.535-20.687-21.003-42.215-28.423-64.281 32.31-26.773 67.731-47.073 103.411-59.864 2.149 4.458 4.388 8.895 6.749 13.299 7.409 13.819 15.084 24.961 25.158 36.989 5.897 7.04 17.242 1.265 14.97-7.633l-13.385-52.425c33.055-7.421 65.56-8.075 95.221-1.102 26.078 6.13 52.618 5.504 76.754-1.816 3.013-.914 6.158-1.293 9.372-1.127 13.691.712 24.974 11.995 25.686 25.688.167 3.204-.212 6.356-1.126 9.37-7.32 24.133-7.949 50.675-1.817 76.754 8.294 35.273 5.812 74.568-6.027 114.028z"/><path id="XMLID_1240_" d="m216.345 289.346c-19.307-10.681-35.279-26.653-45.959-45.961-6.327-11.439-23.855-7.41-24.067 5.662-.005.344-.008.689-.008 1.035-.005 34.966 28.37 63.344 63.335 63.343.346 0 .691-.003 1.035-.008 13.074-.211 17.106-17.742 5.664-24.071z"/><path id="XMLID_1238_" d="m190.342 427.393c-16.253-8.991-29.699-22.438-38.69-38.691-5.327-9.63-20.082-6.238-20.26 4.766-.005.29-.007.581-.007.872-.004 29.436 23.883 53.326 53.318 53.325.291 0 .582-.002.871-.007 11.006-.178 14.4-14.937 4.768-20.265z"/><path id="XMLID_1234_" d="m356.719 234.34c-19.307-10.681-35.279-26.653-45.959-45.961-6.327-11.439-23.855-7.41-24.067 5.661-.005.345-.008.689-.008 1.035-.005 34.966 28.369 63.345 63.335 63.344.346 0 .691-.003 1.035-.009 13.074-.21 17.106-17.741 5.664-24.07z"/></g></g></svg>