<svg id="Capa_1" enable-background="new 0 0 512.044 512.044" height="512" viewBox="0 0 512.044 512.044" width="512" xmlns="http://www.w3.org/2000/svg"><g id="XMLID_1_"><path id="XMLID_29_" d="m367.797 22.1c19.195 38.402 11.594 83.194-15.712 113.115l-21.541-1.349c6.963-23.449 5.383-49.492-6.416-73.098z" fill="#e8d0c1"/><path id="XMLID_13_" d="m437.079 293.807c-19.142 124.107-134.134 210.691-259.219 194.089-67.279-8.929-123.947-45.918-159.795-97.617-18.167-26.201-3.913-62.336 27.054-69.924 49.766-12.194 93.357-47.118 108.72-94.616 20.88-66.445 87.101-110.269 158.514-100.758 81.449 10.846 137.252 87.618 124.726 168.826z" fill="#ffda8f"/><path id="XMLID_12_" d="m280.217 168.722c-.356.005.357.013 0 .023-45.684 1.255-83.253 39.069-84.126 84.762-.006.296-.01-.296-.012 0-.066 7.363 9.96 10.083 13.131 3.438 15.102-31.648 42.127-56.512 75.264-68.782 10.542-3.904 6.984-19.614-4.257-19.441z" fill="#fff"/><path id="XMLID_5_" d="m502.044 158.064c-16.891-1.352-33.407-8.487-46.328-21.408-28.861-28.861-75.655-28.861-104.516 0 0 42.488 34.444 76.932 76.932 76.932 35.059 0 64.64-23.451 73.912-55.524" fill="#b8ecbc"/><path d="m510.271 152.379c-1.708-2.471-4.436-4.043-7.429-4.283-15.102-1.208-29.327-7.782-40.055-18.511-22.228-22.227-53.921-29.333-82.221-21.357 3.235-8.136 5.531-16.676 6.786-25.488 3.183-22.341-.486-44.856-10.61-65.112-1.39-2.78-3.993-4.755-7.044-5.347-3.052-.588-6.204.271-8.531 2.331l-43.669 38.668c-3.39 3.002-4.34 7.908-2.314 11.958 7.984 15.974 10.985 33.976 8.753 51.552-3.395-.685-6.816-1.265-10.263-1.724-36.632-4.877-73.9 3.431-104.937 23.398-30.676 19.736-53.56 49.665-64.411 84.195-13.67 42.265-52.595 75.977-101.585 87.98-17.938 4.396-32.547 17.312-39.078 34.553-6.517 17.204-4.262 35.713 6.187 50.782 18.977 27.368 42.88 50.125 71.047 67.641 29.162 18.134 61.343 29.638 95.649 34.191 10.763 1.428 21.507 2.135 32.195 2.134 51.916-.002 102.273-16.686 144.459-48.327 50.796-38.099 84.096-93.603 93.764-156.286 3.775-24.475 1.77-49.372-5.737-72.762 32.989-5.084 60.974-29.036 70.425-61.728.833-2.881.326-5.988-1.381-8.458zm-173.978-89.025 27.643-24.478c9.604 29.032 4.004 60.876-15.38 85.069-1.704-.653-3.42-1.275-5.148-1.866 3.031-19.813.567-40.177-7.115-58.725zm90.904 228.928c-8.867 57.486-39.409 108.39-85.999 143.335-46.656 34.995-104.197 50.039-162.022 42.366-31.472-4.177-60.984-14.724-87.719-31.349-25.834-16.065-47.762-36.943-65.173-62.054-6.64-9.575-8.068-21.349-3.919-32.301 4.198-11.081 13.594-19.385 25.135-22.212 55.674-13.642 100.067-52.439 115.88-101.331 9.476-30.156 29.427-56.241 56.177-73.451 27.053-17.404 59.538-24.646 91.476-20.393 10.448 1.391 20.634 3.998 30.375 7.729 2.899 42.572 36.583 76.823 78.909 80.612 8.084 21.994 10.475 45.74 6.88 69.049zm.934-88.694c-29.79 0-55.089-19.568-63.74-46.522 14.884 9.842 32.49 15.26 50.587 15.26 5.522 0 10-4.477 10-10s-4.478-10-10-10c-17.003 0-33.444-6.131-46.31-17.023 24.756-16.072 58.286-13.265 79.977 8.424 10.977 10.977 24.742 18.641 39.671 22.241-11.064 22.609-34.415 37.62-60.185 37.62z" fill="#ffa96b"/></g></svg>