<svg id="Capa_1" enable-background="new 0 0 512.127 512.127" height="512" viewBox="0 0 512.127 512.127" width="512" xmlns="http://www.w3.org/2000/svg"><g id="XMLID_1707_"><path id="XMLID_990_" d="m330.471 66.838c-2.262 10.962-7.467 20.847-14.75 28.796-9.436 10.298-26.776 3.767-26.838-10.2 0-.091-.001-.182-.001-.273 0-13.824 4.605-26.569 12.355-36.798-26.015 6.971-45.174 26.836-45.174 55.05 0-28.214-19.16-48.079-45.174-55.05 7.751 10.229 12.355 22.975 12.355 36.798 0 .091 0 .182-.001.273-.062 13.967-17.402 20.497-26.838 10.2-7.284-7.949-12.488-17.834-14.75-28.796-4.424 8.448-6.94 18.054-6.94 28.251 0 16.797 6.791 32.006 17.775 43.037h127.146c10.984-11.031 17.775-26.24 17.775-43.037 0-10.197-2.515-19.802-6.94-28.251z" fill="#b8ecbc"/><path id="XMLID_2156_" d="m291.218 138.127c91.84 0 166.291 74.451 166.291 166.291 0 109.192-88.518 197.709-197.709 197.709h-7.472c-109.192 0-197.709-88.518-197.709-197.709 0-91.84 74.451-166.291 166.291-166.291z" fill="#ff9eb1"/><path id="XMLID_1172_" d="m171.009 218.852c9.376-10.765-3.966-26.338-15.989-18.642-32.271 20.655-55.231 54.773-55.231 93.364 0 18.834 3.838 36.772 10.774 53.074 5.609 13.184 25.403 8.112 23.801-6.125-.762-6.779-1.154-13.669-1.154-20.652-.001-38.66 14.256-73.989 37.799-101.019z" fill="#fff"/><g id="XMLID_639_"><path id="XMLID_640_" d="m335.895 133.869c7.488-11.436 11.516-24.8 11.516-38.779 0-11.422-2.794-22.796-8.08-32.891-1.96-3.744-6.064-5.851-10.249-5.265-4.186.588-7.55 3.743-8.404 7.882-1.848 8.956-6.111 17.276-12.33 24.062-2.277 2.486-4.994 1.8-6.058 1.389-1.02-.394-3.394-1.794-3.408-4.969 0-11.207 3.57-21.98 10.326-30.896 2.58-3.406 2.712-8.075.327-11.62s-6.753-5.188-10.887-4.078c-13.007 3.486-24.036 9.562-32.585 17.604v-8.309c0-15.438 12.561-27.999 28-27.999 5.522 0 10-4.478 10-10s-4.478-10-10-10c-26.468 0-48 21.532-48 47.999v8.309c-8.549-8.041-19.578-14.118-32.585-17.604-4.129-1.108-8.501.532-10.887 4.078-2.385 3.545-2.253 8.214.327 11.62 6.756 8.916 10.326 19.634 10.326 30.923h-.001c-.014 3.219-2.388 4.548-3.407 4.942-1.063.411-3.78 1.098-6.058-1.389-6.219-6.786-10.482-15.106-12.33-24.062-.854-4.139-4.219-7.294-8.404-7.882-4.191-.584-8.289 1.521-10.249 5.265-5.286 10.095-8.08 21.469-8.08 32.891 0 13.979 4.028 27.343 11.516 38.779-75.643 19.83-131.614 88.773-131.614 170.549 0 114.531 93.179 207.709 207.71 207.709h7.471c114.531 0 207.71-93.178 207.71-207.709.001-81.775-55.97-150.719-131.613-170.549zm-146.862-31.478c7.135 7.786 18.131 10.351 28.011 6.533 9.795-3.784 16.154-13.14 16.2-23.598 0-.015 0 .015 0 0h.001c0-5.065-.524-10.211-1.555-15.055 9.247 8.386 14.373 19.836 14.373 33.144 0 5.522 4.478 10 10 10s10-4.478 10-10c0-13.308 5.126-24.758 14.373-33.144-1.03 4.844-1.554 9.995-1.554 15.061.046 10.458 6.406 19.809 16.201 23.593 9.879 3.817 20.874 1.253 28.011-6.533 1.508-1.646 2.933-3.355 4.272-5.125-.478 11.431-4.708 22.194-12.102 30.861h-118.402c-7.394-8.667-11.624-19.431-12.102-30.861 1.341 1.768 2.765 3.478 4.273 5.124zm70.766 389.736h-7.471c-103.504 0-187.71-84.206-187.71-187.709 0-86.179 70.112-156.291 156.291-156.291h70.309c86.179 0 156.291 70.112 156.291 156.291 0 103.503-84.206 187.709-187.71 187.709z" fill="#ff5d7d"/></g></g></svg>