<svg id="Capa_1" enable-background="new 0 0 512 512" height="512" viewBox="0 0 512 512" width="512" xmlns="http://www.w3.org/2000/svg"><g id="XMLID_2429_"><g id="XMLID_2482_"><path id="XMLID_2494_" d="m362.37 169.342.072.072-274.631 274.631c-17.867 17.867-38.457 31.471-60.445 40.801 66.837 23.521 144.532 8.101 197.941-45.308l203.63-203.63c18.664-18.664 31.115-42.468 35.896-68.172 1.773-9.529-1.261-19.323-8.115-26.176-6.854-6.854-16.647-9.887-26.176-8.115-25.704 4.782-49.508 17.233-68.172 35.897z" fill="#b8ecbc"/><path id="XMLID_2493_" d="m430.542 133.446c-12.114 2.253-23.796 6.23-34.726 11.738 1.778 5.943 5.011 11.543 9.705 16.237 5.83 5.83 13.058 9.401 20.604 10.733 1.332 7.546 4.903 14.774 10.733 20.604 4.694 4.694 10.294 7.927 16.237 9.705 5.508-10.93 9.485-22.612 11.738-34.726 1.773-9.529-1.261-19.323-8.115-26.176-6.854-6.854-16.647-9.888-26.176-8.115z" fill="#d0f2d2"/><g fill="#f5fade"><circle id="XMLID_2492_" cx="217.002" cy="381.347" r="36.461"/><circle id="XMLID_2491_" cx="165.437" cy="432.912" r="36.461"/><circle id="XMLID_2490_" cx="268.566" cy="329.783" r="36.461"/><circle id="XMLID_2489_" cx="320.13" cy="278.219" r="36.461"/><circle id="XMLID_2488_" cx="371.695" cy="226.654" r="36.461"/></g></g><g id="XMLID_2368_"><path id="XMLID_2380_" d="m345.004 53.616.072.072-274.631 274.631c-17.867 17.867-38.457 31.471-60.445 40.801 66.837 23.521 144.532 8.101 197.941-45.308l203.63-203.63c18.664-18.664 31.115-42.468 35.896-68.172 1.773-9.529-1.261-19.323-8.115-26.176-6.854-6.854-16.647-9.887-26.176-8.115-25.704 4.782-49.508 17.233-68.172 35.897z" fill="#b8ecbc"/><path id="XMLID_2379_" d="m413.176 17.72c-12.114 2.253-23.796 6.23-34.726 11.738 1.778 5.943 5.011 11.543 9.705 16.237 5.83 5.83 13.058 9.401 20.604 10.733 1.332 7.546 4.903 14.774 10.733 20.604 4.694 4.694 10.294 7.927 16.237 9.705 5.508-10.93 9.485-22.612 11.738-34.726 1.773-9.529-1.261-19.323-8.115-26.176s-16.647-9.888-26.176-8.115z" fill="#d0f2d2"/><path id="XMLID_34_" d="m509.071 134.489c-14.213-14.213-36.157-16.087-52.419-5.638-8.249-5.104-18.19-7.051-27.939-5.236-2.807.522-5.581 1.149-8.334 1.835 19.116-19.801 31.877-44.498 36.92-71.61 1.648-8.858.194-17.875-3.911-25.636 2.687-1.141 5.599-1.748 8.606-1.748 5.881 0 11.411 2.291 15.57 6.45 1.953 1.952 4.512 2.929 7.071 2.929s5.119-.977 7.071-2.929c3.905-3.905 3.906-10.237 0-14.143-7.937-7.937-18.489-12.308-29.712-12.308-8.181 0-16 2.332-22.714 6.665-8.247-5.101-18.185-7.049-27.932-5.232-27.934 5.195-53.32 18.563-73.414 38.656-.34.34-274.559 274.703-274.559 274.703-16.553 16.554-35.825 29.562-57.281 38.667-3.8 1.612-6.219 5.394-6.089 9.52s2.782 7.748 6.675 9.118c21.289 7.492 43.615 11.266 66.067 11.265 14.5 0 29.055-1.574 43.41-4.736 7.824-1.724 15.502-3.911 23.006-6.531l-58.423 58.424c-16.554 16.555-35.826 29.564-57.28 38.668-3.8 1.612-6.219 5.394-6.089 9.52s2.782 7.748 6.676 9.118c21.289 7.492 43.615 11.266 66.067 11.265 14.5 0 29.055-1.574 43.41-4.737 37.47-8.255 71.653-26.996 98.854-54.196l203.63-203.63c20.093-20.095 33.46-45.48 38.656-73.414 1.647-8.853.197-17.864-3.902-25.622 8.017-3.39 17.644-1.837 24.168 4.687 1.953 1.952 4.512 2.929 7.071 2.929s5.119-.977 7.071-2.929c3.905-3.906 3.904-10.238-.001-14.144zm-76.7 8.788c6.29-1.169 12.748.829 17.273 5.352.001.001.002.002.002.002.002.002.003.003.004.004 4.522 4.523 6.522 10.981 5.351 17.273-1.495 8.04-3.799 15.825-6.827 23.284-1.507-1.02-2.927-2.186-4.246-3.505-4.18-4.179-6.931-9.46-7.956-15.271-.73-4.14-3.972-7.381-8.111-8.11-5.81-1.025-11.09-3.776-15.271-7.956-1.319-1.319-2.485-2.738-3.505-4.244 7.46-3.029 15.246-5.333 23.286-6.829zm-17.367-115.726c6.295-1.166 12.753.831 17.277 5.355 4.523 4.523 6.525 10.981 5.354 17.275-1.496 8.041-3.799 15.826-6.827 23.285-1.507-1.02-2.926-2.186-4.246-3.505-4.179-4.179-6.93-9.46-7.956-15.271-.73-4.14-3.971-7.38-8.109-8.11-5.812-1.026-11.093-3.777-15.271-7.956-1.319-1.318-2.483-2.739-3.504-4.246 7.459-3.028 15.243-5.332 23.282-6.827zm-377.347 338.791c14.473-8.553 27.815-18.908 39.859-30.951 0 0 275.265-275.311 275.539-275.673 6.356-6.213 13.313-11.651 20.754-16.259 2.036 3.375 4.477 6.512 7.273 9.308 5.503 5.503 12.133 9.548 19.438 11.898 2.351 7.305 6.396 13.936 11.899 19.438 2.796 2.796 5.927 5.239 9.299 7.273-4.845 7.824-10.603 15.117-17.221 21.735l-203.627 203.63c-42.928 42.929-104.814 61.176-163.213 49.601zm384.208-137.504-203.629 203.63c-42.926 42.925-104.819 61.169-163.213 49.601 14.473-8.554 27.815-18.908 39.859-30.952l276.068-276.172c6.213-6.002 12.986-11.277 20.223-15.759 2.035 3.375 4.479 6.508 7.276 9.306 5.504 5.503 12.134 9.548 19.438 11.899 2.351 7.304 6.396 13.935 11.899 19.437 2.796 2.796 5.927 5.24 9.299 7.275-4.845 7.824-10.602 15.117-17.22 21.735z" fill="#89df8f"/></g></g></svg>