<svg id="Capa_1" enable-background="new 0 0 511.99 511.99" height="512" viewBox="0 0 511.99 511.99" width="512" xmlns="http://www.w3.org/2000/svg"><g id="XMLID_1610_"><path id="XMLID_1194_" d="m11.222 500.841c1.52 1.52 4.357 1.478 7.872.172 10.232-3.801 20.857-6.523 31.759-7.066 46.233-2.304 79.679-3.903 186.032-110.256 67.831-67.831 64.247-112.829 34.282-142.794s-74.963-33.55-142.794 34.282c-106.354 106.352-107.953 139.798-110.257 186.031-.543 10.902-3.264 21.527-7.066 31.759-1.306 3.515-1.348 6.352.172 7.872z" fill="#fff"/><path id="XMLID_1389_" d="m387.276 280.858c3.101-4.505 8.76-6.643 14.024-5.158 8.221 2.319 17.165 2.456 25.979-.072 10.932-3.136 19.864-9.851 25.897-18.506 2.604-3.735 6.861-5.864 11.413-5.731 4.074.119 8.244-.45 12.362-1.798 17.568-5.75 28.135-24.234 24.134-42.28-4.572-20.62-25.464-32.833-45.46-27.098-3.7 1.061-7.098 2.662-10.136 4.691-3.777 2.523-8.511 2.957-12.688 1.174-9.704-4.142-20.838-5.103-31.771-1.967-8.732 2.505-16.186 7.295-21.907 13.533-3.756 4.095-9.764 5.405-14.865 3.202-11.821-5.106-25.539-6.029-38.836-1.475-26.877 9.206-42.052 38.347-34.27 65.671 8.16 28.649 38.018 45.224 66.639 37.015 12.48-3.58 22.658-11.281 29.485-21.201z" fill="#e0ef9b"/><path id="XMLID_1398_" d="m231.06 124.642c4.505-3.101 6.643-8.76 5.158-14.024-2.319-8.221-2.456-17.165.072-25.979 3.136-10.932 9.851-19.864 18.506-25.897 3.735-2.604 5.864-6.861 5.731-11.413-.119-4.074.45-8.244 1.798-12.362 5.75-17.568 24.234-28.135 42.28-24.134 20.62 4.572 32.833 25.464 27.098 45.46-1.061 3.7-2.662 7.098-4.691 10.136-2.523 3.777-2.957 8.511-1.174 12.688 4.142 9.704 5.103 20.838 1.967 31.771-2.505 8.732-7.295 16.186-13.533 21.907-4.095 3.756-5.405 9.764-3.202 14.865 5.106 11.821 6.029 25.539 1.475 38.836-9.206 26.877-38.347 42.052-65.671 34.27-28.649-8.16-45.224-38.018-37.015-66.639 3.58-12.48 11.281-22.657 21.201-29.485z" fill="#e0ef9b"/><path id="XMLID_1346_" d="m362.835 208.061c.529-5.444 4.442-10.057 9.766-11.31 8.315-1.957 16.204-6.172 22.688-12.656 8.042-8.042 12.598-18.245 13.68-28.74.467-4.529 3.159-8.455 7.204-10.545 3.621-1.87 6.993-4.39 9.941-7.565 12.578-13.545 12.862-34.835.614-48.68-13.994-15.819-38.188-16.374-52.898-1.665-2.722 2.722-4.917 5.769-6.591 9.016-2.081 4.037-6.01 6.712-10.529 7.177-10.496 1.081-20.7 5.637-28.742 13.68-6.424 6.424-10.621 14.227-12.601 22.456-1.3 5.402-5.92 9.461-11.449 10.006-12.814 1.264-25.26 7.107-34.683 17.536-19.046 21.081-18.192 53.925 1.859 74.052 21.024 21.103 55.175 21.126 76.229.072 9.18-9.178 14.348-20.848 15.512-32.834z" fill="#f5fade"/><path id="XMLID_1252_" d="m261.989 231.719 96.726-81.71c2.218-1.874 5.212 1.12 3.338 3.338l-81.71 96.726z" fill="#e0ef9b"/><g fill="#dae6e6"><path id="XMLID_1719_" d="m251.307 358.471c-20.571-20.571-34.524-39.971-31.165-43.331 3.36-3.36 22.76 10.593 43.331 31.165z"/><path id="XMLID_1752_" d="m162.229 447.549c-20.571-20.571-34.524-39.971-31.165-43.331 3.36-3.36 22.76 10.593 43.331 31.165z"/><path id="XMLID_2691_" d="m132.662 278.697c20.571 20.571 39.971 34.524 43.331 31.165s-10.593-22.76-31.165-43.331z"/><path id="XMLID_2692_" d="m102.165 312.433c15.733 15.733 31.029 25.946 34.163 22.812 3.135-3.134-7.079-18.43-22.812-34.163z"/></g><g id="XMLID_54_" fill="#cbe558"><path id="XMLID_72_" d="m510.849 205.147c-2.803-12.639-10.452-23.232-21.54-29.828-10.934-6.505-24.213-8.225-36.44-4.717-4.617 1.324-8.969 3.34-12.932 5.987-.964.646-2.133.751-3.209.293-6.929-2.958-14.362-4.495-21.827-4.594 2.077-5.061 3.449-10.417 4.015-15.909.12-1.163.793-2.142 1.846-2.686 4.747-2.451 9.013-5.696 12.68-9.645 16.002-17.232 16.343-44.515.776-62.11-8.578-9.696-20.404-15.254-33.3-15.648-12.747-.394-25.167 4.545-34.159 13.538-3.395 3.396-6.225 7.268-8.408 11.506-.531 1.031-1.503 1.691-2.665 1.812-5.546.571-10.953 1.961-16.057 4.072-.074-7.532-1.609-15.037-4.594-22.028-.459-1.074-.352-2.244.292-3.208 2.649-3.967 4.664-8.318 5.988-12.934 3.507-12.225 1.787-25.507-4.717-36.44-6.597-11.088-17.19-18.737-29.829-21.539-22.943-5.087-46.634 8.438-53.949 30.786-1.675 5.119-2.446 10.424-2.29 15.767.035 1.185-.495 2.247-1.453 2.915-10.809 7.535-18.764 18.666-22.4 31.345-2.954 10.297-2.983 21.173-.084 31.451.312 1.106-.183 2.369-1.204 3.071-12.144 8.359-21.073 20.776-25.143 34.965-4.708 16.415-2.735 33.678 5.558 48.607 2.275 4.097 4.964 7.87 7.989 11.303-.479.07-.957.136-1.438.214-27.32 4.466-57.956 23.514-91.055 56.612-49.782 49.783-80.273 87.289-95.956 118.035-14.963 29.334-16.056 51.263-17.217 74.57-.442 8.865-2.552 18.277-6.452 28.774-3.76 10.121-.063 15.889 2.476 18.427 1.761 1.761 5.075 4.077 10.317 4.077 2.315 0 5.007-.452 8.107-1.604 10.496-3.9 19.908-6.011 28.865-6.456 23.217-1.157 45.146-2.25 74.48-17.213 30.745-15.683 68.251-46.174 118.033-95.956 33.1-33.1 52.146-63.734 56.612-91.055.079-.486.146-.969.217-1.453 3.395 2.972 7.119 5.616 11.157 7.859 9.619 5.343 20.204 8.062 30.909 8.062 5.91 0 11.858-.83 17.697-2.505 14.188-4.069 26.606-12.998 34.966-25.143.702-1.021 1.966-1.516 3.071-1.204 10.276 2.898 21.151 2.87 31.451-.084 12.679-3.637 23.811-11.592 31.345-22.4.668-.958 1.729-1.527 2.913-1.453 5.343.146 10.646-.613 15.769-2.289 22.352-7.313 35.874-31.01 30.789-53.947zm-175.809-81.301c6.175-6.175 14.022-9.911 22.694-10.805 7.888-.812 14.765-5.5 18.396-12.544 1.236-2.399 2.842-4.595 4.772-6.525 4.985-4.986 11.552-7.703 18.57-7.703.277 0 .556.005.835.013 7.323.225 14.047 3.389 18.931 8.91 8.832 9.982 8.633 25.466-.452 35.249-2.09 2.25-4.513 4.096-7.201 5.484-7.055 3.644-11.75 10.523-12.562 18.404-.895 8.673-4.63 16.521-10.805 22.695-4.942 4.943-11.135 8.398-17.907 9.992-9.474 2.229-16.478 10.298-17.429 20.077v.002c-.978 10.07-5.463 19.563-12.63 26.729-8.283 8.284-19.293 12.845-31.006 12.844-.014 0-.027 0-.041 0-11.729-.011-22.747-4.593-31.026-12.902-16.191-16.252-16.875-43.298-1.523-60.29 7.356-8.143 17.388-13.217 28.243-14.288 9.773-.964 17.887-8.044 20.191-17.618 1.611-6.698 5.052-12.827 9.95-17.724zm-115.568 33.038c2.795-9.743 8.924-18.269 17.257-24.005 8.094-5.569 11.756-15.607 9.114-24.976-1.889-6.696-1.868-13.787.06-20.508 2.408-8.394 7.46-15.466 14.612-20.45 6.5-4.53 10.241-11.974 10.009-19.909-.089-3.026.351-6.041 1.306-8.958 4.153-12.688 17.604-20.365 30.612-17.483 7.196 1.596 13.224 5.942 16.97 12.239 3.749 6.303 4.701 13.655 2.681 20.7-.753 2.625-1.896 5.094-3.396 7.34-4.399 6.588-5.167 14.875-2.055 22.168 3.423 8.019 3.96 16.694 1.553 25.088-.951 3.315-2.246 6.775-4.033 9.675-3.958 5.762-6.87 12.244-8.516 19.086-.309 1.283-1.422 2.268-2.709 2.395-15.818 1.561-30.422 8.942-41.12 20.783-10.936 12.104-16.727 27.852-16.309 44.342.047 1.845.182 3.674.382 5.489-9.608-3.676-17.545-10.534-22.6-19.634-5.696-10.253-7.052-22.109-3.818-33.382zm61.359 139.596c-3.776 23.101-20.94 50.063-51.017 80.139-103.558 103.559-135.356 105.143-179.459 107.341-8.754.436-17.78 2.131-27.413 5.16 3.029-9.636 4.726-18.678 5.166-27.504 2.192-44.011 3.776-75.809 107.334-179.367 30.076-30.076 57.039-47.24 80.139-51.017 3.247-.53 6.413-.797 9.507-.797 14.426 0 27.261 5.787 39.006 17.532 14.267 14.265 19.741 30.134 16.737 48.513zm193.01-56.39c-2.919.954-5.937 1.402-8.96 1.305-7.899-.215-15.377 3.51-19.908 10.009-4.984 7.151-12.057 12.204-20.45 14.612-6.722 1.929-13.812 1.949-20.509.06-9.368-2.638-19.405 1.021-24.975 9.113-5.736 8.335-14.262 14.463-24.005 17.258-11.274 3.233-23.129 1.877-33.382-3.816-9.027-5.015-15.851-12.863-19.549-22.367 2.336.258 4.697.404 7.082.406h.061c17.054 0 33.087-6.641 45.146-18.701 10.438-10.436 16.97-24.265 18.395-38.938.12-1.234.985-2.281 2.104-2.544 6.834-1.609 13.52-4.591 19.287-8.5 2.899-1.787 6.294-3.309 9.609-4.26 8.394-2.407 17.07-1.87 25.089 1.553 7.292 3.112 15.581 2.344 22.17-2.057 2.243-1.498 4.712-2.641 7.337-3.394 7.048-2.019 14.397-1.069 20.7 2.681 6.297 3.746 10.645 9.772 12.24 16.969 2.886 13.01-4.794 26.457-17.482 30.611z"/><path id="XMLID_105_" d="m394.179 197.985c-.16.098.163-.089 0 0z"/></g></g></svg>