<svg id="Capa_1" enable-background="new 0 0 512 512" height="512" viewBox="0 0 512 512" width="512" xmlns="http://www.w3.org/2000/svg"><g id="XMLID_1388_"><path id="XMLID_52_" d="m213.89 398.592h84.652v103.407h-84.652z" fill="#b8ecbc"/><path id="XMLID_1208_" d="m321.283 84.803c-3.399-36.713-30.166-66.635-65.283-74.803-35.049 8.153-61.781 37.975-65.263 74.591l65.263 76.909z" fill="#e7f9e9"/><g fill="#b8ecbc"><path id="XMLID_1222_" d="m315.686 195.854c-4.584-39.822-28.556-71.893-59.686-81.063-31.131 9.171-55.104 41.245-59.687 81.07l59.687 49.184z"/><path id="XMLID_1134_" d="m285.424 132.088c11.669-31.878 38.926-56.242 72.541-63.865 28.268 16.721 47.695 46.804 49.574 81.557l-80.539 74.22z"/><path id="XMLID_993_" d="m365.047 195.413c11.527-24.903 32.991-44.267 59.303-53.008 10.706 15.932 16.955 35.109 16.955 55.747 0 17.252-4.366 33.483-12.052 47.651l-31.213 5.852z"/></g><path id="XMLID_1207_" d="m283.867 237.084c14.514-25.435 38.875-44.524 67.891-52.077 23.626 15.739 40.827 40.361 46.825 69.097l-67.251 51.896z" fill="#e7f9e9"/><path id="XMLID_1243_" d="m226.575 132.088c-11.669-31.878-38.926-56.242-72.541-63.865-28.268 16.721-47.695 46.804-49.574 81.557l80.54 74.22z" fill="#b8ecbc"/><path id="XMLID_1239_" d="m146.952 195.413c-11.527-24.903-32.991-44.267-59.303-53.008-10.706 15.932-16.955 35.109-16.955 55.747 0 17.252 4.366 33.483 12.052 47.651l31.213 5.852z" fill="#b8ecbc"/><path id="XMLID_1237_" d="m228.133 237.084c-14.514-25.435-38.875-44.524-67.891-52.077-23.626 15.739-40.827 40.361-46.825 69.097l67.25 51.896z" fill="#e7f9e9"/><path id="XMLID_1206_" d="m256 194.948-62.833 95.009c-19.75 29.864-15.751 69.504 9.566 94.821 29.419 29.419 77.116 29.419 106.534 0 25.317-25.317 29.317-64.957 9.566-94.821z" fill="#b8ecbc"/><path id="XMLID_2147_" d="m182.377 315.526c-20.95-38.505-59.937-65.777-105.616-70.472l4.42 82.307c2.002 37.275 29.965 67.992 66.889 73.476 18.076 2.685 35.615-1.037 50.351-9.431z" fill="#b8ecbc"/><path id="XMLID_2104_" d="m329.622 315.528c20.949-38.506 59.937-65.779 105.617-70.474l-4.42 82.307c-2.002 37.275-29.965 67.992-66.889 73.476-18.076 2.685-35.615-1.037-50.351-9.431z" fill="#b8ecbc"/><g id="XMLID_8_" fill="#89df8f"><path id="XMLID_112_" d="m451.304 198.152c0-21.956-6.45-43.162-18.654-61.323-2.506-3.73-7.189-5.328-11.452-3.913-1.82.604-3.62 1.257-5.399 1.955-5.822-31.284-24.846-58.753-52.744-75.254-2.198-1.301-4.811-1.71-7.303-1.145-9.615 2.181-18.743 5.585-27.223 10.042-8.81-33.634-35.531-60.174-70.264-68.254-1.49-.346-3.041-.346-4.531 0-34.708 8.073-61.45 34.624-70.266 68.253-8.48-4.457-17.607-7.861-27.221-10.041-2.49-.564-5.104-.155-7.303 1.145-27.898 16.501-46.921 43.97-52.744 75.254-1.779-.697-3.579-1.35-5.399-1.955-4.262-1.415-8.947.184-11.452 3.913-12.204 18.161-18.654 39.367-18.654 61.323 0 14.098 2.732 28.088 7.948 41.083-1.314 1.833-1.991 4.068-1.868 6.356l4.421 82.307c2.247 41.841 33.959 76.676 75.404 82.831 4.42.656 8.832.982 13.215.982 15.219 0 30.588-4.265 44.074-11.946.18-.103-.171.112 0 0v102.235c0 5.522 4.478 10 10 10h84.652c5.522 0 10-4.478 10-10v-101.96c.03.018-.03-.017 0 0 13.487 7.682 28.423 11.672 43.643 11.671 4.382 0 8.795-.326 13.214-.982 41.445-6.154 73.158-40.99 75.406-82.831l4.42-82.307c.123-2.288-.554-4.523-1.868-6.356 5.217-12.995 7.948-26.985 7.948-41.083zm-20 0c0 13.383-3 26.641-8.695 38.638-5.807 1.074-11.511 2.494-17.088 4.243-5.558-17.984-15.194-34.229-28.183-47.662 9.659-17.186 24.768-30.841 42.815-38.667 7.316 13.256 11.151 28.127 11.151 43.448zm-269.234-2.229c22.144 6.874 41.459 21.505 54.201 40.968l-31.446 47.548c-1.856 2.806-3.508 5.697-4.993 8.646-14.39-19.282-33.196-34.597-54.65-44.746 6.179-21.048 19.013-39.339 36.888-52.416zm93.93-70.626c25.971 9.172 45.781 37.503 49.738 71.599-8.171 6.377-15.533 13.801-21.849 22.093l-19.548-29.559c-1.852-2.8-4.984-4.483-8.341-4.483s-6.489 1.684-8.341 4.483l-19.548 29.558c-6.316-8.292-13.678-15.716-21.849-22.093 3.957-34.095 23.766-62.425 49.738-71.598zm-46.197 252.41c-21.862-21.861-25.351-56.446-8.296-82.233l54.493-82.398 54.492 82.397c17.055 25.787 13.566 60.372-8.296 82.233-25.473 25.473-66.92 25.473-92.393.001zm117.371-93.267-31.445-47.548c12.742-19.463 32.057-34.095 54.201-40.969 17.875 13.077 30.709 31.368 36.887 52.417-21.454 10.149-40.261 25.464-54.65 44.746-1.486-2.949-3.138-5.84-4.993-8.646zm29.109-205.492c22.698 14.792 37.558 38.718 40.752 65.461-14.17 8.999-26.205 21.175-35.033 35.569-1.537-1.13-3.103-2.229-4.701-3.294-2.372-1.58-5.306-2.071-8.063-1.355-8.749 2.277-17.173 5.554-25.119 9.711-3.375-17.494-10.291-33.646-20.281-47.157-2.119-2.865-4.353-5.567-6.684-8.118 11.111-25.015 32.681-43.598 59.129-50.817zm-100.283-58.645c28.537 7.571 49.8 31.072 54.615 59.976-11.99 9.664-21.933 21.811-29.093 35.813-7.063-4.851-14.679-8.533-22.696-10.895-1.846-.543-3.807-.543-5.652 0-8.018 2.362-15.633 6.043-22.696 10.895-7.16-14.002-17.102-26.148-29.09-35.812 4.816-28.897 26.094-52.409 54.612-59.977zm-100.283 58.645c26.448 7.219 48.018 25.802 59.129 50.816-2.331 2.552-4.566 5.255-6.686 8.121-9.99 13.51-16.904 29.661-20.279 47.154-7.946-4.157-16.371-7.434-25.119-9.711-2.758-.716-5.691-.225-8.063 1.355-1.598 1.064-3.164 2.164-4.701 3.294-8.828-14.395-20.864-26.571-35.033-35.569 3.194-26.742 18.054-50.669 40.752-65.46zm-63.871 75.757c18.048 7.825 33.156 21.48 42.815 38.667-12.989 13.433-22.625 29.678-28.183 47.662-5.577-1.749-11.281-3.169-17.089-4.243-5.695-11.998-8.695-25.255-8.695-38.638.001-15.322 3.836-30.193 11.152-43.448zm57.693 236.24c-32.083-4.765-56.632-31.73-58.372-64.12l-3.764-70.068c35.385 7.034 66.236 29.015 84.52 60.58-3.918 23.583 2.138 48.305 17.492 67.504-12.405 6.032-26.093 8.151-39.876 6.104zm74.35 101.055v-81.393c10.065 4.085 20.921 6.236 32.11 6.236 11.348 0 22.357-2.203 32.542-6.402v81.559zm196.945-165.175c-1.74 32.39-26.29 59.355-58.374 64.12-13.777 2.05-27.468-.071-39.875-6.105 15.355-19.199 21.411-43.921 17.492-67.504 18.284-31.564 49.135-53.545 84.52-60.579z"/><ellipse id="XMLID_111_" cx="256.216" cy="365" rx="24.521" ry="13.25"/><path id="XMLID_15_" d="m354.689 362.581c3.531 6.41 16.009 6.308 27.871-.226s18.616-17.027 15.085-23.437-16.009-6.309-27.871.226c-11.862 6.534-18.616 17.027-15.085 23.437z"/><path id="XMLID_9_" d="m142.225 339.144c-11.862-6.535-24.34-6.636-27.871-.226s3.223 16.903 15.085 23.437 24.34 6.636 27.871.226-3.223-16.903-15.085-23.437z"/></g><ellipse id="XMLID_1232_" cx="256.216" cy="365" fill="#fff" rx="24.521" ry="13.25"/><ellipse id="XMLID_1244_" cx="376.167" cy="350.75" fill="#fff" rx="24.521" ry="13.25" transform="matrix(.876 -.483 .483 .876 -122.553 225.03)"/><ellipse id="XMLID_1246_" cx="135.832" cy="350.75" fill="#fff" rx="13.25" ry="24.521" transform="matrix(.483 -.876 .876 .483 -236.927 300.488)"/></g></svg>