<svg id="Capa_1" enable-background="new 0 0 510.989 510.989" height="512" viewBox="0 0 510.989 510.989" width="512" xmlns="http://www.w3.org/2000/svg"><g id="XMLID_64_"><path id="XMLID_1837_" d="m219.344 140.405c-.116-2.618-.174-5.254-.174-7.908 0-48.456 19.517-91.305 49.408-117.304 7.528-6.548 18.572-7.039 26.563-1.066 8.564 6.402 11.159 18.241 5.772 27.478-9.562 16.395-15.191 36.494-15.191 58.211 0 12.81 1.959 29.332 5.528 40.588h-71.906z" fill="#b8ecbc"/><g fill="#ffbe90"><path id="XMLID_1823_" d="m219.858 116.852c-7.886-7.98-18.836-12.925-30.942-12.925-19.271 0-35.615 12.532-41.327 29.891l72.269 10.508z"/><path id="XMLID_1838_" d="m291.131 116.852c7.886-7.98 18.836-12.925 30.942-12.925 19.271 0 35.615 12.532 41.327 29.891l-72.269 10.508z"/><path id="XMLID_1600_" d="m164.637 482.655c-43.123 2.98-81.041-28.301-86.311-71.204l-21.61-175.927c-6.342-51.63 31.924-98.015 83.819-101.601 51.894-3.587 96.178 37.093 96.999 89.105l2.797 177.227c.683 43.22-32.571 79.419-75.694 82.4z"/><path id="XMLID_1597_" d="m316.828 474.887c9.016 4.321 18.974 7.038 29.523 7.768 43.123 2.98 81.04-28.301 86.31-71.204l21.61-175.927c6.342-51.63-31.924-98.015-83.819-101.601-51.894-3.587-96.178 37.093-96.999 89.105l-2.797 177.227c-.514 32.647 18.334 61.288 46.172 74.632"/><path id="XMLID_1642_" d="m255.494 500.989c-44.964 0-82.068-35.18-84.46-80.08l-9.808-184.113c-2.878-54.033 40.158-99.423 94.267-99.423 54.109 0 97.146 45.39 94.267 99.423l-9.808 184.113c-2.39 44.9-39.494 80.08-84.458 80.08z"/></g><path id="XMLID_673_" d="m209.139 311.284c6.066 0 10.882-5.106 10.527-11.162l-3.271-55.764c-1.422-24.242 14.886-45.453 38.408-53.559 6.526-2.249 7.252-11.202 1.211-14.543-1.282-.709-2.735-1.048-4.2-.997-33.096 1.148-59.031 26.718-57.253 57.025l4.052 69.074c.326 5.573 4.942 9.926 10.526 9.926z" fill="#fff"/><path id="XMLID_404_" d="m103.139 301.284c6.066 0 10.882-5.106 10.527-11.162l-3.271-55.764c-1.422-24.242 14.886-45.453 38.408-53.559 6.526-2.249 7.252-11.202 1.211-14.543-1.282-.709-2.735-1.048-4.2-.997-33.096 1.148-59.031 26.718-57.253 57.025l4.052 69.074c.326 5.573 4.942 9.926 10.526 9.926z" fill="#fff"/><path id="XMLID_725_" d="m441.916 160.343c-17.452-21.154-42.001-33.991-69.26-36.274-8.723-18.013-28.651-30.142-50.583-30.142-8.89 0-18.003 2.77-26.329 7.814-.01-.646-.02-1.291-.02-1.924 0-19.274 4.782-37.661 13.829-53.173 7.925-13.59 4.304-31.012-8.423-40.525-11.643-8.702-28.092-8.06-39.113 1.53-25.604 22.269-43.215 55.253-49.877 91.919-7.18-3.71-15.012-5.641-23.223-5.641-21.307 0-40.796 12.083-49.591 30.061-27.656 2.051-52.59 14.945-70.253 36.355-17.773 21.546-25.687 48.678-22.282 76.4l21.61 175.927c5.658 46.059 44.806 80.181 90.548 80.181 2.112 0 4.241-.072 6.378-.22 9.273-.642 18.256-2.67 26.809-6 16.805 15.166 39.053 24.357 63.359 24.357s46.555-9.191 63.36-24.358c8.555 3.33 17.54 5.36 26.808 6 2.14.147 4.263.22 6.378.22 45.738 0 84.89-34.125 90.548-80.182l21.61-175.927c3.404-27.72-4.509-54.852-22.283-76.398zm-119.844-46.416c10.404 0 20.274 4.242 26.899 10.941-14.81 2.256-28.967 7.804-41.454 16.315-2.178-1.257-4.398-2.433-6.658-3.524-1.093-3.495-2.073-7.772-2.876-12.425 7.107-7.083 16.088-11.307 24.089-11.307zm-46.929-91.188c4.031-3.508 9.794-3.756 14.013-.601 4.58 3.424 5.922 9.627 3.12 14.43-10.828 18.567-16.552 40.438-16.552 63.249 0 9.846 1.018 20.591 2.743 30.067-7.443-1.655-15.132-2.511-22.972-2.511-9.015 0-17.832 1.123-26.302 3.303.471-43.007 17.564-83.249 45.95-107.937zm-86.227 91.188c7.586 0 14.493 2.625 20.579 7.812-.208 3.568-.325 7.155-.325 10.759 0 1.856.038 3.721.093 5.58-1.963.971-3.893 2.01-5.794 3.107-12.294-8.38-26.19-13.896-40.746-16.216 6.451-6.815 15.969-11.042 26.193-11.042zm-24.969 358.751c-37.83 2.628-71.073-24.816-75.695-62.446l-21.61-175.927c-2.729-22.22 3.613-43.966 17.858-61.234 14.246-17.269 34.392-27.629 56.725-29.172 15.712-1.085 31.206 2.429 44.762 9.968-2.152 1.929-4.24 3.951-6.254 6.075-19.913 21.002-30.031 48.484-28.492 77.386l9.809 184.113c.968 18.177 7.024 34.926 16.74 48.902-4.497 1.221-9.121 2.009-13.843 2.335zm37.684-4.685c-.002-.002-.005-.005-.007-.008-11.943-12.468-19.618-29.1-20.604-47.608l-9.807-184.113c-1.245-23.364 6.935-45.582 23.033-62.561 16.099-16.979 37.851-26.33 61.248-26.33s45.148 9.351 61.247 26.329 24.279 39.197 23.034 62.562l-9.807 184.113c-2.109 39.596-34.822 70.612-74.475 70.612-21.112 0-40.256-8.796-53.862-22.996zm242.716-233.688-21.61 175.926c-4.622 37.632-37.881 65.056-75.695 62.447-4.72-.326-9.343-1.117-13.84-2.338 9.715-13.975 15.771-30.723 16.739-48.899l9.809-184.113c1.539-28.901-8.58-56.385-28.493-77.387-2.014-2.124-4.103-4.146-6.254-6.075 13.559-7.538 29.071-11.053 44.763-9.967 22.333 1.543 42.479 11.903 56.725 29.172 14.243 17.268 20.585 39.014 17.856 61.234z" fill="#ff7b79"/></g></svg>