<svg id="Capa_1" enable-background="new 0 0 512 512" height="512" viewBox="0 0 512 512" width="512" xmlns="http://www.w3.org/2000/svg"><g id="XMLID_1666_"><g id="XMLID_1683_"><g id="XMLID_1684_"><path d="m113.953 500.708c-39.605 6.311-79.938-14.672-96.515-53.196-19.594-45.536 1.437-98.335 46.973-117.928 110.027-47.342 202.371-126.173 267.05-227.969 26.586-41.842 82.057-54.207 123.897-27.625 41.842 26.585 54.209 82.055 27.624 123.897-41.274 64.96-91.765 123.269-150.069 173.304-59.382 50.96-125.846 92.442-197.548 123.294-7.011 3.018-14.203 5.074-21.412 6.223z" fill="#b8ecbc"/></g></g><g id="XMLID_1671_"><circle cx="399.296" cy="399.371" fill="#fff" r="102.629"/></g><g id="XMLID_676_"><path d="m427.364 290.284c23.254-27.452 44.761-56.66 64.059-87.033 25.998-40.919 18.38-93.75-15.575-125.909 19.705-16.653 31.145-40.978 31.145-67.342 0-5.522-4.477-10-10-10s-10 4.478-10 10c0 21.865-10.173 41.92-27.495 54.794-46.286-28.492-107.236-14.564-136.477 31.458-63.597 100.094-154.39 177.603-262.562 224.146-24.477 10.532-43.387 29.966-53.248 54.721-9.861 24.755-9.491 51.868 1.042 76.345 15.954 37.079 52.208 60.37 91.517 60.37 5.211 0 10.479-.409 15.758-1.251 8.146-1.299 16.149-3.624 23.791-6.911 52.597-22.633 102.658-51.087 149.066-84.661 9.318 52.774 55.505 92.989 110.911 92.989 62.104 0 112.628-50.525 112.628-112.629 0-52.416-35.992-96.584-84.56-109.087zm-295.95 195.017c-6.12 2.633-12.524 4.494-19.034 5.532-36.048 5.735-71.307-13.697-85.755-47.273-8.42-19.57-8.716-41.247-.833-61.04 7.884-19.792 23.003-35.329 42.573-43.75 111.879-48.139 205.776-128.291 271.538-231.791 23.585-37.118 72.974-48.132 110.094-24.548 37.12 23.585 48.132 72.974 24.546 110.095-21.052 33.133-44.8 64.842-70.615 94.32-1.537-.062-3.079-.103-4.631-.103-60.77 0-110.444 48.379-112.551 108.644-48.021 35.961-100.251 66.212-155.332 89.914zm267.882 6.699c-51.076 0-92.629-41.553-92.629-92.629 0-51.075 41.553-92.628 92.629-92.628s92.628 41.553 92.628 92.628c0 51.076-41.552 92.629-92.628 92.629z" fill="#89df8f"/></g><g id="XMLID_1667_"><g id="XMLID_1670_"><path d="m422.624 367.932c5.323-10.271-.606-22.969-11.946-25.256-3.679-.742-7.485-1.132-11.383-1.132s-7.704.39-11.382 1.132c-11.34 2.287-17.268 14.985-11.946 25.256 2.92 5.634 6.746 10.723 11.285 15.074 6.699 6.42 17.387 6.42 24.086 0 4.54-4.351 8.366-9.44 11.286-15.074z" fill="#e0ef9b"/></g><g id="XMLID_1669_"><path d="m361.058 393.757c-11.556.526-19.589 12.009-15.9 22.973 1.197 3.557 2.762 7.048 4.711 10.424s4.189 6.477 6.671 9.292c7.65 8.677 21.612 7.462 27.845-2.283 3.42-5.346 5.914-11.204 7.411-17.31 2.21-9.011-3.134-18.267-12.043-20.859-6.036-1.757-12.356-2.526-18.695-2.237z" fill="#e0ef9b"/></g><g id="XMLID_1668_"><path d="m414.206 434.162c6.234 9.745 20.195 10.96 27.845 2.283 2.482-2.815 4.722-5.916 6.671-9.292s3.514-6.867 4.711-10.423c3.689-10.964-4.344-22.447-15.9-22.973-6.34-.289-12.66.48-18.697 2.237-8.909 2.592-14.253 11.847-12.043 20.859 1.499 6.106 3.993 11.963 7.413 17.309z" fill="#e0ef9b"/></g></g><g id="XMLID_74_"><g id="XMLID_78_"><path d="m95.118 463.156c-3.875 0-7.562-2.266-9.19-6.051-2.183-5.072.16-10.955 5.233-13.138 44.059-18.958 86.516-42.212 126.194-69.114 4.572-3.1 10.79-1.905 13.889 2.664 3.1 4.571 1.906 10.79-2.665 13.889-40.721 27.611-84.295 51.477-129.512 70.933-1.289.555-2.63.817-3.949.817z" fill="#d0f2d2"/></g><g id="XMLID_75_"><path d="m296.501 336.546c-2.794 0-5.573-1.164-7.55-3.438-3.624-4.167-3.184-10.483.984-14.107 44.671-38.845 84.861-82.919 119.451-130.998 3.226-4.482 9.476-5.502 13.958-2.277 4.483 3.225 5.503 9.474 2.278 13.957-35.491 49.332-76.727 94.554-122.563 134.41-1.894 1.645-4.231 2.453-6.558 2.453z" fill="#d0f2d2"/></g></g><g id="XMLID_71_"><path d="m302.41 242.505c-2.436 0-4.877-.885-6.803-2.673-4.047-3.759-4.28-10.086-.522-14.133 30.747-33.104 58.581-69.623 82.727-108.543 2.912-4.693 9.079-6.137 13.77-3.226 4.693 2.911 6.137 9.076 3.226 13.769-24.824 40.013-53.445 77.564-85.067 111.611-1.972 2.122-4.648 3.195-7.331 3.195z" fill="#d0f2d2"/></g><g id="XMLID_27_"><path d="m71.737 406.283c-3.855 0-7.529-2.243-9.17-6.003-2.209-5.062.103-10.956 5.165-13.165 56.861-24.818 110.047-57.266 158.081-96.439 4.279-3.494 10.579-2.852 14.07 1.429 3.491 4.28 2.851 10.579-1.429 14.069-49.444 40.325-104.191 73.726-162.721 99.271-1.302.569-2.66.838-3.996.838z" fill="#d0f2d2"/></g></g></svg>