<svg id="Capa_1" enable-background="new 0 0 512.001 512.001" height="512" viewBox="0 0 512.001 512.001" width="512" xmlns="http://www.w3.org/2000/svg"><g id="XMLID_1272_"><g id="XMLID_1098_"><path id="XMLID_1023_" d="m362.582 310.256c0-98.677-73.669-178.671-164.545-178.671s-164.545 79.994-164.545 178.671c0 80.935 49.563 149.291 117.528 171.257 11.769 3.804 22.744 9.583 33.096 16.351 4.001 2.616 8.783 4.137 13.921 4.137s9.92-1.521 13.921-4.137c10.352-6.768 21.327-12.548 33.096-16.351 67.965-21.966 117.528-90.322 117.528-171.257z" fill="#e7f9e9"/><g fill="#b8ecbc"><path id="XMLID_1151_" d="m261.793 414.853c0-12.898-1.807-25.374-5.179-37.19-.882-3.09-5.449-2.432-5.45.781v.104c0 51.822-23.238 91.545-60 122.501 2.188.612 4.489.952 6.873.952 5.138 0 9.919-1.521 13.921-4.137 10.059-6.576 20.711-12.203 32.103-16.007 11.282-19.755 17.732-42.626 17.732-67.004z"/><path id="XMLID_1761_" d="m288.79 161.208c-26.016-18.715-57.209-29.624-90.753-29.624-33.541 0-64.731 10.907-90.745 29.618 8.746 8.559 20.711 13.843 33.915 13.843 3.971 0 7.829-.479 11.522-1.38-5.079 9.818-7.948 20.965-7.948 32.782 0 1.577.052 3.143.155 4.694.224 3.4 4.951 4.105 6.184.928 5.718-14.73 16.177-27.093 29.505-35.213 5.404 2.083 11.273 3.229 17.412 3.229s12.008-1.145 17.412-3.229c13.328 8.12 23.787 20.483 29.505 35.213 1.233 3.176 5.96 2.471 6.184-.928.102-1.551.155-3.117.155-4.694 0-11.817-2.869-22.963-7.948-32.782 3.693.901 7.552 1.38 11.522 1.38 13.205.001 25.177-5.276 33.923-13.837z"/></g></g><path id="XMLID_1130_" d="m162.58 134.753c-8.594-24.369-27.671-43.595-51.973-52.378l-19.939-7.206 41-65.168 40.056 34.873c14.846 12.925 33.867 20.045 53.551 20.045h168.914c39.553 0 74.158 26.609 84.319 64.835-32.887-16.335-69.108-24.835-105.828-24.835h-96.587c-20.02 0-38.211 11.65-46.585 29.835h-66.928z" fill="#b8ecbc"/><path id="XMLID_825_" d="m488.172 127.184c-11.309-42.549-49.956-72.266-93.982-72.266h-168.914c-17.271 0-33.958-6.246-46.985-17.587l-40.056-34.872c-2.204-1.919-5.138-2.779-8.025-2.351-2.891.426-5.449 2.095-7.005 4.568l-41 65.168c-1.612 2.562-1.977 5.715-.992 8.577.983 2.862 3.211 5.124 6.058 6.153l19.938 7.206c18.471 6.677 33.384 20.025 42.084 37.303-72.598 22.858-125.8 95.421-125.8 181.173 0 41.322 12.129 80.557 35.074 113.462 22.306 31.987 54.048 55.892 89.379 67.31 9.901 3.201 19.943 8.174 30.698 15.206 5.771 3.773 12.477 5.768 19.394 5.768 6.916 0 13.621-1.994 19.393-5.767 10.757-7.032 20.799-12.006 30.699-15.206 35.331-11.418 67.073-35.323 89.379-67.31 22.945-32.905 35.074-72.14 35.074-113.462 0-86.301-53.884-159.25-127.194-181.613 7.716-8.57 18.839-13.725 30.705-13.725h96.587c34.988 0 70.044 8.227 101.38 23.791 3.518 1.748 7.731 1.273 10.773-1.21 3.041-2.486 4.347-6.52 3.338-10.316zm-135.59 183.072c0 74.185-45.481 140.695-110.604 161.741-11.617 3.754-23.227 9.478-35.492 17.497-2.51 1.64-5.431 2.507-8.449 2.507s-5.94-.867-8.449-2.507c-12.265-8.018-23.874-13.741-35.492-17.497-65.122-21.046-110.603-87.556-110.603-161.741 0-93.006 69.328-168.671 154.545-168.671s154.544 75.665 154.544 168.671zm20.098-215.338h-96.587c-21.214 0-40.842 11.083-51.939 28.779-8.522-1.388-17.242-2.113-26.116-2.113-9.849 0-19.505.9-28.914 2.603-10.611-23.818-30.342-42.263-55.118-51.218l-8.262-2.986 28.168-44.771 31.245 27.203c16.668 14.511 38.019 22.502 60.118 22.502h168.915c26.833 0 51.149 13.895 65.072 35.629-27.631-10.268-57.13-15.628-86.582-15.628z" fill="#89df8f"/></g></svg>