<svg id="Capa_1" enable-background="new 0 0 512.008 512.008" height="512" viewBox="0 0 512.008 512.008" width="512" xmlns="http://www.w3.org/2000/svg"><g id="XMLID_994_"><g id="XMLID_1205_"><g fill="#e0ef9b"><path id="XMLID_1204_" d="m365.982 86.524c17.37-17.37 21.517-43.318 13.016-66.655-23.337-8.501-49.285-4.354-66.655 13.016l7.706 45.933z"/><path id="XMLID_1201_" d="m348.981 168.335c23.802-23.802 32.686-54.83 28.049-79.798-8.421-1.564-23.957-2.238-36.435-1.576l-28.688-28.688c.662-12.478-.012-28.014-1.576-36.435-24.968-4.637-55.997 4.247-79.798 28.049z"/><path id="XMLID_1203_" d="m319.302 134.411c19.552-19.552 25.344-47.635 17.417-72.263-24.628-7.927-52.711-2.135-72.263 17.417l-2.285 57.131z"/></g><path id="XMLID_1082_" d="m288.263 131.363c-9.514 0-18.523 2.333-26.56 5.801 3.468-8.037 5.801-17.045 5.801-26.56 0-33.887-36.972-60.717-36.972-60.717s-32.422 26.83-32.422 60.717c0 7.179 1.328 14.068 3.47 20.47 4.07 12.164.692 25.591-8.378 34.661l-183.199 183.199v79.861l223.13-223.13c9.07-9.07 22.497-12.447 34.661-8.377 6.401 2.142 13.291 3.47 20.47 3.47 33.887 0 60.718-32.422 60.718-32.422s-26.832-36.973-60.719-36.973z" fill="#b8ecbc"/></g><g id="XMLID_1081_"><g fill="#e0ef9b"><path id="XMLID_1249_" d="m461.998 342.643c23.09-8.383 37.831-30.136 40.009-54.878-17.545-17.581-42.808-24.808-65.898-16.425l-12.464 44.876z"/><path id="XMLID_1247_" d="m411.962 409.565c31.64-11.488 52.824-35.838 59.193-60.421-6.967-4.982-20.757-12.169-32.342-16.852l-13.846-38.136c5.882-11.025 11.848-25.385 13.996-33.676-20.657-14.771-52.53-19.857-84.169-8.369z"/><path id="XMLID_1101_" d="m399.436 366.267c25.99-9.437 43.126-32.427 46.37-58.095-18.956-17.607-46.851-24.248-72.841-14.811l-26.256 50.792z"/></g><path id="XMLID_1250_" d="m372.605 350.366c-8.62-4.028-17.769-5.728-26.518-5.988 6.544-5.813 12.471-12.987 16.499-21.607 14.345-30.701-7.792-70.66-7.792-70.66s-40.732 10.583-55.077 41.284c-3.039 6.503-4.752 13.308-5.522 20.014-1.462 12.743-10.206 23.479-22.263 27.856l-261.929 95.101v60.077l281.201-102.099c12.057-4.378 25.651-1.753 34.949 7.083 4.893 4.65 10.572 8.77 17.076 11.809 30.701 14.345 68.734-3.67 68.734-3.67s-8.657-44.855-39.358-59.2z" fill="#b8ecbc"/></g><path id="XMLID_209_" d="m509.086 280.702c-16.794-16.828-38.866-24.786-60.383-22.464-.536-2.327-1.894-4.442-3.923-5.893-24.792-17.727-60.352-21.465-92.917-9.801-4.837 1.328-45.692 13.413-61.206 46.617-3.295 7.051-5.447 14.825-6.397 23.107-1.01 8.799-7.188 16.491-15.741 19.597l-231.496 84.052 203.18-203.181c6.435-6.434 16.02-8.774 24.417-5.965 7.907 2.646 15.861 3.986 23.643 3.986 36.645 0 64.878-31.879 68.133-35.705 24.36-24.568 36.032-58.372 30.466-88.342-.455-2.451-1.796-4.577-3.677-6.048 11.212-18.512 13.346-41.878 5.21-64.217-1.011-2.775-3.198-4.962-5.973-5.974-22.34-8.136-45.706-6.002-64.217 5.21-1.471-1.881-3.596-3.222-6.047-3.677-29.966-5.563-63.771 6.104-88.339 30.463-3.812 3.243-35.707 31.481-35.707 68.136 0 7.781 1.341 15.736 3.986 23.643 2.811 8.398.469 17.983-5.965 24.417l-183.202 183.2c-3.905 3.905-3.905 10.237 0 14.143 3.905 3.904 10.237 3.904 14.143 0l183.199-183.199c11.75-11.751 15.985-29.377 10.79-44.905-1.959-5.857-2.953-11.677-2.953-17.297 0-20.436 14.504-38.567 22.926-47.372 10.771 9.76 26.469 28.156 26.469 47.372 0 7.332-1.676 14.936-4.982 22.598-1.624 3.763-.787 8.136 2.111 11.033 2.897 2.897 7.27 3.735 11.032 2.11 7.663-3.306 15.266-4.982 22.598-4.982 20.43 0 38.677 16.965 47.326 26.511-8.828 8.435-26.929 22.884-47.326 22.884-5.62 0-11.44-.993-17.296-2.953-15.527-5.194-33.154-.961-44.906 10.789l-223.131 223.128c-1.875 1.876-2.929 4.419-2.929 7.071v7.571c0 3.262 1.59 6.317 4.261 8.189 2.67 1.87 6.086 2.322 9.151 1.21l261.929-95.102c15.619-5.672 26.918-19.848 28.785-36.116.703-6.135 2.267-11.827 4.646-16.92 8.651-18.515 29.467-28.801 40.825-33.213 5.627 13.402 12.061 36.714 3.926 54.123-3.104 6.643-7.841 12.82-14.081 18.364-3.063 2.722-4.157 7.036-2.758 10.889 1.398 3.852 5.005 6.46 9.102 6.582 8.341.249 15.939 1.949 22.583 5.053 18.521 8.655 27.871 31.774 31.661 44.078-11.528 3.919-33.975 9.359-52.571.673-5.092-2.38-9.943-5.743-14.42-9.999-11.87-11.28-29.631-14.905-45.25-9.233l-281.201 102.101c-5.191 1.885-7.872 7.621-5.986 12.812 1.476 4.064 5.312 6.59 9.4 6.59 1.133 0 2.286-.194 3.412-.604l281.202-102.1c8.553-3.105 18.227-1.17 24.646 4.932 6.043 5.744 12.682 10.326 19.732 13.621 10.236 4.783 21.027 6.481 31.2 6.48 22.823-.002 42.499-8.549 45.655-9.992 32.463-11.948 57.342-37.628 64.986-67.132.625-2.414.31-4.907-.772-7.036 17.996-12.024 29.821-32.29 31.905-55.974.258-2.942-.797-5.848-2.884-7.939zm-138.028-252.894c5.046 17.957 1.424 36.176-9.815 49.14-3.715-.17-7.581-.25-11.404-.236-.545-5.906-1.73-11.814-3.601-17.627-.987-3.066-3.39-5.469-6.455-6.456-5.813-1.871-11.722-3.056-17.628-3.6.015-3.823-.066-7.689-.236-11.405 12.964-11.241 31.183-14.862 49.139-9.816zm-125.286 21.867c16.735-13.306 36.907-20.181 55.648-18.9.509 5.556.773 12.363.729 18.889-14.585 2.292-28.443 8.566-40.012 18.449-5.496-7.646-11.521-13.927-16.365-18.438zm30.737 72.683c.662-3.937.995-7.859.995-11.754 0-8.793-2.056-17.091-5.243-24.678 15.03-14.547 36.133-20.328 56.336-15.656 4.673 20.204-1.109 41.306-15.656 56.336-7.588-3.188-15.885-5.243-24.678-5.243-3.894 0-7.817.333-11.754.995zm54.245 14.372c9.884-11.569 16.158-25.428 18.45-40.012 6.526-.044 13.333.22 18.888.729 1.291 18.745-5.592 38.915-18.9 55.648-4.51-4.844-10.792-10.869-18.438-16.365zm96.353 128.075c-1.892 5.251-4.539 11.524-7.342 17.42-14.182-4.096-29.391-4.277-44.054-.222-1.743-9.254-4.542-17.496-7.022-23.634 20.793-4.972 41.98-2.668 58.418 6.436zm-50.269 76.501c-3.528-1.648-7.224-3.008-11.069-4.074 2.266-3.286 4.229-6.7 5.877-10.228 3.723-7.967 5.372-16.354 5.696-24.578 19.775-6.815 41.342-3.122 57.666 9.665-4.318 20.282-18.491 36.953-38.033 44.412-5.524-6.099-12.17-11.474-20.137-15.197zm41.768 54.543c-2.036-6.298-5.177-14.417-9.778-22.633 13.852-6.297 25.403-16.196 33.653-28.439 5.931 2.723 11.987 5.843 16.804 8.657-6.765 17.529-21.539 32.889-40.679 42.415zm43.153-63.887c-3.294-1.727-6.762-3.437-10.232-5.042 2.007-5.581 3.434-11.436 4.2-17.494.404-3.195-.756-6.389-3.115-8.581-4.475-4.156-9.326-7.731-14.446-10.725 1.632-3.458 3.195-6.994 4.614-10.432 16.502-4.695 34.542-.263 48.674 11.909-3.03 18.405-14.025 33.377-29.695 40.365z" fill="#89df8f"/></g></svg>