<svg id="Capa_1" enable-background="new 0 0 512.003 512.003" height="512" viewBox="0 0 512.003 512.003" width="512" xmlns="http://www.w3.org/2000/svg"><g id="XMLID_1608_"><g id="XMLID_1080_"><path id="XMLID_2001_" d="m259.5 54.44c-57.221 57.221-57.322 149.893-10.976 196.239 14.855 14.855 32.032 22.501 50.401 24.149 25.827 2.318 39.436-29.997 20.941-48.173-2.596-2.551.53.53 0 0-1.679-1.679-4.3-4.492-5.671-6.302-12.756-16.846 12.061-36.448 25.729-20.334l69.727 82.204c15.761 18.581 44.031 19.74 61.26 2.511l18.883-18.883c17.229-17.229 16.07-45.499-2.511-61.26l-82.204-69.727c-16.114-13.669 3.488-38.485 20.334-25.729 1.81 1.371 3.975 3.314 5.654 4.993.188.188-.202-.208 0 0 18.993 19.495 51.946 3.576 48.477-23.42-2.208-17.18-9.805-33.243-23.805-47.244-46.346-46.346-139.018-46.245-196.239 10.976z" fill="#e8d0c1"/><path id="XMLID_2270_" d="m309.539 104.478c13.509-13.509 29.072-23.706 45.526-30.746 10.475-4.481 6.066-20.136-5.224-18.607-21.554 2.918-43.095 12.576-60.087 29.568s-26.65 38.533-29.568 60.087c-1.529 11.29 14.126 15.699 18.607 5.224 7.039-16.454 17.237-32.017 30.746-45.526z" fill="#fff"/></g><g id="XMLID_1114_"><path id="XMLID_1118_" d="m252.502 259.5c-57.221-57.221-149.893-57.322-196.239-10.976-14.855 14.855-22.501 32.032-24.149 50.401-2.318 25.827 29.997 39.436 48.173 20.941 2.551-2.596-.53.53 0 0 1.679-1.679 4.492-4.3 6.302-5.671 16.846-12.756 36.448 12.061 20.334 25.729l-82.204 69.727c-18.581 15.761-19.74 44.031-2.511 61.26l18.883 18.883c17.229 17.229 45.499 16.07 61.26-2.511l69.727-82.204c13.669-16.114 38.485 3.488 25.729 20.334-1.371 1.81-3.307 3.972-4.986 5.652-.188.188.195-.198-.013.005-19.495 18.993-3.569 51.944 23.426 48.475 17.18-2.208 33.243-9.805 47.244-23.805 46.347-46.347 46.245-139.019-10.976-196.24z" fill="#e8d0c1"/><g id="XMLID_189_"><path id="XMLID_192_" d="m511.96 234.261c-.59-14.388-7.227-27.981-18.208-37.296l-82.204-69.728c-4.292-3.641-1.974-7.503-.778-8.994 1.426-1.779 4.441-4.293 8.609-1.134 1.264.956 4.488 3.962 4.527 4.003 11.707 12.014 29.046 15.055 44.171 7.748 15.129-7.31 23.523-22.786 21.386-39.427-2.581-20.091-11.549-37.937-26.652-53.041-24.582-24.581-61.593-37.806-101.496-36.271-41.333 1.585-80.003 18.364-108.885 47.247-28.883 28.884-45.662 67.554-47.247 108.887-.905 23.602 3.349 46.18 12.057 65.776-20.455-10.14-43.072-15.949-66.551-16.849-39.934-1.542-76.915 11.689-101.496 36.271-16.008 16.01-25.105 35.045-27.038 56.579-1.429 15.927 7.067 30.574 21.647 37.316 14.75 6.818 31.615 3.763 42.967-7.788.613-.624 4.633-4.466 5.857-5.393 4.166-3.154 7.181-.644 8.606 1.136 1.196 1.492 3.515 5.354-.778 8.995l-82.204 69.727c-10.981 9.315-17.617 22.909-18.207 37.298-.589 14.387 4.912 28.479 15.094 38.66l18.883 18.883c9.687 9.687 23.96 15.138 37.612 15.137.698 0-.7-.014 0-.043 14.388-.59 29.031-7.226 38.346-18.207l69.728-82.204c3.641-4.29 7.504-1.975 8.995-.778 1.779 1.426 4.291 4.439 1.138 8.604-.959 1.267-3.967 4.494-4.007 4.532-12.016 11.706-15.057 29.044-7.749 44.171 7.31 15.13 22.791 23.519 39.426 21.386 20.091-2.581 37.937-11.549 53.041-26.652 24.581-24.582 37.802-61.576 36.271-101.496-1.09-28.414-9.36-55.57-23.806-79.152 4.859 1.279 9.865 2.164 15.017 2.626 15.915 1.429 30.575-7.067 37.316-21.647 6.819-14.749 3.763-31.614-7.788-42.967-.624-.613-4.466-4.634-5.393-5.857-3.154-4.166-.643-7.181 1.136-8.605 1.492-1.197 5.356-3.514 8.996.777l69.727 82.204c9.314 10.981 23.957 17.617 38.346 18.207.7.029-.699.043 0 .043 13.651 0 27.926-5.451 37.611-15.137l18.884-18.883c10.181-10.184 15.683-24.276 15.093-38.664zm-255.553 214.407c-11.902 11.902-25.847 18.953-41.447 20.958-9.656 1.23-16.083-4.48-18.87-10.249-2.761-5.714-3.27-14.192 3.508-20.959.1-.092 4.622-4.908 6.183-6.969 10.09-13.326 5.338-28.34-4.571-36.284-10.008-8.023-25.848-9.415-36.757 3.445l-69.728 82.204c-5.794 6.831-13.914 10.795-22.863 11.161-8.936.373-17.366-2.918-23.7-9.253l-18.883-18.882c-6.333-6.333-9.619-14.75-9.252-23.699.367-8.95 4.331-17.07 11.162-22.864l82.203-69.727c12.862-10.909 11.469-26.749 3.445-36.757-4.852-6.052-12.337-10.179-20.466-10.179-5.183 0-10.629 1.68-15.816 5.607-2.059 1.559-7.739 7.002-8.051 7.319-6.498 6.612-14.751 6.221-20.308 3.653-2.631-1.217-11.136-6.065-10.121-17.376 1.502-16.739 8.655-31.618 21.26-44.224 40.389-40.39 126.845-44.275 182.097 10.977 55.251 55.254 51.363 141.71 10.975 182.098zm226.317-189.887-18.884 18.883c-6.334 6.334-14.746 9.626-23.699 9.253-8.949-.366-17.069-4.33-22.863-11.161l-69.727-82.204c-5.726-6.75-12.809-9.573-19.693-9.573-6.235 0-12.31 2.315-17.065 6.129-9.908 7.944-14.66 22.959-4.569 36.283 1.559 2.059 7.002 7.738 7.318 8.049 6.612 6.498 6.223 14.751 3.653 20.309-1.217 2.63-6.062 11.136-17.376 10.121-16.739-1.502-31.618-8.655-44.224-21.261-40.388-40.388-44.275-126.845 10.977-182.097 55.251-55.252 141.707-51.365 182.097-10.976 11.902 11.902 18.953 25.847 20.958 41.447 1.241 9.662-4.48 16.082-10.249 18.869-5.717 2.763-14.198 3.269-20.956-3.505-.092-.1-4.912-4.626-6.971-6.185-13.327-10.09-28.341-5.338-36.285 4.571-8.023 10.008-9.416 25.847 3.445 36.756l82.204 69.728c6.831 5.794 10.795 13.914 11.162 22.863s-2.919 17.367-9.253 23.701z" fill="#d1a184"/><path id="XMLID_190_" d="m162.163 260.185c-11.29-1.529-15.699 14.126-5.224 18.607 16.454 7.04 32.017 17.237 45.526 30.746s23.706 29.071 30.746 45.525c4.481 10.475 20.136 6.066 18.607-5.224-2.918-21.554-12.576-43.095-29.568-60.086-16.992-16.992-38.533-26.65-60.087-29.568z" fill="#fff"/></g></g></g></svg>