<svg id="Capa_1" enable-background="new 0 0 512.01 512.01" height="512" viewBox="0 0 512.01 512.01" width="512" xmlns="http://www.w3.org/2000/svg"><g id="XMLID_2_"><g id="XMLID_40_"><path id="XMLID_58_" d="m219.114 76.638c3.664-24.381-7.531-47.904-27.197-60.803-20.229 3.573-37.711 17.151-45.989 36.415-18.395-17.232-44.729-21.126-66.704-11.634-9.492 21.974-5.598 48.309 11.634 66.704-19.264 8.279-32.842 25.76-36.414 45.989 12.899 19.667 36.423 30.862 60.803 27.197-2.736 21.65 6.256 42.888 22.914 56.099 24.496-2.083 46.409-18.755 53.937-43.724 4.289-14.224 3.184-28.779-2.11-41.501 12.722 5.293 27.276 6.398 41.501 2.11 24.969-7.528 41.642-29.441 43.724-53.937-13.211-16.659-34.449-25.651-56.099-22.915z" fill="#e0ef9b"/><path id="XMLID_53_" d="m320.385 10.474c-8.789-1.75-17.86 1.525-23.405 8.566-20.32 25.802-32.443 58.362-32.443 93.753 0 42.683 17.64 81.24 46.02 108.799-10.705-20.784-16.752-44.359-16.752-69.347 0-39.354 14.99-75.207 39.572-102.161 12.559-13.773 5.289-35.971-12.992-39.61z" fill="#e8d0c1"/><g fill="#b5b3ee"><circle id="XMLID_51_" cx="164.827" cy="272.65" r="56.749"/><circle id="XMLID_50_" cx="278.324" cy="445.261" r="56.749"/><circle id="XMLID_49_" cx="221.576" cy="358.865" r="56.749"/><circle id="XMLID_46_" cx="335.073" cy="358.865" r="56.749"/><circle id="XMLID_45_" cx="221.576" cy="185.709" r="56.749"/><circle id="XMLID_44_" cx="335.073" cy="185.709" r="56.749"/><circle id="XMLID_43_" cx="391.822" cy="272.65" r="56.749"/><circle id="XMLID_42_" cx="278.325" cy="272.65" r="56.749"/></g></g><g fill="#fff"><circle id="XMLID_39_" cx="278.325" cy="455.926" r="12"/><circle id="XMLID_37_" cx="221.576" cy="369.53" r="12"/><circle id="XMLID_36_" cx="335.073" cy="369.53" r="12"/><circle id="XMLID_35_" cx="278.326" cy="283.316" r="12"/><circle id="XMLID_32_" cx="391.257" cy="283.316" r="12"/><circle id="XMLID_20_" cx="164.828" cy="283.316" r="12"/><circle id="XMLID_6_" cx="221.576" cy="196.374" r="12"/><circle id="XMLID_3_" cx="337.076" cy="196.374" r="12"/></g><path d="m463.757 89.163c-4.335-3.418-10.625-2.674-14.043 1.664-6.261 7.943-14.958 12.854-24.204 14.528 3.572-5.759 5.088-12.504 4.279-19.333-.944-7.975-4.938-15.104-11.246-20.075-17.542-13.826-39.416-19.993-61.6-17.363-4.019.476-7.958 1.24-11.801 2.261 4.798-8.258 5.887-18.108 2.8-27.502-3.87-11.779-13.442-20.256-25.605-22.677-12.584-2.504-25.318 2.162-33.213 12.187-14.422 18.313-24.502 38.995-29.922 61.076-9.142-4.615-19.194-7.262-29.42-7.702-.43-23.439-12.397-45.647-32.382-58.754-2.13-1.397-4.714-1.93-7.224-1.486-19.661 3.472-36.675 14.805-47.417 31.128-19.901-12.922-45.215-15.307-67.502-5.68-2.339 1.011-4.204 2.875-5.214 5.215-9.627 22.284-7.243 47.6 5.679 67.501-16.323 10.742-27.655 27.756-31.128 47.417-.443 2.509.088 5.093 1.486 7.224 13.108 19.985 35.311 31.952 58.751 32.381.541 12.689 4.462 25.1 11.352 35.839-11.215 11.946-18.105 27.998-18.105 45.637 0 34.444 26.226 62.874 59.756 66.381-1.955 6.268-3.008 12.93-3.008 19.834 0 34.464 26.255 62.908 59.814 66.388-2.018 6.434-3.066 13.173-3.066 20.009 0 36.805 29.943 66.749 66.748 66.749 36.806 0 66.749-29.943 66.749-66.749 0-6.836-1.048-13.575-3.066-20.008 33.56-3.479 59.816-31.924 59.816-66.388 0-6.774-1.03-13.452-3.013-19.833 33.533-3.505 59.762-31.936 59.762-66.381 0-34.521-26.342-63.004-59.981-66.407 2.127-6.586 3.232-13.502 3.232-20.535 0-36.805-29.943-66.749-66.749-66.749-10.276 0-20.014 2.338-28.718 6.504 2.279-11.831 6.064-23.308 11.23-34.15 10.479-12.802 25.236-20.917 41.71-22.87 6.333-.75 12.632-.558 18.735.53-.592.63-1.166 1.285-1.711 1.976-4.972 6.307-7.188 14.173-6.243 22.147s4.939 15.104 11.247 20.075c10.961 8.639 24.023 12.826 37.002 12.826 17.729 0 35.295-7.82 47.095-22.792 3.421-4.337 2.676-10.625-1.662-14.043zm-158.92-63.937c3.213-4.081 8.427-5.974 13.596-4.945 4.992.994 8.921 4.472 10.508 9.304 1.592 4.844.488 9.987-2.952 13.76-24.932 27.338-39.74 62.512-41.901 99.352-1.736 2.054-3.348 4.215-4.829 6.47-3.129-11.812-4.72-24.024-4.72-36.374-.001-32.118 10.477-62.398 30.298-87.567zm-26.512 294.173c-25.777 0-46.749-20.971-46.749-46.749s20.972-46.749 46.749-46.749 46.748 20.971 46.748 46.749-20.97 46.749-46.748 46.749zm-103.498-133.691c0-25.777 20.972-46.749 46.749-46.749s46.749 20.971 46.749 46.749c0 7.743-1.9 15.284-5.513 22.033-15.222 3.638-28.435 12.495-37.629 24.579-1.199.091-2.404.137-3.607.137-25.777 0-46.749-20.971-46.749-46.749zm-61.067-15.091c-18.578 2.794-37.23-4.809-48.615-19.513 3.98-15.468 14.838-28.227 29.66-34.597 2.994-1.287 5.174-3.952 5.84-7.141.667-3.19-.262-6.504-2.49-8.883-13.17-14.058-17.376-34.137-11.206-52.141 18.005-6.171 38.084-1.964 52.141 11.206 2.379 2.229 5.694 3.158 8.883 2.491s5.854-2.846 7.142-5.84c6.37-14.823 19.129-25.681 34.597-29.662 14.705 11.386 22.306 30.041 19.514 48.615-.466 3.097.547 6.233 2.735 8.474 2.189 2.241 5.304 3.33 8.407 2.934 12.292-1.552 24.839 1.457 35.146 8.307-.643 5.908-.975 11.888-.975 17.927 0 5.139.267 10.255.746 15.34-9.901-5.819-21.417-9.172-33.708-9.172-13.987 0-26.978 4.333-37.716 11.715v-36.605c0-5.523-4.478-10-10-10s-10 4.477-10 10v21.956l-21.995-19.606c-4.126-3.677-10.444-3.311-14.119.811-3.675 4.123-3.312 10.444.811 14.119l23.766 21.185h-26.927c-5.522 0-10 4.477-10 10s4.478 10 10 10h38.294c-5.627 9.78-8.864 21.102-8.864 33.172 0 7.163 1.147 14.061 3.246 20.534-9.4.949-18.22 3.87-26.066 8.32-5.807-9.831-8.28-21.407-6.84-32.803.393-3.107-.692-6.219-2.934-8.407-2.24-2.188-5.369-3.199-8.473-2.736zm51.067 148.782c-25.777 0-46.748-20.971-46.748-46.749s20.971-46.749 46.748-46.749c1.204 0 2.41.048 3.61.14 9.195 12.085 22.41 20.941 37.635 24.578 3.61 6.747 5.505 14.298 5.505 22.031 0 7.418-1.751 14.67-5.083 21.205-15.723 3.647-29.334 12.851-38.632 25.44-1.01.065-2.023.104-3.035.104zm10 39.466c0-25.777 20.972-46.749 46.749-46.749 1.011 0 2.024.038 3.034.103 9.299 12.59 22.912 21.795 38.637 25.442 3.328 6.534 5.078 13.799 5.078 21.204 0 25.777-20.972 46.749-46.749 46.749s-46.749-20.972-46.749-46.749zm103.496 133.145c-25.777 0-46.748-20.971-46.748-46.749 0-7.496 1.788-14.822 5.187-21.411 17.488-4.086 32.353-15.055 41.563-29.897 9.21 14.841 24.073 25.809 41.56 29.896 3.399 6.589 5.187 13.916 5.187 21.412 0 25.778-20.971 46.749-46.749 46.749zm56.75-86.397c-25.777 0-46.748-20.971-46.748-46.749 0-7.411 1.755-14.671 5.084-21.206 17.531-4.068 32.435-15.05 41.664-29.92 9.229 14.871 24.134 25.854 41.667 29.921 3.33 6.536 5.082 13.787 5.082 21.205 0 25.778-20.971 46.749-46.749 46.749zm103.498-132.963c0 25.777-20.972 46.749-46.749 46.749s-46.749-20.971-46.749-46.749 20.972-46.749 46.749-46.749 46.749 20.972 46.749 46.749zm-56.749-86.942c0 7.746-1.9 15.284-5.513 22.033-17.347 4.146-32.083 15.072-41.236 29.821-9.154-14.75-23.891-25.676-41.238-29.821-3.612-6.748-5.51-14.292-5.51-22.032 0-25.777 20.971-46.749 46.748-46.749s46.749 20.971 46.749 46.748zm28.106-97.333c.316 2.67-.426 5.303-2.09 7.414 0 0 0 0-.001 0-3.433 4.358-9.774 5.111-14.134 1.675-2.111-1.665-3.449-4.051-3.766-6.721s.426-5.302 2.091-7.414c1.983-2.517 4.936-3.831 7.915-3.831 2.182 0 4.377.704 6.22 2.156 2.111 1.665 3.448 4.052 3.765 6.721z" fill="#b278d3"/></g></svg>