<svg id="Capa_1" enable-background="new 0 0 512.04 512.04" height="512" viewBox="0 0 512.04 512.04" width="512" xmlns="http://www.w3.org/2000/svg"><g id="XMLID_1594_"><g id="XMLID_1504_"><path id="XMLID_1557_" d="m284.812 324.228c-57.464-29.642-90.411-114.208-79.09-185.138 13.13-82.262 84.088-135.439 159.235-123.445s126.025 84.619 112.895 166.88c-11.31 70.861-68.845 140.902-132.608 151.288z" fill="#b8ecbc"/><path id="XMLID_1556_" d="m364.254 376.068c-13.93-19.221-21.866-42.131-22.812-65.849l-4.698-117.81-41.139 110.494c-8.282 22.246-22.957 41.547-42.178 55.476-35.489 25.719-43.408 75.338-17.689 110.827 25.719 35.489 75.338 43.409 110.826 17.689 35.489-25.72 43.409-75.339 17.69-110.827z" fill="#d0f2d2"/></g><g id="XMLID_1521_"><path id="XMLID_1554_" d="m227.228 324.228c57.464-29.642 90.411-114.208 79.089-185.138-13.13-82.261-84.088-135.439-159.234-123.444s-126.025 84.619-112.895 166.88c11.31 70.861 68.845 140.902 132.608 151.288z" fill="#b8ecbc"/><path id="XMLID_1553_" d="m147.786 376.068c13.93-19.221 21.866-42.131 22.812-65.849l4.698-117.81 41.139 110.494c8.282 22.246 22.957 41.547 42.178 55.476 35.489 25.719 43.408 75.338 17.689 110.827-25.719 35.489-75.338 43.409-110.826 17.689-35.489-25.72-43.409-75.339-17.69-110.827z" fill="#d0f2d2"/></g><g id="XMLID_1491_"><path id="XMLID_1316_" d="m225.515 327.357c-61.418-20.214-107.282-98.53-107.282-170.357 0-83.303 61.689-147 137.787-147s137.787 63.697 137.787 147c0 71.758-45.775 149.992-107.104 170.299z" fill="#e0ef9b"/><path id="XMLID_1175_" d="m199.18 103.059c12.425-19.287 33.309-29.89 54.867-30.187 10.614-.146 13.383-14.708 3.48-18.531-4.348-1.679-9.045-2.945-14.076-3.728-12.243-1.904-24.76.654-35.085 7.277-15.448 9.908-24.166 23.913-26.936 38.565-1.979 10.468 11.83 15.905 17.549 6.917.067-.105.134-.209.201-.313z" fill="#fff"/><path id="XMLID_1261_" d="m312.135 366.027c-16.785-16.785-28.234-38.157-32.906-61.431l-23.209-115.596-23.208 115.597c-4.673 23.273-16.121 44.646-32.906 61.431-30.991 30.991-30.991 81.238 0 112.229 30.991 30.991 81.238 30.991 112.229 0 30.991-30.992 30.991-81.238 0-112.23z" fill="#fff"/><path id="XMLID_139_" d="m462.763 67.092c-22.75-33.27-56.925-55.047-96.229-61.321-20.349-3.249-40.616-2.142-60.29 3.26-15.855-5.937-32.787-9.031-50.224-9.031s-34.369 3.094-50.223 9.031c-19.676-5.403-39.945-6.509-60.29-3.26-39.305 6.274-73.479 28.052-96.229 61.321-22.816 33.366-31.682 74.922-24.964 117.011 5.854 36.682 23.229 73.354 48.924 103.263 23.767 27.665 52.334 46.561 81.425 54.088-3.521 10.197-8.543 19.874-14.973 28.746-28.913 39.897-19.978 95.879 19.919 124.793 15.497 11.23 33.698 17.048 52.255 17.048 7.723 0 15.507-1.021 23.182-3.066 6.886 1.651 13.93 2.484 20.975 2.484s14.089-.833 20.975-2.484c7.677 2.045 15.458 3.066 23.183 3.066 18.555 0 36.76-5.818 52.255-17.048 39.896-28.914 48.832-84.896 19.919-124.793-6.43-8.872-11.452-18.549-14.973-28.746 29.091-7.528 57.658-26.423 81.425-54.088 25.694-29.908 43.069-66.581 48.924-103.263 6.716-42.089-2.149-83.645-24.966-117.011zm-78.956 89.908c0 33.011-10.596 69.169-29.071 99.204-16.928 27.519-38.912 47.906-62.627 58.304-1.238-3.882-2.266-7.847-3.076-11.88l-6.236-31.059c33.58-5.754 59.223-35.056 59.223-70.252 0-5.522-4.478-10-10-10s-10 4.478-10 10c0 25.516-18.729 46.732-43.16 50.643l-10.793-53.757c25.21-4.354 44.452-26.366 44.452-52.801 0-5.522-4.478-10-10-10s-10 4.478-10 10c0 16.09-11.373 29.569-26.5 32.836v-66.238c0-5.522-4.478-10-10-10s-10 4.478-10 10v66.239c-15.127-3.268-26.5-16.746-26.5-32.836 0-5.522-4.478-10-10-10s-10 4.478-10 10c0 26.435 19.242 48.446 44.452 52.801l-10.791 53.756c-24.431-3.911-43.16-25.127-43.16-50.643 0-5.522-4.478-10-10-10s-10 4.478-10 10c0 35.196 25.643 64.498 59.223 70.252l-6.236 31.059c-.81 4.033-1.838 7.998-3.076 11.88-23.689-10.387-45.651-30.738-62.574-58.218-18.509-30.055-29.124-66.244-29.124-99.29 0-76.822 56.131-137 127.787-137s127.787 60.178 127.787 137zm-295.399 117.332c-22.979-26.747-39.142-60.783-44.345-93.382-12.108-75.862 33.836-144.135 104.596-155.429 9.259-1.479 18.496-1.909 27.647-1.303-8.951 6.014-17.327 13.087-24.979 21.169-27.789 29.353-43.094 68.992-43.094 111.613 0 37.185 11.398 76.171 32.095 109.777 6.333 10.282 13.339 19.69 20.874 28.121l-.595 14.921c-.164 4.111-.554 8.188-1.165 12.217-25.059-6.531-49.981-23.197-71.034-47.704zm82.936 204.465c-30.967-22.441-37.902-65.894-15.461-96.861 14.6-20.144 23.044-43.805 24.548-68.584 10.04 8.177 20.695 14.767 31.72 19.579-5.084 9.514-11.569 18.279-19.317 26.026-34.841 34.841-34.841 91.531 0 126.372 1.924 1.924 3.925 3.724 5.975 5.436-9.76-1.899-19.12-5.92-27.465-11.968zm35.633-7.611c-27.043-27.043-27.043-71.044 0-98.087 18.238-18.238 30.562-41.245 35.64-66.533l13.403-66.763 13.403 66.763c5.078 25.288 17.401 48.295 35.64 66.533 27.043 27.043 27.043 71.044 0 98.087-13.1 13.101-30.517 20.314-49.043 20.314s-35.943-7.214-49.043-20.314zm133.719 7.611c-8.346 6.048-17.706 10.069-27.466 11.967 2.05-1.712 4.052-3.512 5.976-5.436 34.841-34.841 34.841-91.531 0-126.372-7.748-7.747-14.233-16.512-19.316-26.026 11.025-4.812 21.68-11.404 31.72-19.581 1.504 24.78 9.948 48.442 24.547 68.586 22.441 30.968 15.506 74.42-15.461 96.862zm127.281-297.847c-5.203 32.599-21.366 66.635-44.345 93.382-21.053 24.507-45.976 41.173-71.033 47.704-.61-4.029-1.001-8.106-1.165-12.217l-.595-14.921c7.558-8.458 14.585-17.897 20.932-28.216 20.659-33.584 32.036-72.537 32.036-109.683 0-42.621-15.305-82.26-43.095-111.613-7.651-8.081-16.027-15.154-24.978-21.168 9.151-.606 18.388-.176 27.646 1.302 70.761 11.295 116.705 79.568 104.597 155.43z" fill="#89df8f"/></g></g></svg>