<svg id="Capa_1" enable-background="new 0 0 512 512" height="512" viewBox="0 0 512 512" width="512" xmlns="http://www.w3.org/2000/svg"><g id="XMLID_415_"><circle id="XMLID_1298_" cx="342" cy="309.42" fill="#ffda8f" r="160"/><circle id="XMLID_1327_" cx="170" cy="309.42" fill="#ffda8f" r="160"/><circle id="XMLID_1328_" cx="170" cy="309.42" fill="#fff" r="129.975"/><g fill="#fff3da"><circle id="XMLID_951_" cx="400" cy="229.42" r="16"/><circle id="XMLID_952_" cx="416" cy="360.92" r="16"/><circle id="XMLID_781_" cx="439.5" cy="287.42" r="16"/></g><g id="XMLID_492_"><g id="XMLID_498_"><path id="XMLID_964_" d="m142.432 214.649c-3.018 0-6.034.794-8.785 2.382l-27.268 15.743c-5.501 3.176-8.785 8.864-8.785 15.215s3.284 12.04 8.785 15.215l53.621 30.959v-61.917c0-6.352-3.284-12.04-8.784-15.215-2.75-1.587-5.768-2.382-8.784-2.382z" fill="#ffda8f"/></g><g id="XMLID_965_"><path id="XMLID_967_" d="m188.784 217.031c-5.5 3.176-8.784 8.864-8.784 15.215v61.917l53.621-30.958c5.501-3.176 8.785-8.864 8.785-15.215s-3.284-12.04-8.785-15.215l-27.268-15.743c-2.751-1.588-5.768-2.382-8.785-2.382-3.016-.001-6.034.794-8.784 2.381z" fill="#ffda8f"/></g><g id="XMLID_972_"><path id="XMLID_977_" d="m151.216 405.936c5.5-3.176 8.784-8.864 8.784-15.215v-61.917l-53.621 30.958c-5.501 3.176-8.785 8.864-8.785 15.215s3.284 12.04 8.785 15.215l27.268 15.743c2.751 1.588 5.768 2.382 8.785 2.382 3.016.001 6.034-.794 8.784-2.381z" fill="#ffda8f"/></g><g id="XMLID_969_"><path id="XMLID_970_" d="m197.568 408.318c3.018 0 6.034-.794 8.785-2.382l27.268-15.743c5.501-3.176 8.785-8.864 8.785-15.215s-3.284-12.04-8.785-15.215l-53.621-30.959v61.917c0 6.352 3.284 12.04 8.784 15.215 2.75 1.587 5.768 2.382 8.784 2.382z" fill="#ffda8f"/></g><g id="XMLID_495_"><path id="XMLID_496_" d="m72.355 286.941c-1.509 2.613-2.33 5.623-2.33 8.799v31.486c0 6.352 3.284 12.04 8.784 15.216 5.501 3.176 12.069 3.176 17.569 0l53.622-30.958-53.621-30.958c-5.501-3.176-12.069-3.176-17.569 0-2.75 1.587-4.947 3.803-6.455 6.415z" fill="#ffda8f"/></g><g id="XMLID_491_"><path id="XMLID_493_" d="m267.645 336.026c1.509-2.613 2.33-5.623 2.33-8.799v-31.486c0-6.352-3.284-12.04-8.784-15.216-5.501-3.176-12.069-3.176-17.569 0l-53.622 30.959 53.621 30.958c5.501 3.176 12.069 3.176 17.569 0 2.75-1.588 4.947-3.804 6.455-6.416z" fill="#ffda8f"/></g></g><g id="XMLID_1012_"><path id="XMLID_1010_" d="m319.696 69.169c21.706 21.706 28.562 52.266 20.072 77.959-25.694 8.49-56.253 1.634-77.959-20.072s-28.562-52.266-20.072-77.959c25.694-8.49 56.253-1.634 77.959 20.072z" fill="#e7f9e9"/><path id="XMLID_342_" d="m352.336 139.743c2.321-34.173 16.908-65.837 41.679-90.006 3.953-3.856 4.031-10.188.174-14.141-3.855-3.954-10.188-4.032-14.141-.174-15.406 15.032-27.367 32.6-35.504 51.785-4.376-9.14-10.341-17.674-17.777-25.11-23.574-23.574-58.181-32.404-88.168-22.496-3.006.993-5.364 3.352-6.357 6.357-9.908 29.986-1.078 64.594 22.496 88.167 7.213 7.213 15.468 13.027 24.298 17.365-7.95 3.169-15.677 6.932-23.105 11.3-25.23-14.841-54.601-23.37-85.931-23.37-93.738 0-170 76.262-170 170s76.262 170 170 170c31.329 0 60.699-8.528 85.929-23.371 26.028 15.308 55.655 23.371 86.071 23.371 93.738 0 170-76.262 170-170 0-90.267-70.721-164.315-159.664-169.677zm-102.504-82.55c21.68-5.11 45.82 2.075 62.793 19.047 13.751 13.751 21.076 32.207 20.644 50.246l-27.973-27.973c-3.906-3.905-10.236-3.905-14.143 0-3.905 3.905-3.905 10.237 0 14.142l27.974 27.974c-18.039.432-36.495-6.893-50.247-20.645-16.974-16.972-24.159-41.114-19.048-62.791zm-229.832 252.227c0-82.71 67.29-150 150-150s150 67.29 150 150-67.29 150-150 150-150-67.289-150-150zm322 150c-23.601 0-46.653-5.511-67.483-16.017 39.831-31.141 65.483-79.621 65.483-133.983 0-54.361-25.651-102.841-65.482-133.982 20.83-10.505 43.884-16.018 67.482-16.018 82.71 0 150 67.29 150 150s-67.29 150-150 150z" fill="#ffa96b"/></g></g></svg>