<svg id="Capa_1" enable-background="new 0 0 512 512" height="512" viewBox="0 0 512 512" width="512" xmlns="http://www.w3.org/2000/svg"><g id="XMLID_1320_"><path id="XMLID_1638_" d="m73.962 120.941c16.018 10.136 35.002 16.009 55.36 16.009 57.03 0 103.299-46.05 103.666-102.994-16.018-10.136-35.002-16.009-55.36-16.009-57.03 0-103.299 46.051-103.666 102.994z" fill="#b8ecbc"/><g id="XMLID_1583_"><path id="XMLID_1307_" d="m316.901 10h-.106c-10.195 0-18.701 7.63-19.995 17.742-4.496 35.154-15.562 68.251-31.935 98.022h40.767c15.528-28.234 26.28-59.46 31.183-92.594 1.805-12.196-7.585-23.17-19.914-23.17z" fill="#b8ecbc"/></g><path id="XMLID_1584_" d="m369.319 184.215c-2.907-16.933-11.239-33.115-25.003-45.751-30.651-28.138-78.351-28.138-109.002 0-13.763 12.634-22.094 28.813-25.002 45.743-4.83 28.118-17.706 54.123-35.678 76.28-21.443 26.436-33.967 60.399-32.989 97.312 2.137 80.662 69.225 145.119 149.91 144.191 81.06-.932 146.484-66.933 146.484-148.214 0-35.695-12.62-68.44-33.641-94.022-17.908-21.793-30.307-47.739-35.079-75.539z" fill="#e0ef9b"/><path id="XMLID_386_" d="m412.123 253.406c-17.185-20.914-28.578-45.424-32.948-70.883-3.418-19.907-13.133-37.689-28.097-51.426-8.391-7.702-17.947-13.509-28.092-17.449 11.69-25.049 19.661-51.575 23.721-79.013 1.29-8.717-1.267-17.537-7.014-24.197-5.723-6.634-14.03-10.438-22.792-10.438h-.105c-12.806 0-23.987 8.161-28.286 19.825-4.517-.291-9.054-.456-13.573-.456-13.627 0-27.096 1.339-40.249 3.928-17.292-10.053-36.926-15.35-57.06-15.35-30.233 0-58.691 11.738-80.132 33.051-21.43 21.303-33.339 49.671-33.534 79.878-.022 3.451 1.736 6.669 4.652 8.515 18.152 11.487 39.144 17.558 60.707 17.558 30.233 0 58.691-11.738 80.132-33.051 19.492-19.377 31.105-44.6 33.193-71.736 10.586-1.841 21.382-2.794 32.29-2.794 3.301 0 6.613.091 9.917.262-4.512 25.252-12.613 49.586-24.157 72.549-11.654 3.898-22.646 10.195-32.146 18.916-14.961 13.734-24.676 31.514-28.095 51.417-4.315 25.119-15.93 49.903-33.589 71.674-23.711 29.233-36.219 66.124-35.219 103.876 1.103 41.648 18.35 80.584 48.564 109.635 29.757 28.614 68.616 44.303 109.609 44.303.615 0 1.233-.003 1.849-.01 41.874-.482 81.164-17.153 110.633-46.943 29.493-29.814 45.735-69.331 45.735-111.271.001-36.539-12.754-72.185-35.914-100.37zm-282.801-126.456c-15.876 0-31.373-3.991-45.154-11.586 3.241-48.695 44.039-87.416 93.46-87.416 9.048 0 17.97 1.3 26.524 3.821-25.406 9.208-48.968 23.386-69.314 42.004-4.074 3.729-4.355 10.054-.626 14.128 1.973 2.155 4.672 3.249 7.38 3.249 2.411 0 4.829-.867 6.748-2.623 21.285-19.477 46.468-33.567 73.621-41.545-6.678 45.133-45.768 79.968-92.639 79.968zm176.949-94.711c.037-.212.079-.422.102-.639.006-.054.004-.107.009-.161.111-.81.234-1.616.337-2.427.657-5.137 4.988-9.011 10.076-9.011h.105c2.984 0 5.702 1.244 7.651 3.503 1.974 2.287 2.816 5.2 2.372 8.203-3.953 26.714-11.897 52.496-23.617 76.747-6.071-.897-12.216-1.19-18.336-.869 10.532-23.999 17.666-49.259 21.301-75.346zm-14.832 459.752c-.531.006-1.062.009-1.592.009-74.391 0-136.234-59.994-138.206-134.465-.874-32.988 10.05-65.216 30.759-90.748 19.813-24.427 32.873-52.397 37.767-80.887 2.663-15.5 10.239-29.356 21.91-40.069 13.386-12.289 30.559-18.431 47.738-18.431 17.175 0 34.355 6.145 47.738 18.431 11.672 10.715 19.249 24.574 21.91 40.077 4.957 28.874 17.823 56.605 37.208 80.196 20.227 24.617 31.367 55.753 31.367 87.673 0 75.345-61.278 137.348-136.599 138.214z" fill="#cbe558"/><g fill="#f5fade"><circle id="XMLID_1293_" cx="293.306" cy="450" r="12"/><circle id="XMLID_1321_" cx="345.973" cy="436" r="12"/><circle id="XMLID_1323_" cx="312.14" cy="401.5" r="12"/><circle id="XMLID_1324_" cx="379.64" cy="396" r="12"/></g></g></svg>