<svg id="Capa_1" enable-background="new 0 0 511.67 511.67" height="512" viewBox="0 0 511.67 511.67" width="512" xmlns="http://www.w3.org/2000/svg"><g id="XMLID_1131_"><path id="XMLID_583_" d="m437.241 242.664c.005-66.934-54.248-121.202-121.182-121.202h-120.448c-66.934 0-121.187 54.268-121.182 121.202.007 91.847 51.103 193.475 126.416 242.649 33.36 21.782 76.618 21.782 109.979 0 75.314-49.174 126.41-150.802 126.417-242.649z" fill="#ff9eb1"/><g id="XMLID_10_"><path id="XMLID_17_" d="m388.596 193.676c-.271.977.304-.969 0 0z" fill="#bbffc6"/><path id="XMLID_16_" d="m123.074 193.676c-.303-.969.272.977 0 0z" fill="#bbffc6"/><path id="XMLID_11_" d="m320.299 101.823h-11.531c-15.403 0-27.89-12.487-27.89-27.89v-63.933h-50.085v63.933c0 15.403-12.487 27.89-27.89 27.89h-11.531c-46.498 0-80.746 47.052-68.298 91.853 31.722 7.034 66.653-2.541 90.212-28.195.132-.143.258-.286.388-.43 7.739 21.291 22.807 39.062 42.16 50.263 19.354-11.2 34.422-28.972 42.16-50.263.131.143.257.286.388.43 23.559 25.654 58.49 35.229 90.212 28.195 12.451-44.8-21.797-91.853-68.295-91.853z" fill="#b8ecbc"/></g><path id="XMLID_381_" d="m390.879 134.898c-2.041-3.759-4.37-7.388-6.995-10.842-15.568-20.485-38.744-32.233-63.584-32.233h-11.531c-9.864 0-17.89-8.025-17.89-17.89v-63.933c0-5.523-4.478-10-10-10h-50.086c-5.523 0-10 4.477-10 10v63.933c0 9.865-8.025 17.89-17.89 17.89h-11.531c-24.84 0-48.016 11.749-63.584 32.233-2.625 3.454-4.955 7.083-6.995 10.842-35.333 24.571-56.367 64.682-56.363 107.767.004 46.394 12.817 96.791 36.081 141.908 23.986 46.521 56.792 84.251 94.869 109.113 18.363 11.99 39.41 17.984 60.457 17.984s42.094-5.995 60.456-17.984c38.078-24.862 70.883-62.592 94.869-109.113 23.263-45.118 36.076-95.515 36.08-141.908.003-43.077-21.033-83.196-56.363-107.767zm-199.507-23.075h11.531c20.893 0 37.89-16.998 37.89-37.89v-53.933h30.086v53.933c0 20.893 16.997 37.89 37.89 37.89h11.531c18.535 0 35.907 8.87 47.661 24.335 10.753 14.148 15.181 32.026 12.329 48.879-27.602 3.995-55.827-5.949-74.903-26.723-2.41-2.644-6.081-3.841-9.581-3.07-3.493.77-6.31 3.348-7.385 6.759-.052.164-.099.328-.142.493-6.274 16.7-17.664 31.062-32.443 41.029-14.814-9.99-26.223-24.397-32.488-41.148-.478-1.778-1.45-3.443-2.91-4.769-4.074-3.701-10.406-3.374-14.127.679-19.101 20.798-47.335 30.746-74.928 26.75-2.851-16.852 1.577-34.731 12.329-48.879 11.753-15.465 29.124-24.335 47.66-24.335zm113.986 365.117c-15.044 9.822-32.28 14.733-49.522 14.731-17.238-.001-34.482-4.912-49.522-14.731-70.617-46.108-121.876-144.635-121.884-234.277-.002-26.628 9.475-51.92 26.22-71.743-.421 8.541.483 17.133 2.79 25.434.989 3.561 3.862 6.286 7.47 7.085 31.581 7.002 64.614-1.17 89.38-21.468 9.262 17.401 23.294 32.021 40.537 41.999 1.549.896 3.279 1.345 5.009 1.345 1.729 0 3.46-.448 5.009-1.345 17.24-9.977 31.271-24.596 40.533-41.993 24.741 20.286 57.791 28.468 89.384 21.462 3.607-.8 6.48-3.524 7.47-7.085 2.307-8.301 3.211-16.892 2.79-25.433 16.745 19.825 26.222 45.12 26.219 71.743-.007 89.64-51.266 188.168-121.883 234.276z" fill="#ff5d7d"/><g fill="#ffda8f"><ellipse id="XMLID_73_" cx="255.962" cy="299.573" rx="16.874" ry="22"/><ellipse id="XMLID_947_" cx="255.962" cy="428.573" rx="16.874" ry="22"/><ellipse id="XMLID_858_" cx="148.963" cy="299.573" rx="16.874" ry="22"/><ellipse id="XMLID_859_" cx="362.962" cy="299.573" rx="16.874" ry="22"/><ellipse id="XMLID_861_" cx="310.935" cy="247.24" rx="16.874" ry="22"/><ellipse id="XMLID_862_" cx="200.99" cy="247.24" rx="16.874" ry="22"/><ellipse id="XMLID_869_" cx="310.935" cy="368.74" rx="16.874" ry="22"/><ellipse id="XMLID_863_" cx="200.99" cy="368.74" rx="16.874" ry="22"/></g></g></svg>