<svg id="Capa_1" enable-background="new 0 0 512.004 512.004" height="512" viewBox="0 0 512.004 512.004" width="512" xmlns="http://www.w3.org/2000/svg"><g id="XMLID_1097_"><ellipse id="XMLID_1309_" cx="193.002" cy="307.332" fill="#b8ecbc" rx="183" ry="194.671"/><path id="XMLID_1427_" d="m81.103 153.299c1.375 2.878 3.043 5.62 5.025 8.16 5.951 7.628 14.585 14.483 15.06 24.146.461 9.384-7.013 16.945-12.549 24.537-17.693 24.263-17.039 60.292 1.525 83.896 2.311 2.939 4.908 5.773 6.21 9.278 4.706 12.67-8.805 23.801-17.114 34.462-16.256 20.859-12.34 54.524 8.269 71.095 5.855 4.708 13.039 8.453 16.314 15.215 7.01 14.473-7.912 28.706-13.884 44.135 16.48 11.967 34.894 21.138 54.64 26.885-3.196-6.591-4.587-13.879-3.114-21.031 3.65-17.723 23.542-33.703 15.654-49.989-3.275-6.762-10.459-10.507-16.314-15.215-20.609-16.571-24.525-50.236-8.269-71.095 8.308-10.661 21.82-21.792 17.114-34.462-1.302-3.505-3.899-6.339-6.21-9.278-18.563-23.605-19.218-59.633-1.525-83.896 5.536-7.592 13.01-15.152 12.549-24.537-.475-9.663-9.109-16.518-15.06-24.146-8.08-10.357-11.071-24.007-9.327-36.991-17.791 6.927-34.281 16.717-48.994 28.831z" fill="#e7f9e9"/><g id="XMLID_2804_"><path id="XMLID_2805_" d="m228.763 294.038c-2.311 2.939-4.908 5.773-6.21 9.278-2.039 5.49-.656 10.69 2.24 15.688h53.295c-2.896-4.999-4.279-10.199-2.24-15.688 1.302-3.505 3.899-6.339 6.21-9.278 18.563-23.605 19.218-59.633 1.524-83.896-5.536-7.592-13.01-15.152-12.548-24.537.475-9.663 9.109-16.518 15.06-24.146 3.796-4.866 6.469-10.46 8.056-16.369-16.047-11.344-33.872-20.062-52.937-25.587 3.336 14.386.705 30.267-8.414 41.956-5.951 7.628-14.585 14.483-15.06 24.146-.461 9.384 7.013 16.945 12.549 24.537 17.692 24.263 17.038 60.291-1.525 83.896z" fill="#e7f9e9"/></g><g id="XMLID_1484_"><path id="XMLID_1367_" d="m502.002 319.004c0 101.068-81.932 183-183 183s-183-81.932-183-183z" fill="#b8ecbc"/><path id="XMLID_1380_" d="m472.187 319.004c0 84.602-68.583 153.185-153.185 153.185s-153.185-68.583-153.185-153.185z" fill="#fff"/><path id="XMLID_1381_" d="m452.002 319.004c0 73.454-59.546 133-133 133s-133-59.546-133-133z" fill="#ffbecb"/></g><g id="XMLID_1565_" fill="#a7bdcd"><path id="XMLID_1564_" d="m243.017 377.127c-4.29-4.29-4.703-11.108-.962-15.885l9.447-12.061 9.447 12.061c3.741 4.777 3.328 11.594-.962 15.885-4.686 4.686-12.284 4.686-16.97 0z"/><path id="XMLID_1566_" d="m288.017 377.127c-4.29-4.29-4.703-11.108-.962-15.885l9.447-12.061 9.447 12.061c3.741 4.777 3.328 11.594-.962 15.885-4.686 4.686-12.284 4.686-16.97 0z"/><path id="XMLID_1568_" d="m333.017 377.127c-4.29-4.29-4.703-11.108-.962-15.885l9.447-12.061 9.447 12.061c3.741 4.777 3.328 11.594-.962 15.885-4.686 4.686-12.284 4.686-16.97 0z"/><path id="XMLID_1570_" d="m378.017 377.127c-4.29-4.29-4.703-11.108-.962-15.885l9.447-12.061 9.447 12.061c3.741 4.777 3.328 11.594-.962 15.885-4.686 4.686-12.284 4.686-16.97 0z"/><path id="XMLID_1577_" d="m265.517 416.627c-4.29-4.29-4.703-11.108-.962-15.885l9.447-12.061 9.447 12.061c3.741 4.777 3.328 11.594-.962 15.885-4.686 4.686-12.284 4.686-16.97 0z"/><path id="XMLID_1575_" d="m310.517 416.627c-4.29-4.29-4.703-11.108-.962-15.885l9.447-12.061 9.447 12.061c3.741 4.777 3.328 11.594-.962 15.885-4.686 4.686-12.284 4.686-16.97 0z"/><path id="XMLID_1573_" d="m355.517 416.627c-4.29-4.29-4.703-11.108-.962-15.885l9.447-12.061 9.447 12.061c3.741 4.777 3.328 11.594-.962 15.885-4.686 4.686-12.284 4.686-16.97 0z"/></g><path id="XMLID_757_" d="m502.002 309.004h-116.021c.004-.557.021-1.116.021-1.671 0-108.301-79.735-197.209-180.219-204.211-14.861-12.923-21.596-32.032-19.394-50.482.405.356.821.705 1.25 1.043.008.006.016.011.024.017 11.781 9.277 25.819 13.775 39.766 13.775 19.063 0 37.953-8.409 50.642-24.508 3.419-4.337 2.674-10.625-1.663-14.044-4.34-3.418-10.626-2.673-14.044 1.664-7.993 10.141-19.552 15.85-31.513 16.761 9.107-12.951 6.591-30.974-5.992-40.891-6.308-4.971-14.172-7.188-22.148-6.243-7.97.945-15.096 4.936-20.067 11.238-.002.003-.005.006-.008.009-21.45 27.219-21.754 64.44-3.295 91.721-100.07 7.457-179.339 96.166-179.339 204.15 0 112.856 86.579 204.671 193 204.671 21.296 0 42.197-3.66 62.167-10.862 19.991 7.026 41.47 10.862 63.833 10.862 106.421 0 193-86.58 193-193 0-5.522-4.478-9.999-10-9.999zm-296.336-288.965c.403-.048-.399 0 0 0 2.248 0 5.019.712 6.812 2.125 4.358 3.435 5.11 9.776 1.675 14.134-1.664 2.112-4.051 3.449-6.721 3.765-2.667.317-5.303-.426-7.413-2.09h-.001c-4.358-3.435-5.11-9.776-1.675-14.134 1.665-2.111 4.654-3.484 7.323-3.8zm-12.664 471.965c-95.393 0-173-82.843-173-184.671s77.607-184.671 173-184.671 173 82.843 173 184.671c0 .555-.017 1.114-.021 1.671h-229.979c-5.522 0-10 4.477-10 10 0 73.027 40.771 136.708 100.745 169.484-11.052 2.332-22.334 3.516-33.745 3.516zm126 0c-92.039 0-167.521-72.239-172.715-163h345.43c-5.195 90.761-80.676 163-172.715 163z" fill="#89df8f"/></g></svg>