<svg id="Capa_1" enable-background="new 0 0 512.002 512.002" height="512" viewBox="0 0 512.002 512.002" width="512" xmlns="http://www.w3.org/2000/svg"><g id="XMLID_586_"><g id="XMLID_1464_"><path id="XMLID_949_" d="m442.289 96.511 49.765-30.774c11.508-7.116 13.368-23.105 3.8-32.673l-16.916-16.916c-9.568-9.568-25.557-7.708-32.673 3.8l-30.774 49.765z" fill="#b8ecbc"/><path id="XMLID_782_" d="m428.109 83.893 16.211 16.211c31.067 31.067 31.067 81.437 0 112.505l-28.806 28.806c-20.013 20.013-32.878 46.059-36.61 74.114-6.22 46.773-27.67 90.196-61.034 123.56-57.475 57.475-142.472 77.582-219.607 51.949l-58.019-19.28-19.28-58.019c-25.633-77.135-5.526-162.132 51.949-219.607 33.364-33.364 76.787-54.814 123.56-61.034 28.055-3.731 54.101-16.597 74.114-36.61l28.806-28.806c31.067-31.067 81.437-31.067 112.505 0z" fill="#ffbe90"/><g id="XMLID_775_"><path id="XMLID_776_" d="m376.959 135.043c-11.771-11.771-30.855-11.771-42.625 0l-12.595 12.595c-31.07 31.07-72.168 51.372-115.726 57.166-30.846 4.101-59.948 18.476-81.949 40.477-38.358 38.358-51.56 94.167-34.453 145.645l7.848 23.616 23.615 7.847c51.479 17.108 107.288 3.906 145.646-34.452 21.797-21.797 36.109-50.564 40.361-81.087 6.139-44.065 25.822-85.128 57.282-116.588l12.595-12.595c11.772-11.769 11.772-30.853.001-42.624z" fill="#fff3da"/></g><path id="XMLID_409_" d="m502.925 25.993-16.916-16.916c-6.733-6.734-16.022-9.966-25.481-8.866-9.461 1.1-17.759 6.377-22.768 14.477l-24.943 40.335c-35.147-29.201-87.557-27.347-120.495 5.588l-28.806 28.806c-18.354 18.354-42.632 30.346-68.361 33.768-48.67 6.473-94.595 29.157-129.313 63.875-29.514 29.514-50.191 66.583-59.8 107.201-9.608 40.617-7.729 83.022 5.433 122.631l19.279 58.019c.995 2.993 3.344 5.342 6.337 6.336l58.019 19.28c22.983 7.638 46.902 11.476 70.874 11.475 17.339 0 34.709-2.009 51.758-6.043 40.617-9.608 77.687-30.287 107.2-59.801 34.718-34.718 57.402-80.642 63.876-129.312 3.422-25.73 15.414-50.008 33.768-68.361l28.806-28.805c16.914-16.915 26.229-39.403 26.229-63.324 0-21.13-7.279-41.135-20.633-57.176l40.327-24.938c8.1-5.009 13.376-13.307 14.477-22.767 1.098-9.459-2.132-18.747-8.867-25.482zm-65.676 179.544-28.806 28.806c-21.442 21.442-35.453 49.807-39.451 79.867-5.896 44.34-26.563 86.179-58.192 117.807-55.144 55.146-135.374 74.123-209.383 49.531l-53.263-17.699-17.699-53.263c-24.593-74.008-5.614-154.238 49.53-209.382 31.63-31.629 73.468-52.296 117.808-58.193 30.061-3.998 58.424-18.008 79.867-39.451l28.806-28.806c13.137-13.137 30.603-20.372 49.181-20.372 18.579 0 36.045 7.235 49.182 20.372l32.421 32.422c13.137 13.137 20.372 30.603 20.372 49.181s-7.237 36.043-20.373 49.18zm54.675-156.372c-.39 3.352-2.26 6.293-5.13 8.067l-43.997 27.207-15.235-15.235 27.207-43.997c1.775-2.87 4.716-4.74 8.067-5.129 3.363-.392 6.645.756 9.029 3.142l16.916 16.916c2.389 2.385 3.533 5.676 3.143 9.029z" fill="#ff7b79"/></g><g id="XMLID_678_" fill="#a7bdcd"><circle id="XMLID_1544_" cx="143.642" cy="313.035" r="18.73"/><circle id="XMLID_774_" cx="183.374" cy="265.025" r="18.73"/><circle id="XMLID_773_" cx="198.967" cy="368.36" r="18.73"/><circle id="XMLID_772_" cx="246.977" cy="328.628" r="18.73"/><circle id="XMLID_770_" cx="139.23" cy="372.773" r="18.73"/><circle id="XMLID_679_" cx="256.77" cy="255.232" r="18.73"/></g></g></svg>