<svg id="Capa_1" enable-background="new 0 0 512 512" height="512" viewBox="0 0 512 512" width="512" xmlns="http://www.w3.org/2000/svg"><g id="XMLID_1606_"><g id="XMLID_1135_"><path id="XMLID_41_" d="m256 502c-81.3 0-147.206-65.906-147.206-147.206v-63.088c0-81.3 65.906-147.206 147.206-147.206 81.299 0 147.206 65.906 147.206 147.206v63.088c0 81.3-65.906 147.206-147.206 147.206z" fill="#ffda8f"/><g id="XMLID_1748_" fill="#e0ef9b"><path id="XMLID_1110_" d="m225.174 71.074c0-33.762 22.146-61.074 30.713-61.074 7.249 0 30.571 27.312 30.571 61.074l-30.458 68.421z"/><path id="XMLID_1106_" d="m357.596 185.5v-15.598c0-32.929 14.652-64.151 39.98-85.194h-9.903c-28.911 0-54.625 13.684-71.02 34.928l-1.074 30.994z"/><path id="XMLID_981_" d="m315.579 150.63v-15.598c0-32.929 14.652-64.151 39.98-85.194h-9.903c-49.516 0-89.656 40.141-89.656 89.656z"/><path id="XMLID_48_" d="m154.404 185.5v-15.598c0-32.929-14.652-64.151-39.98-85.194h9.903c28.911 0 54.625 13.684 71.02 34.928l1.074 30.994z"/><path id="XMLID_47_" d="m196.421 150.63v-15.598c0-32.929-14.652-64.151-39.98-85.194h9.903c49.516 0 89.656 40.141 89.656 89.656z"/></g></g><g id="XMLID_872_" fill="#ffa96b"><path id="XMLID_901_" d="m367.596 181.095v-11.194c0-30.05 13.257-58.298 36.371-77.501 3.241-2.692 4.446-7.126 3.015-11.089s-5.192-6.603-9.405-6.603h-9.903c-18.214 0-35.617 4.851-50.74 13.813 6.109-11.736 14.547-22.294 25.017-30.992 3.24-2.692 4.446-7.127 3.015-11.089s-5.192-6.603-9.405-6.603h-9.903c-18.611 0-36.043 5.133-50.964 14.05-2.833-13.982-8.47-24.998-12.263-31.218-3.245-5.317-14.743-22.669-26.544-22.669-12.229 0-23.062 15.905-27.152 22.744-3.655 6.111-9.081 16.962-11.828 30.907-14.833-8.77-32.119-13.813-50.563-13.813h-9.903c-4.213 0-7.974 2.64-9.405 6.603s-.226 8.397 3.015 11.089c10.469 8.698 18.908 19.256 25.017 30.992-15.123-8.962-32.526-13.813-50.74-13.813h-9.903c-4.213 0-7.974 2.64-9.405 6.603s-.226 8.397 3.015 11.089c23.114 19.203 36.371 47.452 36.371 77.501v11.194c-28.177 28.426-45.61 67.519-45.61 110.611v63.089c-.002 86.682 70.52 157.204 157.204 157.204s157.206-70.522 157.206-157.206v-63.089c0-43.091-17.433-82.184-45.61-110.61zm5.156-85.003c-15.038 19.439-23.826 43.1-25.007 68.035-6.984-5.037-14.397-9.512-22.172-13.365.001-.044.007-.087.007-.132v-15.598c0-3.807.215-7.585.633-11.319 11.998-14.563 28.369-24.205 46.539-27.621zm-65.923 21.711c-.043.23-.074.461-.101.693-.747 5.441-1.149 10.96-1.149 16.537v7.486c-12.522-4.172-25.74-6.804-39.428-7.681 2.13-36.729 29.245-66.866 64.569-73.595-12.705 16.429-20.931 35.879-23.891 56.56zm-51.229-96.944c6.02 5.052 19.643 23.33 20.774 47.075-8.322 8.06-15.249 17.551-20.374 28.076-5.198-10.674-12.246-20.288-20.727-28.421 1.201-23.16 14.009-41.82 20.327-46.73zm-9.751 113.978c-13.689.877-26.906 3.508-39.428 7.681v-7.486c0-5.576-.402-11.096-1.149-16.537-.026-.232-.058-.462-.101-.693-2.96-20.68-11.185-40.13-23.891-56.56 35.324 6.729 62.439 36.866 64.569 73.595zm-106.601-38.745c18.171 3.416 34.542 13.058 46.54 27.621.419 3.735.633 7.512.633 11.319v15.733c-7.773 3.853-15.183 8.327-22.166 13.362-1.181-24.935-9.969-48.597-25.007-68.035zm253.958 258.702c0 75.656-61.55 137.206-137.206 137.206s-137.206-61.55-137.206-137.206v-63.089c0-75.655 61.55-137.206 137.206-137.206s137.206 61.55 137.206 137.206z"/><path id="XMLID_907_" d="m234.196 207.864-9.879-8.228c-4.035-3.361-9.895-3.361-13.931 0l-9.879 8.228c-3.095 2.578-.646 7.576 3.288 6.709l13.556-2.988 13.556 2.988c3.935.867 6.385-4.131 3.289-6.709z"/><path id="XMLID_908_" d="m195.917 258.538-9.879-8.228c-4.035-3.361-9.895-3.361-13.931 0l-9.879 8.228c-3.095 2.578-.646 7.576 3.288 6.709l13.556-2.988 13.556 2.988c3.935.867 6.384-4.131 3.289-6.709z"/><path id="XMLID_909_" d="m272.844 258.538-9.879-8.228c-4.035-3.361-9.895-3.361-13.931 0l-9.879 8.228c-3.095 2.578-.646 7.576 3.288 6.709l13.557-2.987 13.556 2.988c3.934.866 6.383-4.132 3.288-6.71z"/><path id="XMLID_910_" d="m349.771 258.538-9.879-8.228c-4.035-3.361-9.895-3.361-13.931 0l-9.879 8.228c-3.095 2.578-.646 7.576 3.288 6.709l13.556-2.988 13.556 2.988c3.935.867 6.385-4.131 3.289-6.709z"/><path id="XMLID_911_" d="m195.917 319.636-9.879-8.228c-4.035-3.361-9.895-3.361-13.931 0l-9.879 8.228c-3.095 2.578-.646 7.576 3.288 6.709l13.556-2.987 13.556 2.987c3.935.867 6.384-4.131 3.289-6.709z"/><path id="XMLID_912_" d="m272.844 319.636-9.879-8.228c-4.035-3.361-9.895-3.361-13.931 0l-9.879 8.228c-3.095 2.578-.646 7.576 3.288 6.709l13.557-2.987 13.556 2.987c3.934.867 6.383-4.131 3.288-6.709z"/><path id="XMLID_913_" d="m349.771 319.636-9.879-8.228c-4.035-3.361-9.895-3.361-13.931 0l-9.879 8.228c-3.095 2.578-.646 7.576 3.288 6.709l13.556-2.987 13.556 2.987c3.935.867 6.385-4.131 3.289-6.709z"/><path id="XMLID_914_" d="m195.917 380.735-9.879-8.228c-4.035-3.361-9.895-3.361-13.931 0l-9.879 8.228c-3.095 2.578-.646 7.576 3.288 6.709l13.556-2.988 13.556 2.988c3.935.867 6.384-4.132 3.289-6.709z"/><path id="XMLID_915_" d="m272.844 380.735-9.879-8.228c-4.035-3.361-9.895-3.361-13.931 0l-9.879 8.228c-3.095 2.578-.646 7.576 3.288 6.709l13.557-2.988 13.556 2.988c3.934.867 6.383-4.132 3.288-6.709z"/><path id="XMLID_916_" d="m349.771 380.735-9.879-8.228c-4.035-3.361-9.895-3.361-13.931 0l-9.879 8.228c-3.095 2.578-.646 7.576 3.288 6.709l13.556-2.988 13.556 2.988c3.935.867 6.385-4.132 3.289-6.709z"/><path id="XMLID_917_" d="m311.124 207.864-9.879-8.228c-4.035-3.361-9.895-3.361-13.931 0l-9.879 8.228c-3.095 2.578-.646 7.576 3.288 6.709l13.556-2.988 13.556 2.988c3.934.867 6.384-4.131 3.289-6.709z"/><path id="XMLID_918_" d="m234.196 438.458-9.879-8.228c-4.035-3.361-9.895-3.361-13.931 0l-9.879 8.228c-3.095 2.578-.646 7.576 3.288 6.709l13.556-2.988 13.556 2.988c3.935.866 6.385-4.132 3.289-6.709z"/><path id="XMLID_919_" d="m311.124 438.458-9.879-8.228c-4.035-3.361-9.895-3.361-13.931 0l-9.879 8.228c-3.095 2.578-.646 7.576 3.288 6.709l13.556-2.988 13.556 2.988c3.934.866 6.384-4.132 3.289-6.709z"/></g></g></svg>