<svg id="Capa_1" enable-background="new 0 0 511.922 511.922" height="512" viewBox="0 0 511.922 511.922" width="512" xmlns="http://www.w3.org/2000/svg"><g id="XMLID_1515_"><path id="XMLID_19_" d="m157.529 404.697c62.417 62.417 163.614 62.417 226.03 0l71.63-71.63c62.417-62.417 62.417-163.614 0-226.03-62.417-62.417-163.614-62.417-226.03 0l-71.63 71.63c-62.417 62.416-62.417 163.613 0 226.03z" fill="#ddb9a3"/><circle id="XMLID_1445_" cx="153.75" cy="307.867" fill="#e0ef9b" r="143.75"/><circle id="XMLID_1446_" cx="153.75" cy="307.867" fill="#f5fade" r="52"/><path id="XMLID_459_" d="m462.259 99.966c-66.215-66.215-173.957-66.215-240.172 0l-54.758 54.758c-4.476-.394-9.003-.607-13.579-.607-84.778 0-153.75 68.972-153.75 153.75s68.972 153.75 153.75 153.75c20.123 0 39.352-3.892 56.983-10.953 19.481 7.324 39.721 10.894 59.802 10.894 44.207 0 87.594-17.288 120.096-49.789l71.63-71.629c66.215-66.217 66.215-173.958-.002-240.174zm-442.259 207.901c0-73.75 60-133.75 133.75-133.75s133.75 60 133.75 133.75-60 133.75-133.75 133.75-133.75-60-133.75-133.75zm428.118 18.129-71.63 71.629c-37.092 37.094-90.238 51.72-140.258 39.942 42.817-27.324 71.27-75.251 71.27-129.7 0-71.749-49.404-132.171-115.98-149.05l44.709-44.709c58.417-58.418 153.47-58.417 211.888 0 28.299 28.298 43.884 65.923 43.884 105.944s-15.584 77.646-43.883 105.944z" fill="#d1a184"/><g fill="#a7bdcd"><ellipse id="XMLID_1447_" cx="153.75" cy="214.909" rx="12" ry="19.75"/><ellipse id="XMLID_1449_" cx="153.75" cy="400.825" rx="12" ry="19.75"/><ellipse id="XMLID_1450_" cx="246.708" cy="307.867" rx="19.75" ry="12"/><ellipse id="XMLID_1448_" cx="60.791" cy="307.867" rx="19.75" ry="12"/><ellipse id="XMLID_1454_" cx="219.481" cy="242.136" rx="19.75" ry="12" transform="matrix(.707 -.707 .707 .707 -106.931 226.117)"/><ellipse id="XMLID_1453_" cx="88.018" cy="373.599" rx="19.75" ry="12" transform="matrix(.707 -.707 .707 .707 -238.394 171.663)"/><ellipse id="XMLID_1452_" cx="219.481" cy="373.599" rx="12" ry="19.75" transform="matrix(.707 -.707 .707 .707 -199.89 264.621)"/><ellipse id="XMLID_1451_" cx="88.018" cy="242.136" rx="12" ry="19.75" transform="matrix(.707 -.707 .707 .707 -145.436 133.158)"/></g></g></svg>