<svg id="Capa_1" enable-background="new 0 0 511.929 511.929" height="512" viewBox="0 0 511.929 511.929" width="512" xmlns="http://www.w3.org/2000/svg"><g id="XMLID_1506_"><g id="XMLID_1510_" fill="#e0ef9b"><path id="XMLID_1520_" d="m343.867 255.215c52.299-90.585 52.642-169.726 10.686-193.949s-110.323 15.643-162.623 106.229-68.727 197.587-26.771 221.81 126.408-43.504 178.708-134.09z"/><path id="XMLID_1518_" d="m309.183 235.19c52.299-90.585 120.666-130.452 162.622-106.229s41.614 103.364-10.686 193.949-136.751 158.314-178.707 134.09-25.529-131.224 26.771-221.81z"/><path id="XMLID_1516_" d="m366.722 268.411c52.299-90.585 58.523-166.33 23.822-186.365s-97.186 23.228-149.485 113.813-74.609 194.191-39.908 214.225c34.701 20.035 113.271-51.088 165.571-141.673z"/><path id="XMLID_1514_" d="m286.328 221.995c52.299-90.585 114.784-133.848 149.485-113.813s28.477 95.779-23.822 186.365-130.87 161.708-165.571 141.674c-34.701-20.035-12.392-123.64 39.908-214.226z"/></g><g id="XMLID_1467_"><path id="XMLID_1509_" d="m321.162 278.178c-25.142-24.036-62.346-33.841-97.744-22.339-2.26.734-4.472 1.545-6.64 2.425.167-2.333.254-4.688.254-7.064 0-37.22-20.822-69.573-51.451-86.057-30.629 16.484-51.451 48.837-51.451 86.057 0 2.376.087 4.731.254 7.064-2.167-.88-4.381-1.69-6.64-2.425-35.397-11.502-72.602-1.697-97.744 22.339 6.212 34.223 30.548 64.024 65.946 75.526 2.259.734 4.526 1.379 6.797 1.941-1.506 1.79-2.961 3.644-4.358 5.566-21.877 30.111-24.049 68.525-8.959 99.864 34.468 4.667 70.33-9.268 92.208-39.38 1.396-1.922 2.71-3.879 3.947-5.864 1.237 1.986 2.55 3.942 3.947 5.864 21.877 30.112 57.74 44.047 92.208 39.38 15.09-31.339 12.919-69.752-8.959-99.864-1.396-1.922-2.851-3.776-4.358-5.566 2.271-.562 4.538-1.207 6.797-1.941 35.398-11.502 59.734-41.303 65.946-75.526z" fill="#f5fade"/><path id="XMLID_804_" d="m476.804 120.302c-6.571-3.794-13.756-6.287-21.401-7.478-3.908-5.46-8.764-9.938-14.591-13.302-4.779-2.759-10.028-4.445-15.705-5.07l1.45-2.512c14.506-25.126 44.191-37.349 72.181-29.731 5.334 1.45 10.825-1.694 12.275-7.022 1.451-5.329-1.693-10.825-7.021-12.275-36.749-10.001-75.712 6.046-94.755 39.028l-1.451 2.513c-3.379-4.604-7.464-8.307-12.244-11.066-5.734-3.31-12.022-5.269-18.751-5.913-4.866-6.059-10.643-11.057-17.24-14.866-24.116-13.924-55.29-10.277-87.777 10.27-31.936 20.198-62.54 54.646-88.505 99.619-.276.477-.546.966-.821 1.446-3.839-2.775-7.884-5.321-12.128-7.605-2.959-1.593-6.52-1.593-9.479 0-32.984 17.751-54.188 51.084-56.5 88.104-35.924-9.24-74.176.625-101.251 26.51-2.429 2.322-3.529 5.708-2.929 9.014 6.69 36.856 31.837 67.322 66.332 80.961-19.889 31.309-22.327 70.739-6.076 104.488 1.458 3.027 4.338 5.12 7.668 5.571 4.868.659 9.723.982 14.549.982 31.976-.001 62.415-14.208 82.947-39.049 20.533 24.843 50.968 39.05 82.946 39.049 4.824 0 9.684-.323 14.549-.982 3.33-.451 6.21-2.544 7.668-5.571.519-1.077 1.017-2.16 1.498-3.248 1.647 1.284 3.367 2.455 5.169 3.496 7.286 4.207 15.578 6.287 24.694 6.286 20.495 0 45.149-10.513 71.866-31.002 34.839-26.718 69.76-67.917 95.807-113.033 25.966-44.973 40.496-88.701 42.021-126.457 1.551-38.41-10.876-67.231-34.995-81.155zm-30.211 53.467c-3.768 32.865-19.132 73.983-43.262 115.778-36.05 62.44-85.723 116.341-122.01 134.034 1.01-21.82-4.624-43.722-16.651-62.656 34.493-13.639 59.642-44.105 66.331-80.961.601-3.306-.5-6.692-2.929-9.015-1.043-.997-2.109-1.962-3.184-2.912l88.441-153.185c7.026-1.319 12.897-.658 17.484 1.99 13.295 7.676 19.046 28.425 15.78 56.927zm-50.584-68.917-87.369 151.327c-24.265-14.439-53.435-18.87-81.257-11.875 6.73-14.801 14.23-29.405 22.336-43.445 24.13-41.795 52.057-75.659 78.635-95.354 23.051-17.08 43.893-22.475 57.189-14.798 4.587 2.647 8.095 7.402 10.466 14.145zm-113.543-25.073c25.896-16.379 49.721-19.877 67.087-9.852.477.275.941.571 1.406.865-10.963 3.567-22.572 9.796-34.511 18.644-29.146 21.598-58.21 56.67-84.048 101.423-4.248 7.357-8.332 14.866-12.24 22.471-5-13.317-12.594-25.53-22.364-35.912.924-1.653 1.858-3.299 2.796-4.924 24.004-41.577 53.081-74.504 81.874-92.715zm-104.848 336.037c-1.231-1.694-2.425-3.468-3.547-5.271-1.826-2.932-5.035-4.715-8.489-4.715s-6.664 1.783-8.489 4.715c-1.123 1.803-2.316 3.577-3.548 5.271-17.919 24.665-47.166 38.114-77.329 35.915-11.414-28.014-7.658-59.98 10.26-84.643 1.229-1.692 2.548-3.375 3.918-5.004 2.224-2.643 2.927-6.245 1.86-9.53s-3.754-5.786-7.106-6.617c-2.064-.511-4.121-1.099-6.111-1.746-28.993-9.42-50.821-33.074-58.054-62.447 23.115-19.511 54.676-25.817 83.67-16.397 1.994.648 4.002 1.381 5.97 2.18 3.2 1.299 6.844.855 9.638-1.175s4.344-5.357 4.098-8.803c-.152-2.125-.229-4.263-.229-6.353 0-30.485 15.75-58.554 41.451-74.509 25.7 15.955 41.451 44.024 41.451 74.509 0 2.09-.077 4.228-.229 6.353-.246 3.445 1.303 6.773 4.098 8.803 2.793 2.029 6.438 2.475 9.638 1.175 1.967-.799 3.976-1.532 5.969-2.18 28.991-9.421 60.555-3.114 83.67 16.397-7.231 29.373-29.06 53.026-58.052 62.446-1.992.647-4.048 1.234-6.112 1.746-3.352.831-6.039 3.332-7.106 6.617s-.364 6.887 1.86 9.53c1.371 1.628 2.689 3.312 3.918 5.003 17.918 24.663 21.674 56.629 10.261 84.643-30.172 2.202-59.411-11.25-77.329-35.913zm274.841-97.905c-24.782 42.925-57.826 81.984-90.657 107.163-23.018 17.652-43.767 26.91-59.489 26.908-5.66 0-10.673-1.201-14.9-3.642-1.677-.969-3.248-2.16-4.717-3.542 23.57-9.271 47.419-30.104 64.208-47.106 26.528-26.866 52.719-61.722 73.748-98.145 37.414-64.804 52.865-124.209 44.801-162.655.453.239.908.474 1.353.73 38.371 22.154 32.203 99.661-14.347 180.289z" fill="#cbe558"/><g fill="#e0ef9b"><path id="XMLID_1411_" d="m176.688 285c-5.724 7.054-16.489 7.054-22.213 0-3.226-3.975-4.081-9.371-2.242-14.149l12.188-31.674c.409-1.062 1.911-1.062 2.32 0l12.188 31.674c1.839 4.778.984 10.174-2.241 14.149z"/><path id="XMLID_1412_" d="m132.409 301.032c4.94 7.624 1.614 17.862-6.864 21.126-4.777 1.839-10.173.985-14.149-2.24l-26.357-21.38c-.884-.717-.419-2.146.717-2.207l33.89-1.804c5.112-.272 9.979 2.208 12.763 6.505z"/><path id="XMLID_1415_" d="m133.974 348.097c8.777-2.342 17.486 3.985 17.97 13.056.273 5.112-2.207 9.98-6.502 12.764l-28.478 18.46c-.955.619-2.171-.264-1.877-1.364l8.757-32.789c1.32-4.944 5.183-8.807 10.13-10.127z"/><path id="XMLID_1418_" d="m179.219 361.153c.484-9.072 9.193-15.399 17.97-13.056 4.946 1.32 8.81 5.183 10.13 10.129l8.757 32.789c.294 1.099-.922 1.983-1.877 1.364l-28.478-18.46c-4.296-2.786-6.775-7.654-6.502-12.766z"/><path id="XMLID_1421_" d="m205.617 322.157c-8.478-3.264-11.804-13.502-6.864-21.125 2.784-4.296 7.651-6.777 12.763-6.505l33.89 1.804c1.136.061 1.601 1.49.717 2.207l-26.357 21.38c-3.975 3.224-9.371 4.078-14.149 2.239z"/></g></g></g></svg>