<svg id="Capa_1" enable-background="new 0 0 512 512" height="512" viewBox="0 0 512 512" width="512" xmlns="http://www.w3.org/2000/svg"><g id="XMLID_1045_"><path id="XMLID_1060_" d="m255.96 40.266c-4.348-17.387-20.073-30.266-38.807-30.266v70.719h-.005v1.757c0 27.402-10.039 53.665-27.495 74.788-1.569 1.898-3.075 3.883-4.512 5.955l-60.664 87.414c-44.151 63.62-36.437 149.72 18.321 204.477 62.52 62.52 163.885 62.52 226.404 0 54.757-54.757 62.472-140.857 18.321-204.477l-60.663-87.414c-1.438-2.072-2.944-4.057-4.512-5.955-17.456-21.123-27.495-47.386-27.495-74.789v-1.757-70.718c-22.091 0-40 17.909-40 40v30.719" fill="#b8ecbc"/><path id="XMLID_1059_" d="m333.867 102.416-50.976 153.357c2.476.222 4.978.354 7.512.354 45.84 0 83-37.16 83-83 0-29.901-15.818-56.101-39.536-70.711z" fill="#b8ecbc"/><path id="XMLID_1058_" d="m411.67 205.882-50.976 153.357c2.476.222 4.978.354 7.512.354 45.84 0 83-37.16 83-83 0-29.9-15.818-56.1-39.536-70.711z" fill="#b8ecbc"/><path id="XMLID_1053_" d="m445.437 373.667-132.888 91.965c1.846 1.665 3.766 3.274 5.792 4.797 36.644 27.541 88.676 20.162 116.217-16.482 17.964-23.903 21.061-54.351 10.879-80.28z" fill="#b8ecbc"/><path id="XMLID_1051_" d="m178.133 102.416 50.976 153.357c-2.476.222-4.978.354-7.512.354-45.84 0-83-37.16-83-83 0-29.901 15.818-56.101 39.536-70.711z" fill="#b8ecbc"/><path id="XMLID_1050_" d="m100.33 205.882 50.976 153.357c-2.476.222-4.978.354-7.512.354-45.84 0-83-37.16-83-83 0-29.9 15.818-56.1 39.536-70.711z" fill="#b8ecbc"/><path id="XMLID_1047_" d="m66.563 373.667 132.888 91.965c-1.846 1.665-3.766 3.274-5.792 4.797-36.644 27.541-88.676 20.162-116.217-16.482-17.964-23.903-21.061-54.351-10.879-80.28z" fill="#b8ecbc"/><path id="XMLID_1738_" d="m369.202 455.11c-62.52 62.52-163.885 62.52-226.404 0-54.757-54.757-62.472-140.857-18.321-204.477l60.663-87.414c34.307-49.435 107.413-49.435 141.72 0l60.664 87.414c44.15 63.62 36.436 149.72-18.322 204.477z" fill="#ff9eb1"/><g id="XMLID_1736_"><path id="XMLID_1741_" d="m256 170.143c-14.05 0-26.702 6.62-34.713 18.163l-60.662 87.414c-32.045 46.175-26.457 108.535 13.285 148.278 21.927 21.926 51.08 34.002 82.09 34.002s60.163-12.076 82.089-34.002h.001c39.742-39.743 45.33-102.103 13.285-148.278l-60.663-87.414c-8.01-11.543-20.662-18.163-34.712-18.163z" fill="#fff"/></g><g fill="#a7bdcd"><ellipse id="XMLID_1992_" cx="317.147" cy="381.283" rx="11" ry="15.667"/><ellipse id="XMLID_1991_" cx="256" cy="396.95" rx="11" ry="15.667"/><ellipse id="XMLID_1989_" cx="227.181" cy="342.328" rx="11" ry="15.667"/><ellipse id="XMLID_1986_" cx="330.314" cy="329.738" rx="11" ry="15.667"/><ellipse id="XMLID_1985_" cx="284.819" cy="342.328" rx="11" ry="15.667"/><ellipse id="XMLID_1984_" cx="299.353" cy="274.667" rx="11" ry="15.667"/><ellipse id="XMLID_1983_" cx="194.853" cy="381.283" rx="11" ry="15.667"/><ellipse id="XMLID_1982_" cx="181.686" cy="329.738" rx="11" ry="15.667"/><ellipse id="XMLID_1981_" cx="212.647" cy="274.667" rx="11" ry="15.667"/><ellipse id="XMLID_1980_" cx="256" cy="298.405" rx="11" ry="15.667"/><ellipse id="XMLID_1979_" cx="256" cy="232" rx="11" ry="15.667"/></g><path id="XMLID_28_" d="m454.744 370.012c-1.116-2.844-3.472-5.021-6.395-5.911-2.925-.89-6.094-.394-8.604 1.344l-17.385 12.031c1.97-9.221 3.174-18.584 3.594-27.991 22.153-17.584 35.251-44.481 35.251-72.89 0-32.524-16.558-62.142-44.291-79.226-2.601-1.602-5.791-1.929-8.664-.883-2.871 1.044-5.106 3.344-6.07 6.243l-11.571 34.812-16.523-23.81c6.109-12.592 9.317-26.505 9.317-40.604 0-32.524-16.558-62.142-44.291-79.226-2.602-1.603-5.792-1.928-8.664-.883-2.871 1.044-5.106 3.344-6.07 6.243l-9.318 28.033c-6.665-14.138-10.208-29.447-10.208-44.818v-72.476c0-5.523-4.478-10-10-10-15.653 0-29.643 7.235-38.818 18.531-9.26-11.445-23.375-18.531-38.882-18.531-5.522 0-10 4.477-10 10l-.005 72.476c0 15.372-3.542 30.681-10.208 44.818l-9.318-28.033c-.964-2.899-3.199-5.199-6.07-6.243-2.874-1.046-6.063-.719-8.664.883-27.733 17.084-44.291 46.701-44.291 79.226 0 14.099 3.208 28.011 9.317 40.604l-16.523 23.81-11.571-34.812c-.964-2.899-3.199-5.199-6.07-6.243-2.874-1.045-6.063-.719-8.664.883-27.733 17.084-44.291 46.701-44.291 79.226 0 28.409 13.098 55.306 35.251 72.89.42 9.407 1.624 18.771 3.594 27.991l-17.385-12.031c-2.512-1.739-5.679-2.233-8.604-1.344-2.923.89-5.278 3.067-6.395 5.911-11.907 30.319-7.349 63.943 12.192 89.943 18.026 23.983 45.774 37.182 74.321 37.182 10.506 0 21.122-1.792 31.4-5.489 24.541 13.29 52.143 20.352 80.832 20.352s56.291-7.062 80.83-20.351c10.279 3.698 20.891 5.489 31.4 5.489 28.544 0 56.296-13.201 74.321-37.182 19.542-26.001 24.1-59.625 12.193-89.944zm-37.931-147.902c15.459 13.727 24.393 33.323 24.393 54.483 0 16.828-5.856 32.981-16.203 45.83-2.516-21.86-9.299-43.415-20.464-63.386zm-77.802-103.466c15.459 13.727 24.393 33.323 24.393 54.483 0 7.088-1.033 14.113-3.031 20.842 0 0-31.143-44.123-31.559-44.646zm-111.859-96.942c8.697 3.061 15.659 10.03 18.564 19.092-.558 2.986-.864 6.06-.864 9.206v30.719c0 5.523 4.478 10 10 10s10-4.477 10-10v-30.719c0-13.038 8.359-24.159 20-28.287v60.762c0 13.769 2.373 27.477 6.906 40.563-11.222-4.493-23.337-6.896-35.759-6.896-12.433 0-24.552 2.42-35.782 6.92 4.539-13.094 6.929-26.808 6.929-40.588zm-78.555 151.425c0-21.161 8.934-40.757 24.393-54.483l10.198 30.68c-.417.522-31.559 44.646-31.559 44.646-1.999-6.73-3.032-13.755-3.032-20.843zm-77.803 103.467c0-21.161 8.934-40.757 24.393-54.483l12.274 36.928c-11.165 19.97-17.948 41.526-20.464 63.385-10.347-12.849-16.203-29.003-16.203-45.83zm14.643 171.345c-12.714-16.917-17.347-37.949-13.235-58.209l27.302 18.895c8.329 19.533 20.432 37.765 36.223 53.557 5.204 5.204 10.689 10.022 16.415 14.455-25.242 2.926-50.796-7.531-66.705-28.698zm95.582 24.052c-.301-.198.32.165 0 0-11.069-6.458-21.848-14.651-31.15-23.953-51.383-51.382-58.606-132.005-17.177-191.704 0 0 64.695-92.733 64.708-92.749 14.486-17.522 35.495-27.442 58.6-27.442 23.05 0 44.015 9.873 58.497 27.317 0 0 64.811 92.874 64.811 92.874 41.43 59.698 34.205 140.322-17.177 191.705-9.302 9.302-20.081 17.494-31.15 23.952-.319.164.3-.198 0 0-22.439 12.875-48.414 20.009-74.981 20.009s-52.542-7.134-74.981-20.009zm245.544-24.053c-15.909 21.167-41.463 31.624-66.704 28.697 5.726-4.432 11.211-9.251 16.414-14.454 15.792-15.792 27.894-34.024 36.223-53.557l27.302-18.895c4.112 20.261-.521 41.293-13.235 58.209z" fill="#ff5d7d"/></g></svg>