<svg id="Capa_1" enable-background="new 0 0 512 512" height="512" viewBox="0 0 512 512" width="512" xmlns="http://www.w3.org/2000/svg"><g><circle cx="256" cy="256" fill="#c975f4" r="256"/><g><path d="m512 256c0-2.342-.036-4.675-.099-7.002l-166.383-166.383-237.6 237.6 43.773 43.773-11.903 4.511 142.196 142.196c129.181-13.022 230.016-122.082 230.016-254.695z" fill="#a04cd9"/></g><g><g><path d="m107.918 82.615h118.8v237.6h-118.8z" fill="#dddde1"/><path d="m226.718 82.615h118.8v237.6h-118.8z" fill="#b8b8be"/></g><g><path d="m137.918 112.615h88.8v177.6h-88.8z" fill="#bcfcff"/><path d="m226.718 112.615h88.8v177.6h-88.8z" fill="#7ed7f5"/></g><g><path d="m226.718 173.36c-3.787-12.556-15.438-21.703-29.229-21.703-16.862 0-30.531 13.669-30.531 30.531 0 .588.021 1.171.053 1.75h-.053c0 14.74 7.026 28.598 18.916 37.31l40.844 29.925z" fill="#f599c6"/><path d="m286.478 182.188c0-16.862-13.669-30.531-30.531-30.531-13.792 0-25.442 9.146-29.229 21.703v77.813l40.844-29.925c11.89-8.712 18.917-22.57 18.917-37.31h-.053c.032-.579.052-1.162.052-1.75z" fill="#ef5ca4"/></g><g><path d="m117.283 217.617h237.6v118.8h-237.6z" fill="#fff" transform="matrix(.34 -.94 .94 .34 -104.757 404.695)"/><path d="m228.987 258.059h237.6v118.8h-237.6z" fill="#e3eaee" transform="matrix(.34 -.94 .94 .34 -69.107 536.402)"/></g><g><path d="m161.387 237.723h177.6v88.8h-177.6z" fill="#bcfcff" transform="matrix(.34 -.94 .94 .34 -100.255 421.324)"/><path d="m244.883 267.953h177.6v88.8h-177.6z" fill="#7ed7f5" transform="matrix(.34 -.94 .94 .34 -73.608 519.772)"/></g><g><path d="m301.485 270.859c.713-13.095-7.127-25.662-20.095-30.357-15.854-5.74-33.36 2.459-39.1 18.314-.2.553-.379 1.108-.546 1.664l-.05-.018c-5.018 13.86-3.129 29.282 5.085 41.521l28.217 42.042z" fill="#f599c6"/><path d="m354.671 299.503c5.74-15.855-2.459-33.36-18.314-39.101-12.968-4.695-27.036-.061-34.872 10.456l-26.49 73.165 48.591-14.233c14.146-4.144 25.47-14.782 30.488-28.642l-.05-.018c.229-.533.447-1.074.647-1.627z" fill="#ef5ca4"/></g></g></g></svg>